%TF.GenerationSoftware,KiCad,Pcbnew,(5.1.8-0-10_14)*%
%TF.CreationDate,2021-07-01T23:52:50-05:00*%
%TF.ProjectId,crump-s2,6372756d-702d-4733-922e-6b696361645f,rev?*%
%TF.SameCoordinates,Original*%
%TF.FileFunction,Copper,L1,Top*%
%TF.FilePolarity,Positive*%
%FSLAX46Y46*%
G04 Gerber Fmt 4.6, Leading zero omitted, Abs format (unit mm)*
G04 Created by KiCad (PCBNEW (5.1.8-0-10_14)) date 2021-07-01 23:52:50*
%MOMM*%
%LPD*%
G01*
G04 APERTURE LIST*
%TA.AperFunction,SMDPad,CuDef*%
%ADD10R,2.000000X1.100000*%
%TD*%
%TA.AperFunction,SMDPad,CuDef*%
%ADD11R,0.700000X1.000000*%
%TD*%
%TA.AperFunction,ComponentPad*%
%ADD12O,0.900000X1.700000*%
%TD*%
%TA.AperFunction,ComponentPad*%
%ADD13O,0.900000X2.400000*%
%TD*%
%TA.AperFunction,ComponentPad*%
%ADD14C,0.700000*%
%TD*%
%TA.AperFunction,ComponentPad*%
%ADD15O,1.700000X1.700000*%
%TD*%
%TA.AperFunction,ComponentPad*%
%ADD16R,1.700000X1.700000*%
%TD*%
%TA.AperFunction,ViaPad*%
%ADD17C,0.800000*%
%TD*%
%TA.AperFunction,Conductor*%
%ADD18C,0.250000*%
%TD*%
%TA.AperFunction,Conductor*%
%ADD19C,0.200000*%
%TD*%
%TA.AperFunction,Conductor*%
%ADD20C,0.254000*%
%TD*%
%TA.AperFunction,Conductor*%
%ADD21C,0.100000*%
%TD*%
G04 APERTURE END LIST*
D10*
%TO.P,D2,1*%
%TO.N,/IO40*%
X37605000Y-27510000D03*
%TO.P,D2,2*%
%TO.N,/IO45*%
X37605000Y-29210000D03*
%TO.P,D2,3*%
%TO.N,GND*%
X37605000Y-30910000D03*
%TO.P,D2,4*%
%TO.N,+5V*%
X42405000Y-30910000D03*
%TO.P,D2,5*%
%TO.N,N/C*%
X42405000Y-29210000D03*
%TO.P,D2,6*%
X42405000Y-27510000D03*
%TD*%
D11*
%TO.P,SW2,2*%
%TO.N,GND*%
X43620000Y-54900000D03*
%TO.P,SW2,1*%
%TO.N,/EN*%
X41470000Y-54900000D03*
%TO.P,SW2,3*%
%TO.N,N/C*%
X43620000Y-59400000D03*
%TO.P,SW2,1*%
%TO.N,/EN*%
X41470000Y-59400000D03*
%TD*%
%TO.P,SW1,2*%
%TO.N,GND*%
X38540000Y-54900000D03*
%TO.P,SW1,1*%
%TO.N,/IO00*%
X36390000Y-54900000D03*
%TO.P,SW1,3*%
%TO.N,N/C*%
X38540000Y-59400000D03*
%TO.P,SW1,1*%
%TO.N,/IO00*%
X36390000Y-59400000D03*
%TD*%
D12*
%TO.P,J1,S1*%
%TO.N,Net-(J1-PadS1)*%
X44320500Y-65574000D03*
X35670500Y-65574000D03*
D13*
X44320500Y-62194000D03*
X35670500Y-62194000D03*
D14*
%TO.P,J1,B6*%
%TO.N,/USB_D+*%
X40420500Y-62564000D03*
%TO.P,J1,B1*%
%TO.N,GND*%
X42970500Y-62564000D03*
%TO.P,J1,B4*%
%TO.N,Net-(D1-Pad2)*%
X42120500Y-62564000D03*
%TO.P,J1,B5*%
%TO.N,Net-(J1-PadB5)*%
X41270500Y-62564000D03*
%TO.P,J1,B12*%
%TO.N,GND*%
X37020500Y-62564000D03*
%TO.P,J1,B8*%
%TO.N,N/C*%
X38720500Y-62564000D03*
%TO.P,J1,B7*%
%TO.N,/USB_D-*%
X39570500Y-62564000D03*
%TO.P,J1,B9*%
%TO.N,Net-(D1-Pad2)*%
X37870500Y-62564000D03*
%TO.P,J1,A12*%
%TO.N,GND*%
X42970500Y-61214000D03*
%TO.P,J1,A9*%
%TO.N,Net-(D1-Pad2)*%
X42120500Y-61214000D03*
%TO.P,J1,A8*%
%TO.N,N/C*%
X41270500Y-61214000D03*
%TO.P,J1,A7*%
%TO.N,/USB_D-*%
X40420500Y-61214000D03*
%TO.P,J1,A6*%
%TO.N,/USB_D+*%
X39570500Y-61214000D03*
%TO.P,J1,A5*%
%TO.N,Net-(J1-PadA5)*%
X38720500Y-61214000D03*
%TO.P,J1,A4*%
%TO.N,Net-(D1-Pad2)*%
X37870500Y-61214000D03*
%TO.P,J1,A1*%
%TO.N,GND*%
X37020500Y-61214000D03*
%TD*%
D15*
%TO.P,J2,18*%
%TO.N,+5V*%
X51435000Y-64770000D03*
%TO.P,J2,17*%
%TO.N,/IO16*%
X51435000Y-62230000D03*
%TO.P,J2,16*%
%TO.N,/IO15*%
X51435000Y-59690000D03*
%TO.P,J2,15*%
%TO.N,/IO14*%
X51435000Y-57150000D03*
%TO.P,J2,14*%
%TO.N,/IO13*%
X51435000Y-54610000D03*
%TO.P,J2,13*%
%TO.N,/IO12*%
X51435000Y-52070000D03*
%TO.P,J2,12*%
%TO.N,/IO11*%
X51435000Y-49530000D03*
%TO.P,J2,11*%
%TO.N,/IO10*%
X51435000Y-46990000D03*
%TO.P,J2,10*%
%TO.N,/IO09*%
X51435000Y-44450000D03*
%TO.P,J2,9*%
%TO.N,/IO08*%
X51435000Y-41910000D03*
%TO.P,J2,8*%
%TO.N,/IO07*%
X51435000Y-39370000D03*
%TO.P,J2,7*%
%TO.N,/IO06*%
X51435000Y-36830000D03*
%TO.P,J2,6*%
%TO.N,/IO05*%
X51435000Y-34290000D03*
%TO.P,J2,5*%
%TO.N,/IO04*%
X51435000Y-31750000D03*
%TO.P,J2,4*%
%TO.N,/IO03*%
X51435000Y-29210000D03*
%TO.P,J2,3*%
%TO.N,/IO02*%
X51435000Y-26670000D03*
%TO.P,J2,2*%
%TO.N,/IO01*%
X51435000Y-24130000D03*
D16*
%TO.P,J2,1*%
%TO.N,/IO00*%
X51435000Y-21590000D03*
%TD*%
%TO.P,J3,1*%
%TO.N,/IO46*%
X28575000Y-21590000D03*
D15*
%TO.P,J3,2*%
%TO.N,/RX*%
X28575000Y-24130000D03*
%TO.P,J3,3*%
%TO.N,/TX*%
X28575000Y-26670000D03*
%TO.P,J3,4*%
%TO.N,/IO42*%
X28575000Y-29210000D03*
%TO.P,J3,5*%
%TO.N,/IO41*%
X28575000Y-31750000D03*
%TO.P,J3,6*%
%TO.N,/IO39*%
X28575000Y-34290000D03*
%TO.P,J3,7*%
%TO.N,/IO38*%
X28575000Y-36830000D03*
%TO.P,J3,8*%
%TO.N,/IO37*%
X28575000Y-39370000D03*
%TO.P,J3,9*%
%TO.N,/IO36*%
X28575000Y-41910000D03*
%TO.P,J3,10*%
%TO.N,/IO35*%
X28575000Y-44450000D03*
%TO.P,J3,11*%
%TO.N,/IO34*%
X28575000Y-46990000D03*
%TO.P,J3,12*%
%TO.N,/IO33*%
X28575000Y-49530000D03*
%TO.P,J3,13*%
%TO.N,/IO26*%
X28575000Y-52070000D03*
%TO.P,J3,14*%
%TO.N,/IO21*%
X28575000Y-54610000D03*
%TO.P,J3,15*%
%TO.N,/IO18*%
X28575000Y-57150000D03*
%TO.P,J3,16*%
%TO.N,/IO17*%
X28575000Y-59690000D03*
%TO.P,J3,17*%
%TO.N,+3V3*%
X28575000Y-62230000D03*
%TO.P,J3,18*%
%TO.N,GND*%
X28575000Y-64770000D03*
%TD*%
D17*
%TO.N,GND*%
X40640000Y-30988000D03*
X42545000Y-54610000D03*
X42545000Y-54610000D03*
X44958000Y-53340000D03*
X38735000Y-57150000D03*
X33020000Y-53340000D03*
X33020000Y-45720000D03*
%TO.N,/USB_D+*%
X37378640Y-39344600D03*
%TO.N,/USB_D-*%
X42926000Y-37084000D03*
%TO.N,+3V3*%
X46990000Y-45720000D03*
X46990000Y-22860000D03*
X45084996Y-55880000D03*
%TO.N,/EN*%
X43434000Y-56660011D03*
X33020000Y-22860000D03*
%TO.N,/IO45*%
X37605000Y-29210000D03*
%TO.N,/IO40*%
X39205002Y-30734000D03*
%TO.N,/IO11*%
X46990000Y-40640000D03*
%TO.N,/IO09*%
X46990000Y-38100000D03*
%TO.N,/IO00*%
X37399836Y-56529714D03*
%TO.N,+5V*%
X33019992Y-58420000D03*
%TD*%
D18*
%TO.N,GND*%
X37605000Y-30910000D02*
X38154001Y-31459001D01*
X40168999Y-31459001D02*
X40640000Y-30988000D01*
X38154001Y-31459001D02*
X40168999Y-31459001D01*
X42835000Y-54900000D02*
X42545000Y-54610000D01*
X43620000Y-54900000D02*
X42835000Y-54900000D01*
X43815000Y-53340000D02*
X42545000Y-54610000D01*
X44958000Y-53340000D02*
X43815000Y-53340000D01*
X38540000Y-56955000D02*
X38735000Y-57150000D01*
X38540000Y-54900000D02*
X38540000Y-56955000D01*
X38540000Y-54900000D02*
X38540000Y-54150000D01*
X38540000Y-54150000D02*
X37730000Y-53340000D01*
X37730000Y-53340000D02*
X33020000Y-53340000D01*
D19*
X33020000Y-52774315D02*
X33020000Y-45720000D01*
X33020000Y-53340000D02*
X33020000Y-52774315D01*
D18*
%TO.N,/USB_D+*%
X39570500Y-61363002D02*
X39570500Y-61214000D01*
X40420500Y-62213002D02*
X39570500Y-61363002D01*
X40420500Y-62564000D02*
X40420500Y-62213002D01*
X44641519Y-63719010D02*
X45974000Y-62386529D01*
X40420500Y-63058974D02*
X41080536Y-63719010D01*
X37378640Y-40712748D02*
X37378640Y-39344600D01*
X45974000Y-62386529D02*
X45974000Y-49308108D01*
X40420500Y-62564000D02*
X40420500Y-63058974D01*
X41080536Y-63719010D02*
X44641519Y-63719010D01*
X45974000Y-49308108D02*
X37378640Y-40712748D01*
%TO.N,/USB_D-*%
X42926000Y-45523004D02*
X42926000Y-37649685D01*
X45910305Y-48507309D02*
X42926000Y-45523004D01*
X42926000Y-37649685D02*
X42926000Y-37084000D01*
X44827919Y-64169021D02*
X46482000Y-62514940D01*
X40680547Y-64169021D02*
X44827919Y-64169021D01*
X46482000Y-49179697D02*
X45910305Y-48608002D01*
X45910305Y-48608002D02*
X45910305Y-48507309D01*
X39570500Y-62564000D02*
X39570500Y-63058974D01*
X46482000Y-62514940D02*
X46482000Y-49179697D01*
X39570500Y-63058974D02*
X40680547Y-64169021D01*
%TO.N,+3V3*%
X45955001Y-44685001D02*
X45955001Y-23894999D01*
X46990000Y-45720000D02*
X45955001Y-44685001D01*
X45955001Y-23894999D02*
X46990000Y-22860000D01*
X28575000Y-62230000D02*
X30266001Y-60538999D01*
X42145001Y-59385680D02*
X45084996Y-56445685D01*
X42145001Y-60160001D02*
X42145001Y-59385680D01*
X30266001Y-60538999D02*
X41766003Y-60538999D01*
X41766003Y-60538999D02*
X42145001Y-60160001D01*
X45084996Y-56445685D02*
X45084996Y-55880000D01*
D19*
%TO.N,/EN*%
X41673989Y-54900000D02*
X41470000Y-54900000D01*
X43434000Y-56660011D02*
X41673989Y-54900000D01*
X43434000Y-57436000D02*
X41470000Y-59400000D01*
X43434000Y-56660011D02*
X43434000Y-57436000D01*
X34054999Y-23894999D02*
X33020000Y-22860000D01*
X41470000Y-54900000D02*
X34054999Y-47484999D01*
X34054999Y-47484999D02*
X34054999Y-23894999D01*
D18*
%TO.N,/IO40*%
X38040002Y-27510000D02*
X37605000Y-27510000D01*
X39205002Y-28675000D02*
X38040002Y-27510000D01*
X39205002Y-30734000D02*
X39205002Y-28675000D01*
%TO.N,/IO11*%
X50585001Y-48330797D02*
X46990000Y-44735796D01*
X50585001Y-48680001D02*
X50585001Y-48330797D01*
X46990000Y-44735796D02*
X46990000Y-40640000D01*
X51435000Y-49530000D02*
X50585001Y-48680001D01*
%TO.N,/IO09*%
X47678011Y-38788011D02*
X46990000Y-38100000D01*
X51435000Y-44450000D02*
X47678011Y-40693011D01*
X47678011Y-40693011D02*
X47678011Y-38788011D01*
D19*
%TO.N,/IO00*%
X36390000Y-55519878D02*
X37399836Y-56529714D01*
X36390000Y-57539550D02*
X37399836Y-56529714D01*
X36390000Y-54900000D02*
X36390000Y-55519878D01*
X36390000Y-59400000D02*
X36390000Y-57539550D01*
D18*
%TO.N,+5V*%
X34036000Y-57658000D02*
X33274000Y-58420000D01*
X33274000Y-58420000D02*
X33019992Y-58420000D01*
%TD*%
D20*
%TO.N,+5V*%
X51552869Y-19724722D02*
X51666246Y-19758953D01*
X51770819Y-19814555D01*
X51862596Y-19889407D01*
X51938091Y-19980664D01*
X51994419Y-20084844D01*
X51999708Y-20101928D01*
X50585000Y-20101928D01*
X50460518Y-20114188D01*
X50340820Y-20150498D01*
X50230506Y-20209463D01*
X50133815Y-20288815D01*
X50054463Y-20385506D01*
X49995498Y-20495820D01*
X49959188Y-20615518D01*
X49946928Y-20740000D01*
X49946928Y-22440000D01*
X49959188Y-22564482D01*
X49995498Y-22684180D01*
X50054463Y-22794494D01*
X50133815Y-22891185D01*
X50230506Y-22970537D01*
X50340820Y-23029502D01*
X50413380Y-23051513D01*
X50281525Y-23183368D01*
X50119010Y-23426589D01*
X50007068Y-23696842D01*
X49950000Y-23983740D01*
X49950000Y-24276260D01*
X50007068Y-24563158D01*
X50119010Y-24833411D01*
X50281525Y-25076632D01*
X50488368Y-25283475D01*
X50662760Y-25400000D01*
X50488368Y-25516525D01*
X50281525Y-25723368D01*
X50119010Y-25966589D01*
X50007068Y-26236842D01*
X49950000Y-26523740D01*
X49950000Y-26816260D01*
X50007068Y-27103158D01*
X50119010Y-27373411D01*
X50281525Y-27616632D01*
X50488368Y-27823475D01*
X50662760Y-27940000D01*
X50488368Y-28056525D01*
X50281525Y-28263368D01*
X50119010Y-28506589D01*
X50007068Y-28776842D01*
X49950000Y-29063740D01*
X49950000Y-29356260D01*
X50007068Y-29643158D01*
X50119010Y-29913411D01*
X50281525Y-30156632D01*
X50488368Y-30363475D01*
X50662760Y-30480000D01*
X50488368Y-30596525D01*
X50281525Y-30803368D01*
X50119010Y-31046589D01*
X50007068Y-31316842D01*
X49950000Y-31603740D01*
X49950000Y-31896260D01*
X50007068Y-32183158D01*
X50119010Y-32453411D01*
X50281525Y-32696632D01*
X50488368Y-32903475D01*
X50662760Y-33020000D01*
X50488368Y-33136525D01*
X50281525Y-33343368D01*
X50119010Y-33586589D01*
X50007068Y-33856842D01*
X49950000Y-34143740D01*
X49950000Y-34436260D01*
X50007068Y-34723158D01*
X50119010Y-34993411D01*
X50281525Y-35236632D01*
X50488368Y-35443475D01*
X50662760Y-35560000D01*
X50488368Y-35676525D01*
X50281525Y-35883368D01*
X50119010Y-36126589D01*
X50007068Y-36396842D01*
X49950000Y-36683740D01*
X49950000Y-36976260D01*
X50007068Y-37263158D01*
X50119010Y-37533411D01*
X50281525Y-37776632D01*
X50488368Y-37983475D01*
X50662760Y-38100000D01*
X50488368Y-38216525D01*
X50281525Y-38423368D01*
X50119010Y-38666589D01*
X50007068Y-38936842D01*
X49950000Y-39223740D01*
X49950000Y-39516260D01*
X50007068Y-39803158D01*
X50119010Y-40073411D01*
X50281525Y-40316632D01*
X50488368Y-40523475D01*
X50662760Y-40640000D01*
X50488368Y-40756525D01*
X50281525Y-40963368D01*
X50119010Y-41206589D01*
X50007068Y-41476842D01*
X49950000Y-41763740D01*
X49950000Y-41890199D01*
X48438011Y-40378210D01*
X48438011Y-38825333D01*
X48441687Y-38788010D01*
X48438011Y-38750687D01*
X48438011Y-38750678D01*
X48427014Y-38639025D01*
X48383557Y-38495764D01*
X48312985Y-38363735D01*
X48299822Y-38347696D01*
X48241810Y-38277007D01*
X48241806Y-38277003D01*
X48218012Y-38248010D01*
X48189019Y-38224216D01*
X48025000Y-38060198D01*
X48025000Y-37998061D01*
X47985226Y-37798102D01*
X47907205Y-37609744D01*
X47793937Y-37440226D01*
X47649774Y-37296063D01*
X47480256Y-37182795D01*
X47291898Y-37104774D01*
X47091939Y-37065000D01*
X46888061Y-37065000D01*
X46715001Y-37099423D01*
X46715001Y-24209800D01*
X47029802Y-23895000D01*
X47091939Y-23895000D01*
X47291898Y-23855226D01*
X47480256Y-23777205D01*
X47649774Y-23663937D01*
X47793937Y-23519774D01*
X47907205Y-23350256D01*
X47985226Y-23161898D01*
X48025000Y-22961939D01*
X48025000Y-22758061D01*
X47985226Y-22558102D01*
X47907205Y-22369744D01*
X47793937Y-22200226D01*
X47649774Y-22056063D01*
X47480256Y-21942795D01*
X47291898Y-21864774D01*
X47091939Y-21825000D01*
X46888061Y-21825000D01*
X46688102Y-21864774D01*
X46499744Y-21942795D01*
X46330226Y-22056063D01*
X46186063Y-22200226D01*
X46072795Y-22369744D01*
X45994774Y-22558102D01*
X45955000Y-22758061D01*
X45955000Y-22820198D01*
X45443999Y-23331200D01*
X45415001Y-23354998D01*
X45391203Y-23383996D01*
X45391202Y-23383997D01*
X45320027Y-23470723D01*
X45249455Y-23602753D01*
X45205999Y-23746014D01*
X45191325Y-23894999D01*
X45195002Y-23932332D01*
X45195001Y-44647679D01*
X45191325Y-44685001D01*
X45195001Y-44722323D01*
X45195001Y-44722333D01*
X45205998Y-44833986D01*
X45243982Y-44959205D01*
X45249455Y-44977247D01*
X45320027Y-45109277D01*
X45356247Y-45153411D01*
X45415000Y-45225002D01*
X45444003Y-45248805D01*
X45955000Y-45759802D01*
X45955000Y-45821939D01*
X45994774Y-46021898D01*
X46072795Y-46210256D01*
X46186063Y-46379774D01*
X46330226Y-46523937D01*
X46499744Y-46637205D01*
X46688102Y-46715226D01*
X46888061Y-46755000D01*
X47091939Y-46755000D01*
X47291898Y-46715226D01*
X47480256Y-46637205D01*
X47649774Y-46523937D01*
X47676557Y-46497154D01*
X49824739Y-48645337D01*
X49821325Y-48680001D01*
X49825001Y-48717323D01*
X49825001Y-48717333D01*
X49835998Y-48828986D01*
X49867121Y-48931585D01*
X49879455Y-48972247D01*
X49950027Y-49104277D01*
X49981218Y-49142283D01*
X49994749Y-49158771D01*
X49950000Y-49383740D01*
X49950000Y-49676260D01*
X50007068Y-49963158D01*
X50119010Y-50233411D01*
X50281525Y-50476632D01*
X50488368Y-50683475D01*
X50662760Y-50800000D01*
X50488368Y-50916525D01*
X50281525Y-51123368D01*
X50119010Y-51366589D01*
X50007068Y-51636842D01*
X49950000Y-51923740D01*
X49950000Y-52216260D01*
X50007068Y-52503158D01*
X50119010Y-52773411D01*
X50281525Y-53016632D01*
X50488368Y-53223475D01*
X50662760Y-53340000D01*
X50488368Y-53456525D01*
X50281525Y-53663368D01*
X50119010Y-53906589D01*
X50007068Y-54176842D01*
X49950000Y-54463740D01*
X49950000Y-54756260D01*
X50007068Y-55043158D01*
X50119010Y-55313411D01*
X50281525Y-55556632D01*
X50488368Y-55763475D01*
X50662760Y-55880000D01*
X50488368Y-55996525D01*
X50281525Y-56203368D01*
X50119010Y-56446589D01*
X50007068Y-56716842D01*
X49950000Y-57003740D01*
X49950000Y-57296260D01*
X50007068Y-57583158D01*
X50119010Y-57853411D01*
X50281525Y-58096632D01*
X50488368Y-58303475D01*
X50662760Y-58420000D01*
X50488368Y-58536525D01*
X50281525Y-58743368D01*
X50119010Y-58986589D01*
X50007068Y-59256842D01*
X49950000Y-59543740D01*
X49950000Y-59836260D01*
X50007068Y-60123158D01*
X50119010Y-60393411D01*
X50281525Y-60636632D01*
X50488368Y-60843475D01*
X50662760Y-60960000D01*
X50488368Y-61076525D01*
X50281525Y-61283368D01*
X50119010Y-61526589D01*
X50007068Y-61796842D01*
X49950000Y-62083740D01*
X49950000Y-62376260D01*
X50007068Y-62663158D01*
X50119010Y-62933411D01*
X50281525Y-63176632D01*
X50488368Y-63383475D01*
X50670534Y-63505195D01*
X50553645Y-63574822D01*
X50337412Y-63769731D01*
X50163359Y-64003080D01*
X50038175Y-64265901D01*
X49993524Y-64413110D01*
X50114845Y-64643000D01*
X51308000Y-64643000D01*
X51308000Y-64623000D01*
X51562000Y-64623000D01*
X51562000Y-64643000D01*
X51582000Y-64643000D01*
X51582000Y-64897000D01*
X51562000Y-64897000D01*
X51562000Y-66090814D01*
X51791891Y-66211481D01*
X52033422Y-66125803D01*
X52030278Y-66157869D01*
X51996047Y-66271246D01*
X51940446Y-66375817D01*
X51865594Y-66467595D01*
X51774335Y-66543091D01*
X51670160Y-66599419D01*
X51557024Y-66634440D01*
X51408979Y-66650000D01*
X45169323Y-66650000D01*
X45227009Y-66579710D01*
X45327759Y-66391220D01*
X45389800Y-66186696D01*
X45405500Y-66027293D01*
X45405500Y-65126890D01*
X49993524Y-65126890D01*
X50038175Y-65274099D01*
X50163359Y-65536920D01*
X50337412Y-65770269D01*
X50553645Y-65965178D01*
X50803748Y-66114157D01*
X51078109Y-66211481D01*
X51308000Y-66090814D01*
X51308000Y-64897000D01*
X50114845Y-64897000D01*
X49993524Y-65126890D01*
X45405500Y-65126890D01*
X45405500Y-65120706D01*
X45389800Y-64961303D01*
X45327759Y-64756780D01*
X45322261Y-64746494D01*
X45367920Y-64709022D01*
X45391723Y-64680018D01*
X46993004Y-63078738D01*
X47022001Y-63054941D01*
X47116974Y-62939216D01*
X47187546Y-62807187D01*
X47231003Y-62663926D01*
X47242000Y-62552273D01*
X47242000Y-62552265D01*
X47245676Y-62514940D01*
X47242000Y-62477615D01*
X47242000Y-49217020D01*
X47245676Y-49179697D01*
X47242000Y-49142374D01*
X47242000Y-49142364D01*
X47231003Y-49030711D01*
X47187546Y-48887450D01*
X47116974Y-48755421D01*
X47022001Y-48639696D01*
X46993002Y-48615897D01*
X46626164Y-48249060D01*
X46615851Y-48215062D01*
X46545279Y-48083033D01*
X46474104Y-47996306D01*
X46450306Y-47967308D01*
X46421308Y-47943510D01*
X43686000Y-45208203D01*
X43686000Y-37787711D01*
X43729937Y-37743774D01*
X43843205Y-37574256D01*
X43921226Y-37385898D01*
X43961000Y-37185939D01*
X43961000Y-36982061D01*
X43921226Y-36782102D01*
X43843205Y-36593744D01*
X43729937Y-36424226D01*
X43585774Y-36280063D01*
X43416256Y-36166795D01*
X43227898Y-36088774D01*
X43027939Y-36049000D01*
X42824061Y-36049000D01*
X42624102Y-36088774D01*
X42435744Y-36166795D01*
X42266226Y-36280063D01*
X42122063Y-36424226D01*
X42008795Y-36593744D01*
X41930774Y-36782102D01*
X41891000Y-36982061D01*
X41891000Y-37185939D01*
X41930774Y-37385898D01*
X42008795Y-37574256D01*
X42122063Y-37743774D01*
X42166001Y-37787712D01*
X42166000Y-44425307D01*
X38138640Y-40397947D01*
X38138640Y-40048311D01*
X38182577Y-40004374D01*
X38295845Y-39834856D01*
X38373866Y-39646498D01*
X38413640Y-39446539D01*
X38413640Y-39242661D01*
X38373866Y-39042702D01*
X38295845Y-38854344D01*
X38182577Y-38684826D01*
X38038414Y-38540663D01*
X37868896Y-38427395D01*
X37680538Y-38349374D01*
X37480579Y-38309600D01*
X37276701Y-38309600D01*
X37076742Y-38349374D01*
X36888384Y-38427395D01*
X36718866Y-38540663D01*
X36574703Y-38684826D01*
X36461435Y-38854344D01*
X36383414Y-39042702D01*
X36343640Y-39242661D01*
X36343640Y-39446539D01*
X36383414Y-39646498D01*
X36461435Y-39834856D01*
X36574703Y-40004374D01*
X36618640Y-40048311D01*
X36618640Y-40675425D01*
X36614964Y-40712748D01*
X36618640Y-40750070D01*
X36618640Y-40750080D01*
X36629637Y-40861733D01*
X36660467Y-40963368D01*
X36673094Y-41004994D01*
X36743666Y-41137024D01*
X36783511Y-41185574D01*
X36838639Y-41252749D01*
X36867643Y-41276552D01*
X45214001Y-49622911D01*
X45214001Y-52335645D01*
X45059939Y-52305000D01*
X44856061Y-52305000D01*
X44656102Y-52344774D01*
X44467744Y-52422795D01*
X44298226Y-52536063D01*
X44254289Y-52580000D01*
X43852322Y-52580000D01*
X43814999Y-52576324D01*
X43777676Y-52580000D01*
X43777667Y-52580000D01*
X43666014Y-52590997D01*
X43522753Y-52634454D01*
X43390724Y-52705026D01*
X43274999Y-52799999D01*
X43251201Y-52828997D01*
X42505199Y-53575000D01*
X42443061Y-53575000D01*
X42243102Y-53614774D01*
X42054744Y-53692795D01*
X41934414Y-53773196D01*
X41820000Y-53761928D01*
X41371375Y-53761928D01*
X34789999Y-47180553D01*
X34789999Y-26960000D01*
X35966928Y-26960000D01*
X35966928Y-28060000D01*
X35979188Y-28184482D01*
X36015498Y-28304180D01*
X36045335Y-28360000D01*
X36015498Y-28415820D01*
X35979188Y-28535518D01*
X35966928Y-28660000D01*
X35966928Y-29760000D01*
X35979188Y-29884482D01*
X36015498Y-30004180D01*
X36045335Y-30060000D01*
X36015498Y-30115820D01*
X35979188Y-30235518D01*
X35966928Y-30360000D01*
X35966928Y-31460000D01*
X35979188Y-31584482D01*
X36015498Y-31704180D01*
X36074463Y-31814494D01*
X36153815Y-31911185D01*
X36250506Y-31990537D01*
X36360820Y-32049502D01*
X36480518Y-32085812D01*
X36605000Y-32098072D01*
X37737390Y-32098072D01*
X37861754Y-32164547D01*
X38005015Y-32208004D01*
X38116668Y-32219001D01*
X38116676Y-32219001D01*
X38154001Y-32222677D01*
X38191326Y-32219001D01*
X40131677Y-32219001D01*
X40168999Y-32222677D01*
X40206321Y-32219001D01*
X40206332Y-32219001D01*
X40317985Y-32208004D01*
X40461246Y-32164547D01*
X40593275Y-32093975D01*
X40679758Y-32023000D01*
X40741939Y-32023000D01*
X40941898Y-31983226D01*
X41008156Y-31955781D01*
X41050506Y-31990537D01*
X41160820Y-32049502D01*
X41280518Y-32085812D01*
X41405000Y-32098072D01*
X42119250Y-32095000D01*
X42278000Y-31936250D01*
X42278000Y-31037000D01*
X42532000Y-31037000D01*
X42532000Y-31936250D01*
X42690750Y-32095000D01*
X43405000Y-32098072D01*
X43529482Y-32085812D01*
X43649180Y-32049502D01*
X43759494Y-31990537D01*
X43856185Y-31911185D01*
X43935537Y-31814494D01*
X43994502Y-31704180D01*
X44030812Y-31584482D01*
X44043072Y-31460000D01*
X44040000Y-31195750D01*
X43881250Y-31037000D01*
X42532000Y-31037000D01*
X42278000Y-31037000D01*
X42258000Y-31037000D01*
X42258000Y-30783000D01*
X42278000Y-30783000D01*
X42278000Y-30763000D01*
X42532000Y-30763000D01*
X42532000Y-30783000D01*
X43881250Y-30783000D01*
X44040000Y-30624250D01*
X44043072Y-30360000D01*
X44030812Y-30235518D01*
X43994502Y-30115820D01*
X43964665Y-30060000D01*
X43994502Y-30004180D01*
X44030812Y-29884482D01*
X44043072Y-29760000D01*
X44043072Y-28660000D01*
X44030812Y-28535518D01*
X43994502Y-28415820D01*
X43964665Y-28360000D01*
X43994502Y-28304180D01*
X44030812Y-28184482D01*
X44043072Y-28060000D01*
X44043072Y-26960000D01*
X44030812Y-26835518D01*
X43994502Y-26715820D01*
X43935537Y-26605506D01*
X43856185Y-26508815D01*
X43759494Y-26429463D01*
X43649180Y-26370498D01*
X43529482Y-26334188D01*
X43405000Y-26321928D01*
X41405000Y-26321928D01*
X41280518Y-26334188D01*
X41160820Y-26370498D01*
X41050506Y-26429463D01*
X40953815Y-26508815D01*
X40874463Y-26605506D01*
X40815498Y-26715820D01*
X40779188Y-26835518D01*
X40766928Y-26960000D01*
X40766928Y-28060000D01*
X40779188Y-28184482D01*
X40815498Y-28304180D01*
X40845335Y-28360000D01*
X40815498Y-28415820D01*
X40779188Y-28535518D01*
X40766928Y-28660000D01*
X40766928Y-29760000D01*
X40779188Y-29884482D01*
X40803699Y-29965285D01*
X40741939Y-29953000D01*
X40538061Y-29953000D01*
X40338102Y-29992774D01*
X40149744Y-30070795D01*
X40050815Y-30136897D01*
X40008939Y-30074226D01*
X39965002Y-30030289D01*
X39965002Y-28712323D01*
X39968678Y-28675000D01*
X39965002Y-28637677D01*
X39965002Y-28637667D01*
X39954005Y-28526014D01*
X39910548Y-28382753D01*
X39839976Y-28250724D01*
X39745003Y-28134999D01*
X39716005Y-28111201D01*
X39243072Y-27638268D01*
X39243072Y-26960000D01*
X39230812Y-26835518D01*
X39194502Y-26715820D01*
X39135537Y-26605506D01*
X39056185Y-26508815D01*
X38959494Y-26429463D01*
X38849180Y-26370498D01*
X38729482Y-26334188D01*
X38605000Y-26321928D01*
X36605000Y-26321928D01*
X36480518Y-26334188D01*
X36360820Y-26370498D01*
X36250506Y-26429463D01*
X36153815Y-26508815D01*
X36074463Y-26605506D01*
X36015498Y-26715820D01*
X35979188Y-26835518D01*
X35966928Y-26960000D01*
X34789999Y-26960000D01*
X34789999Y-23931104D01*
X34793555Y-23894999D01*
X34779364Y-23750914D01*
X34737336Y-23612365D01*
X34669086Y-23484679D01*
X34600252Y-23400805D01*
X34577237Y-23372761D01*
X34549192Y-23349745D01*
X34055000Y-22855554D01*
X34055000Y-22758061D01*
X34015226Y-22558102D01*
X33937205Y-22369744D01*
X33823937Y-22200226D01*
X33679774Y-22056063D01*
X33510256Y-21942795D01*
X33321898Y-21864774D01*
X33121939Y-21825000D01*
X32918061Y-21825000D01*
X32718102Y-21864774D01*
X32529744Y-21942795D01*
X32360226Y-22056063D01*
X32216063Y-22200226D01*
X32102795Y-22369744D01*
X32024774Y-22558102D01*
X31985000Y-22758061D01*
X31985000Y-22961939D01*
X32024774Y-23161898D01*
X32102795Y-23350256D01*
X32216063Y-23519774D01*
X32360226Y-23663937D01*
X32529744Y-23777205D01*
X32718102Y-23855226D01*
X32918061Y-23895000D01*
X33015554Y-23895000D01*
X33320000Y-24199447D01*
X33319999Y-44724396D01*
X33121939Y-44685000D01*
X32918061Y-44685000D01*
X32718102Y-44724774D01*
X32529744Y-44802795D01*
X32360226Y-44916063D01*
X32216063Y-45060226D01*
X32102795Y-45229744D01*
X32024774Y-45418102D01*
X31985000Y-45618061D01*
X31985000Y-45821939D01*
X32024774Y-46021898D01*
X32102795Y-46210256D01*
X32216063Y-46379774D01*
X32285001Y-46448712D01*
X32285000Y-52611289D01*
X32216063Y-52680226D01*
X32102795Y-52849744D01*
X32024774Y-53038102D01*
X31985000Y-53238061D01*
X31985000Y-53441939D01*
X32024774Y-53641898D01*
X32102795Y-53830256D01*
X32216063Y-53999774D01*
X32360226Y-54143937D01*
X32529744Y-54257205D01*
X32718102Y-54335226D01*
X32918061Y-54375000D01*
X33121939Y-54375000D01*
X33321898Y-54335226D01*
X33510256Y-54257205D01*
X33679774Y-54143937D01*
X33723711Y-54100000D01*
X35480335Y-54100000D01*
X35450498Y-54155820D01*
X35414188Y-54275518D01*
X35401928Y-54400000D01*
X35401928Y-55400000D01*
X35414188Y-55524482D01*
X35450498Y-55644180D01*
X35509463Y-55754494D01*
X35588815Y-55851185D01*
X35685506Y-55930537D01*
X35795820Y-55989502D01*
X35834118Y-56001120D01*
X35867763Y-56042116D01*
X35895808Y-56065132D01*
X36360390Y-56529714D01*
X35895808Y-56994296D01*
X35867763Y-57017312D01*
X35775914Y-57129230D01*
X35740926Y-57194688D01*
X35707664Y-57256917D01*
X35665635Y-57395465D01*
X35651444Y-57539550D01*
X35655001Y-57575665D01*
X35655001Y-58394498D01*
X35588815Y-58448815D01*
X35509463Y-58545506D01*
X35450498Y-58655820D01*
X35414188Y-58775518D01*
X35401928Y-58900000D01*
X35401928Y-59778999D01*
X30303334Y-59778999D01*
X30266001Y-59775322D01*
X30228668Y-59778999D01*
X30117015Y-59789996D01*
X30060000Y-59807291D01*
X30060000Y-59543740D01*
X30002932Y-59256842D01*
X29890990Y-58986589D01*
X29728475Y-58743368D01*
X29521632Y-58536525D01*
X29347240Y-58420000D01*
X29521632Y-58303475D01*
X29728475Y-58096632D01*
X29890990Y-57853411D01*
X30002932Y-57583158D01*
X30060000Y-57296260D01*
X30060000Y-57003740D01*
X30002932Y-56716842D01*
X29890990Y-56446589D01*
X29728475Y-56203368D01*
X29521632Y-55996525D01*
X29347240Y-55880000D01*
X29521632Y-55763475D01*
X29728475Y-55556632D01*
X29890990Y-55313411D01*
X30002932Y-55043158D01*
X30060000Y-54756260D01*
X30060000Y-54463740D01*
X30002932Y-54176842D01*
X29890990Y-53906589D01*
X29728475Y-53663368D01*
X29521632Y-53456525D01*
X29347240Y-53340000D01*
X29521632Y-53223475D01*
X29728475Y-53016632D01*
X29890990Y-52773411D01*
X30002932Y-52503158D01*
X30060000Y-52216260D01*
X30060000Y-51923740D01*
X30002932Y-51636842D01*
X29890990Y-51366589D01*
X29728475Y-51123368D01*
X29521632Y-50916525D01*
X29347240Y-50800000D01*
X29521632Y-50683475D01*
X29728475Y-50476632D01*
X29890990Y-50233411D01*
X30002932Y-49963158D01*
X30060000Y-49676260D01*
X30060000Y-49383740D01*
X30002932Y-49096842D01*
X29890990Y-48826589D01*
X29728475Y-48583368D01*
X29521632Y-48376525D01*
X29347240Y-48260000D01*
X29521632Y-48143475D01*
X29728475Y-47936632D01*
X29890990Y-47693411D01*
X30002932Y-47423158D01*
X30060000Y-47136260D01*
X30060000Y-46843740D01*
X30002932Y-46556842D01*
X29890990Y-46286589D01*
X29728475Y-46043368D01*
X29521632Y-45836525D01*
X29347240Y-45720000D01*
X29521632Y-45603475D01*
X29728475Y-45396632D01*
X29890990Y-45153411D01*
X30002932Y-44883158D01*
X30060000Y-44596260D01*
X30060000Y-44303740D01*
X30002932Y-44016842D01*
X29890990Y-43746589D01*
X29728475Y-43503368D01*
X29521632Y-43296525D01*
X29347240Y-43180000D01*
X29521632Y-43063475D01*
X29728475Y-42856632D01*
X29890990Y-42613411D01*
X30002932Y-42343158D01*
X30060000Y-42056260D01*
X30060000Y-41763740D01*
X30002932Y-41476842D01*
X29890990Y-41206589D01*
X29728475Y-40963368D01*
X29521632Y-40756525D01*
X29347240Y-40640000D01*
X29521632Y-40523475D01*
X29728475Y-40316632D01*
X29890990Y-40073411D01*
X30002932Y-39803158D01*
X30060000Y-39516260D01*
X30060000Y-39223740D01*
X30002932Y-38936842D01*
X29890990Y-38666589D01*
X29728475Y-38423368D01*
X29521632Y-38216525D01*
X29347240Y-38100000D01*
X29521632Y-37983475D01*
X29728475Y-37776632D01*
X29890990Y-37533411D01*
X30002932Y-37263158D01*
X30060000Y-36976260D01*
X30060000Y-36683740D01*
X30002932Y-36396842D01*
X29890990Y-36126589D01*
X29728475Y-35883368D01*
X29521632Y-35676525D01*
X29347240Y-35560000D01*
X29521632Y-35443475D01*
X29728475Y-35236632D01*
X29890990Y-34993411D01*
X30002932Y-34723158D01*
X30060000Y-34436260D01*
X30060000Y-34143740D01*
X30002932Y-33856842D01*
X29890990Y-33586589D01*
X29728475Y-33343368D01*
X29521632Y-33136525D01*
X29347240Y-33020000D01*
X29521632Y-32903475D01*
X29728475Y-32696632D01*
X29890990Y-32453411D01*
X30002932Y-32183158D01*
X30060000Y-31896260D01*
X30060000Y-31603740D01*
X30002932Y-31316842D01*
X29890990Y-31046589D01*
X29728475Y-30803368D01*
X29521632Y-30596525D01*
X29347240Y-30480000D01*
X29521632Y-30363475D01*
X29728475Y-30156632D01*
X29890990Y-29913411D01*
X30002932Y-29643158D01*
X30060000Y-29356260D01*
X30060000Y-29063740D01*
X30002932Y-28776842D01*
X29890990Y-28506589D01*
X29728475Y-28263368D01*
X29521632Y-28056525D01*
X29347240Y-27940000D01*
X29521632Y-27823475D01*
X29728475Y-27616632D01*
X29890990Y-27373411D01*
X30002932Y-27103158D01*
X30060000Y-26816260D01*
X30060000Y-26523740D01*
X30002932Y-26236842D01*
X29890990Y-25966589D01*
X29728475Y-25723368D01*
X29521632Y-25516525D01*
X29347240Y-25400000D01*
X29521632Y-25283475D01*
X29728475Y-25076632D01*
X29890990Y-24833411D01*
X30002932Y-24563158D01*
X30060000Y-24276260D01*
X30060000Y-23983740D01*
X30002932Y-23696842D01*
X29890990Y-23426589D01*
X29728475Y-23183368D01*
X29596620Y-23051513D01*
X29669180Y-23029502D01*
X29779494Y-22970537D01*
X29876185Y-22891185D01*
X29955537Y-22794494D01*
X30014502Y-22684180D01*
X30050812Y-22564482D01*
X30063072Y-22440000D01*
X30063072Y-20740000D01*
X30050812Y-20615518D01*
X30014502Y-20495820D01*
X29955537Y-20385506D01*
X29876185Y-20288815D01*
X29779494Y-20209463D01*
X29669180Y-20150498D01*
X29549482Y-20114188D01*
X29425000Y-20101928D01*
X28009976Y-20101928D01*
X28013953Y-20088754D01*
X28069555Y-19984181D01*
X28144407Y-19892404D01*
X28235664Y-19816909D01*
X28339844Y-19760581D01*
X28452976Y-19725560D01*
X28601022Y-19710000D01*
X51402721Y-19710000D01*
X51552869Y-19724722D01*
%TA.AperFunction,Conductor*%
D21*
G36*
X51552869Y-19724722D02*
G01*
X51666246Y-19758953D01*
X51770819Y-19814555D01*
X51862596Y-19889407D01*
X51938091Y-19980664D01*
X51994419Y-20084844D01*
X51999708Y-20101928D01*
X50585000Y-20101928D01*
X50460518Y-20114188D01*
X50340820Y-20150498D01*
X50230506Y-20209463D01*
X50133815Y-20288815D01*
X50054463Y-20385506D01*
X49995498Y-20495820D01*
X49959188Y-20615518D01*
X49946928Y-20740000D01*
X49946928Y-22440000D01*
X49959188Y-22564482D01*
X49995498Y-22684180D01*
X50054463Y-22794494D01*
X50133815Y-22891185D01*
X50230506Y-22970537D01*
X50340820Y-23029502D01*
X50413380Y-23051513D01*
X50281525Y-23183368D01*
X50119010Y-23426589D01*
X50007068Y-23696842D01*
X49950000Y-23983740D01*
X49950000Y-24276260D01*
X50007068Y-24563158D01*
X50119010Y-24833411D01*
X50281525Y-25076632D01*
X50488368Y-25283475D01*
X50662760Y-25400000D01*
X50488368Y-25516525D01*
X50281525Y-25723368D01*
X50119010Y-25966589D01*
X50007068Y-26236842D01*
X49950000Y-26523740D01*
X49950000Y-26816260D01*
X50007068Y-27103158D01*
X50119010Y-27373411D01*
X50281525Y-27616632D01*
X50488368Y-27823475D01*
X50662760Y-27940000D01*
X50488368Y-28056525D01*
X50281525Y-28263368D01*
X50119010Y-28506589D01*
X50007068Y-28776842D01*
X49950000Y-29063740D01*
X49950000Y-29356260D01*
X50007068Y-29643158D01*
X50119010Y-29913411D01*
X50281525Y-30156632D01*
X50488368Y-30363475D01*
X50662760Y-30480000D01*
X50488368Y-30596525D01*
X50281525Y-30803368D01*
X50119010Y-31046589D01*
X50007068Y-31316842D01*
X49950000Y-31603740D01*
X49950000Y-31896260D01*
X50007068Y-32183158D01*
X50119010Y-32453411D01*
X50281525Y-32696632D01*
X50488368Y-32903475D01*
X50662760Y-33020000D01*
X50488368Y-33136525D01*
X50281525Y-33343368D01*
X50119010Y-33586589D01*
X50007068Y-33856842D01*
X49950000Y-34143740D01*
X49950000Y-34436260D01*
X50007068Y-34723158D01*
X50119010Y-34993411D01*
X50281525Y-35236632D01*
X50488368Y-35443475D01*
X50662760Y-35560000D01*
X50488368Y-35676525D01*
X50281525Y-35883368D01*
X50119010Y-36126589D01*
X50007068Y-36396842D01*
X49950000Y-36683740D01*
X49950000Y-36976260D01*
X50007068Y-37263158D01*
X50119010Y-37533411D01*
X50281525Y-37776632D01*
X50488368Y-37983475D01*
X50662760Y-38100000D01*
X50488368Y-38216525D01*
X50281525Y-38423368D01*
X50119010Y-38666589D01*
X50007068Y-38936842D01*
X49950000Y-39223740D01*
X49950000Y-39516260D01*
X50007068Y-39803158D01*
X50119010Y-40073411D01*
X50281525Y-40316632D01*
X50488368Y-40523475D01*
X50662760Y-40640000D01*
X50488368Y-40756525D01*
X50281525Y-40963368D01*
X50119010Y-41206589D01*
X50007068Y-41476842D01*
X49950000Y-41763740D01*
X49950000Y-41890199D01*
X48438011Y-40378210D01*
X48438011Y-38825333D01*
X48441687Y-38788010D01*
X48438011Y-38750687D01*
X48438011Y-38750678D01*
X48427014Y-38639025D01*
X48383557Y-38495764D01*
X48312985Y-38363735D01*
X48299822Y-38347696D01*
X48241810Y-38277007D01*
X48241806Y-38277003D01*
X48218012Y-38248010D01*
X48189019Y-38224216D01*
X48025000Y-38060198D01*
X48025000Y-37998061D01*
X47985226Y-37798102D01*
X47907205Y-37609744D01*
X47793937Y-37440226D01*
X47649774Y-37296063D01*
X47480256Y-37182795D01*
X47291898Y-37104774D01*
X47091939Y-37065000D01*
X46888061Y-37065000D01*
X46715001Y-37099423D01*
X46715001Y-24209800D01*
X47029802Y-23895000D01*
X47091939Y-23895000D01*
X47291898Y-23855226D01*
X47480256Y-23777205D01*
X47649774Y-23663937D01*
X47793937Y-23519774D01*
X47907205Y-23350256D01*
X47985226Y-23161898D01*
X48025000Y-22961939D01*
X48025000Y-22758061D01*
X47985226Y-22558102D01*
X47907205Y-22369744D01*
X47793937Y-22200226D01*
X47649774Y-22056063D01*
X47480256Y-21942795D01*
X47291898Y-21864774D01*
X47091939Y-21825000D01*
X46888061Y-21825000D01*
X46688102Y-21864774D01*
X46499744Y-21942795D01*
X46330226Y-22056063D01*
X46186063Y-22200226D01*
X46072795Y-22369744D01*
X45994774Y-22558102D01*
X45955000Y-22758061D01*
X45955000Y-22820198D01*
X45443999Y-23331200D01*
X45415001Y-23354998D01*
X45391203Y-23383996D01*
X45391202Y-23383997D01*
X45320027Y-23470723D01*
X45249455Y-23602753D01*
X45205999Y-23746014D01*
X45191325Y-23894999D01*
X45195002Y-23932332D01*
X45195001Y-44647679D01*
X45191325Y-44685001D01*
X45195001Y-44722323D01*
X45195001Y-44722333D01*
X45205998Y-44833986D01*
X45243982Y-44959205D01*
X45249455Y-44977247D01*
X45320027Y-45109277D01*
X45356247Y-45153411D01*
X45415000Y-45225002D01*
X45444003Y-45248805D01*
X45955000Y-45759802D01*
X45955000Y-45821939D01*
X45994774Y-46021898D01*
X46072795Y-46210256D01*
X46186063Y-46379774D01*
X46330226Y-46523937D01*
X46499744Y-46637205D01*
X46688102Y-46715226D01*
X46888061Y-46755000D01*
X47091939Y-46755000D01*
X47291898Y-46715226D01*
X47480256Y-46637205D01*
X47649774Y-46523937D01*
X47676557Y-46497154D01*
X49824739Y-48645337D01*
X49821325Y-48680001D01*
X49825001Y-48717323D01*
X49825001Y-48717333D01*
X49835998Y-48828986D01*
X49867121Y-48931585D01*
X49879455Y-48972247D01*
X49950027Y-49104277D01*
X49981218Y-49142283D01*
X49994749Y-49158771D01*
X49950000Y-49383740D01*
X49950000Y-49676260D01*
X50007068Y-49963158D01*
X50119010Y-50233411D01*
X50281525Y-50476632D01*
X50488368Y-50683475D01*
X50662760Y-50800000D01*
X50488368Y-50916525D01*
X50281525Y-51123368D01*
X50119010Y-51366589D01*
X50007068Y-51636842D01*
X49950000Y-51923740D01*
X49950000Y-52216260D01*
X50007068Y-52503158D01*
X50119010Y-52773411D01*
X50281525Y-53016632D01*
X50488368Y-53223475D01*
X50662760Y-53340000D01*
X50488368Y-53456525D01*
X50281525Y-53663368D01*
X50119010Y-53906589D01*
X50007068Y-54176842D01*
X49950000Y-54463740D01*
X49950000Y-54756260D01*
X50007068Y-55043158D01*
X50119010Y-55313411D01*
X50281525Y-55556632D01*
X50488368Y-55763475D01*
X50662760Y-55880000D01*
X50488368Y-55996525D01*
X50281525Y-56203368D01*
X50119010Y-56446589D01*
X50007068Y-56716842D01*
X49950000Y-57003740D01*
X49950000Y-57296260D01*
X50007068Y-57583158D01*
X50119010Y-57853411D01*
X50281525Y-58096632D01*
X50488368Y-58303475D01*
X50662760Y-58420000D01*
X50488368Y-58536525D01*
X50281525Y-58743368D01*
X50119010Y-58986589D01*
X50007068Y-59256842D01*
X49950000Y-59543740D01*
X49950000Y-59836260D01*
X50007068Y-60123158D01*
X50119010Y-60393411D01*
X50281525Y-60636632D01*
X50488368Y-60843475D01*
X50662760Y-60960000D01*
X50488368Y-61076525D01*
X50281525Y-61283368D01*
X50119010Y-61526589D01*
X50007068Y-61796842D01*
X49950000Y-62083740D01*
X49950000Y-62376260D01*
X50007068Y-62663158D01*
X50119010Y-62933411D01*
X50281525Y-63176632D01*
X50488368Y-63383475D01*
X50670534Y-63505195D01*
X50553645Y-63574822D01*
X50337412Y-63769731D01*
X50163359Y-64003080D01*
X50038175Y-64265901D01*
X49993524Y-64413110D01*
X50114845Y-64643000D01*
X51308000Y-64643000D01*
X51308000Y-64623000D01*
X51562000Y-64623000D01*
X51562000Y-64643000D01*
X51582000Y-64643000D01*
X51582000Y-64897000D01*
X51562000Y-64897000D01*
X51562000Y-66090814D01*
X51791891Y-66211481D01*
X52033422Y-66125803D01*
X52030278Y-66157869D01*
X51996047Y-66271246D01*
X51940446Y-66375817D01*
X51865594Y-66467595D01*
X51774335Y-66543091D01*
X51670160Y-66599419D01*
X51557024Y-66634440D01*
X51408979Y-66650000D01*
X45169323Y-66650000D01*
X45227009Y-66579710D01*
X45327759Y-66391220D01*
X45389800Y-66186696D01*
X45405500Y-66027293D01*
X45405500Y-65126890D01*
X49993524Y-65126890D01*
X50038175Y-65274099D01*
X50163359Y-65536920D01*
X50337412Y-65770269D01*
X50553645Y-65965178D01*
X50803748Y-66114157D01*
X51078109Y-66211481D01*
X51308000Y-66090814D01*
X51308000Y-64897000D01*
X50114845Y-64897000D01*
X49993524Y-65126890D01*
X45405500Y-65126890D01*
X45405500Y-65120706D01*
X45389800Y-64961303D01*
X45327759Y-64756780D01*
X45322261Y-64746494D01*
X45367920Y-64709022D01*
X45391723Y-64680018D01*
X46993004Y-63078738D01*
X47022001Y-63054941D01*
X47116974Y-62939216D01*
X47187546Y-62807187D01*
X47231003Y-62663926D01*
X47242000Y-62552273D01*
X47242000Y-62552265D01*
X47245676Y-62514940D01*
X47242000Y-62477615D01*
X47242000Y-49217020D01*
X47245676Y-49179697D01*
X47242000Y-49142374D01*
X47242000Y-49142364D01*
X47231003Y-49030711D01*
X47187546Y-48887450D01*
X47116974Y-48755421D01*
X47022001Y-48639696D01*
X46993002Y-48615897D01*
X46626164Y-48249060D01*
X46615851Y-48215062D01*
X46545279Y-48083033D01*
X46474104Y-47996306D01*
X46450306Y-47967308D01*
X46421308Y-47943510D01*
X43686000Y-45208203D01*
X43686000Y-37787711D01*
X43729937Y-37743774D01*
X43843205Y-37574256D01*
X43921226Y-37385898D01*
X43961000Y-37185939D01*
X43961000Y-36982061D01*
X43921226Y-36782102D01*
X43843205Y-36593744D01*
X43729937Y-36424226D01*
X43585774Y-36280063D01*
X43416256Y-36166795D01*
X43227898Y-36088774D01*
X43027939Y-36049000D01*
X42824061Y-36049000D01*
X42624102Y-36088774D01*
X42435744Y-36166795D01*
X42266226Y-36280063D01*
X42122063Y-36424226D01*
X42008795Y-36593744D01*
X41930774Y-36782102D01*
X41891000Y-36982061D01*
X41891000Y-37185939D01*
X41930774Y-37385898D01*
X42008795Y-37574256D01*
X42122063Y-37743774D01*
X42166001Y-37787712D01*
X42166000Y-44425307D01*
X38138640Y-40397947D01*
X38138640Y-40048311D01*
X38182577Y-40004374D01*
X38295845Y-39834856D01*
X38373866Y-39646498D01*
X38413640Y-39446539D01*
X38413640Y-39242661D01*
X38373866Y-39042702D01*
X38295845Y-38854344D01*
X38182577Y-38684826D01*
X38038414Y-38540663D01*
X37868896Y-38427395D01*
X37680538Y-38349374D01*
X37480579Y-38309600D01*
X37276701Y-38309600D01*
X37076742Y-38349374D01*
X36888384Y-38427395D01*
X36718866Y-38540663D01*
X36574703Y-38684826D01*
X36461435Y-38854344D01*
X36383414Y-39042702D01*
X36343640Y-39242661D01*
X36343640Y-39446539D01*
X36383414Y-39646498D01*
X36461435Y-39834856D01*
X36574703Y-40004374D01*
X36618640Y-40048311D01*
X36618640Y-40675425D01*
X36614964Y-40712748D01*
X36618640Y-40750070D01*
X36618640Y-40750080D01*
X36629637Y-40861733D01*
X36660467Y-40963368D01*
X36673094Y-41004994D01*
X36743666Y-41137024D01*
X36783511Y-41185574D01*
X36838639Y-41252749D01*
X36867643Y-41276552D01*
X45214001Y-49622911D01*
X45214001Y-52335645D01*
X45059939Y-52305000D01*
X44856061Y-52305000D01*
X44656102Y-52344774D01*
X44467744Y-52422795D01*
X44298226Y-52536063D01*
X44254289Y-52580000D01*
X43852322Y-52580000D01*
X43814999Y-52576324D01*
X43777676Y-52580000D01*
X43777667Y-52580000D01*
X43666014Y-52590997D01*
X43522753Y-52634454D01*
X43390724Y-52705026D01*
X43274999Y-52799999D01*
X43251201Y-52828997D01*
X42505199Y-53575000D01*
X42443061Y-53575000D01*
X42243102Y-53614774D01*
X42054744Y-53692795D01*
X41934414Y-53773196D01*
X41820000Y-53761928D01*
X41371375Y-53761928D01*
X34789999Y-47180553D01*
X34789999Y-26960000D01*
X35966928Y-26960000D01*
X35966928Y-28060000D01*
X35979188Y-28184482D01*
X36015498Y-28304180D01*
X36045335Y-28360000D01*
X36015498Y-28415820D01*
X35979188Y-28535518D01*
X35966928Y-28660000D01*
X35966928Y-29760000D01*
X35979188Y-29884482D01*
X36015498Y-30004180D01*
X36045335Y-30060000D01*
X36015498Y-30115820D01*
X35979188Y-30235518D01*
X35966928Y-30360000D01*
X35966928Y-31460000D01*
X35979188Y-31584482D01*
X36015498Y-31704180D01*
X36074463Y-31814494D01*
X36153815Y-31911185D01*
X36250506Y-31990537D01*
X36360820Y-32049502D01*
X36480518Y-32085812D01*
X36605000Y-32098072D01*
X37737390Y-32098072D01*
X37861754Y-32164547D01*
X38005015Y-32208004D01*
X38116668Y-32219001D01*
X38116676Y-32219001D01*
X38154001Y-32222677D01*
X38191326Y-32219001D01*
X40131677Y-32219001D01*
X40168999Y-32222677D01*
X40206321Y-32219001D01*
X40206332Y-32219001D01*
X40317985Y-32208004D01*
X40461246Y-32164547D01*
X40593275Y-32093975D01*
X40679758Y-32023000D01*
X40741939Y-32023000D01*
X40941898Y-31983226D01*
X41008156Y-31955781D01*
X41050506Y-31990537D01*
X41160820Y-32049502D01*
X41280518Y-32085812D01*
X41405000Y-32098072D01*
X42119250Y-32095000D01*
X42278000Y-31936250D01*
X42278000Y-31037000D01*
X42532000Y-31037000D01*
X42532000Y-31936250D01*
X42690750Y-32095000D01*
X43405000Y-32098072D01*
X43529482Y-32085812D01*
X43649180Y-32049502D01*
X43759494Y-31990537D01*
X43856185Y-31911185D01*
X43935537Y-31814494D01*
X43994502Y-31704180D01*
X44030812Y-31584482D01*
X44043072Y-31460000D01*
X44040000Y-31195750D01*
X43881250Y-31037000D01*
X42532000Y-31037000D01*
X42278000Y-31037000D01*
X42258000Y-31037000D01*
X42258000Y-30783000D01*
X42278000Y-30783000D01*
X42278000Y-30763000D01*
X42532000Y-30763000D01*
X42532000Y-30783000D01*
X43881250Y-30783000D01*
X44040000Y-30624250D01*
X44043072Y-30360000D01*
X44030812Y-30235518D01*
X43994502Y-30115820D01*
X43964665Y-30060000D01*
X43994502Y-30004180D01*
X44030812Y-29884482D01*
X44043072Y-29760000D01*
X44043072Y-28660000D01*
X44030812Y-28535518D01*
X43994502Y-28415820D01*
X43964665Y-28360000D01*
X43994502Y-28304180D01*
X44030812Y-28184482D01*
X44043072Y-28060000D01*
X44043072Y-26960000D01*
X44030812Y-26835518D01*
X43994502Y-26715820D01*
X43935537Y-26605506D01*
X43856185Y-26508815D01*
X43759494Y-26429463D01*
X43649180Y-26370498D01*
X43529482Y-26334188D01*
X43405000Y-26321928D01*
X41405000Y-26321928D01*
X41280518Y-26334188D01*
X41160820Y-26370498D01*
X41050506Y-26429463D01*
X40953815Y-26508815D01*
X40874463Y-26605506D01*
X40815498Y-26715820D01*
X40779188Y-26835518D01*
X40766928Y-26960000D01*
X40766928Y-28060000D01*
X40779188Y-28184482D01*
X40815498Y-28304180D01*
X40845335Y-28360000D01*
X40815498Y-28415820D01*
X40779188Y-28535518D01*
X40766928Y-28660000D01*
X40766928Y-29760000D01*
X40779188Y-29884482D01*
X40803699Y-29965285D01*
X40741939Y-29953000D01*
X40538061Y-29953000D01*
X40338102Y-29992774D01*
X40149744Y-30070795D01*
X40050815Y-30136897D01*
X40008939Y-30074226D01*
X39965002Y-30030289D01*
X39965002Y-28712323D01*
X39968678Y-28675000D01*
X39965002Y-28637677D01*
X39965002Y-28637667D01*
X39954005Y-28526014D01*
X39910548Y-28382753D01*
X39839976Y-28250724D01*
X39745003Y-28134999D01*
X39716005Y-28111201D01*
X39243072Y-27638268D01*
X39243072Y-26960000D01*
X39230812Y-26835518D01*
X39194502Y-26715820D01*
X39135537Y-26605506D01*
X39056185Y-26508815D01*
X38959494Y-26429463D01*
X38849180Y-26370498D01*
X38729482Y-26334188D01*
X38605000Y-26321928D01*
X36605000Y-26321928D01*
X36480518Y-26334188D01*
X36360820Y-26370498D01*
X36250506Y-26429463D01*
X36153815Y-26508815D01*
X36074463Y-26605506D01*
X36015498Y-26715820D01*
X35979188Y-26835518D01*
X35966928Y-26960000D01*
X34789999Y-26960000D01*
X34789999Y-23931104D01*
X34793555Y-23894999D01*
X34779364Y-23750914D01*
X34737336Y-23612365D01*
X34669086Y-23484679D01*
X34600252Y-23400805D01*
X34577237Y-23372761D01*
X34549192Y-23349745D01*
X34055000Y-22855554D01*
X34055000Y-22758061D01*
X34015226Y-22558102D01*
X33937205Y-22369744D01*
X33823937Y-22200226D01*
X33679774Y-22056063D01*
X33510256Y-21942795D01*
X33321898Y-21864774D01*
X33121939Y-21825000D01*
X32918061Y-21825000D01*
X32718102Y-21864774D01*
X32529744Y-21942795D01*
X32360226Y-22056063D01*
X32216063Y-22200226D01*
X32102795Y-22369744D01*
X32024774Y-22558102D01*
X31985000Y-22758061D01*
X31985000Y-22961939D01*
X32024774Y-23161898D01*
X32102795Y-23350256D01*
X32216063Y-23519774D01*
X32360226Y-23663937D01*
X32529744Y-23777205D01*
X32718102Y-23855226D01*
X32918061Y-23895000D01*
X33015554Y-23895000D01*
X33320000Y-24199447D01*
X33319999Y-44724396D01*
X33121939Y-44685000D01*
X32918061Y-44685000D01*
X32718102Y-44724774D01*
X32529744Y-44802795D01*
X32360226Y-44916063D01*
X32216063Y-45060226D01*
X32102795Y-45229744D01*
X32024774Y-45418102D01*
X31985000Y-45618061D01*
X31985000Y-45821939D01*
X32024774Y-46021898D01*
X32102795Y-46210256D01*
X32216063Y-46379774D01*
X32285001Y-46448712D01*
X32285000Y-52611289D01*
X32216063Y-52680226D01*
X32102795Y-52849744D01*
X32024774Y-53038102D01*
X31985000Y-53238061D01*
X31985000Y-53441939D01*
X32024774Y-53641898D01*
X32102795Y-53830256D01*
X32216063Y-53999774D01*
X32360226Y-54143937D01*
X32529744Y-54257205D01*
X32718102Y-54335226D01*
X32918061Y-54375000D01*
X33121939Y-54375000D01*
X33321898Y-54335226D01*
X33510256Y-54257205D01*
X33679774Y-54143937D01*
X33723711Y-54100000D01*
X35480335Y-54100000D01*
X35450498Y-54155820D01*
X35414188Y-54275518D01*
X35401928Y-54400000D01*
X35401928Y-55400000D01*
X35414188Y-55524482D01*
X35450498Y-55644180D01*
X35509463Y-55754494D01*
X35588815Y-55851185D01*
X35685506Y-55930537D01*
X35795820Y-55989502D01*
X35834118Y-56001120D01*
X35867763Y-56042116D01*
X35895808Y-56065132D01*
X36360390Y-56529714D01*
X35895808Y-56994296D01*
X35867763Y-57017312D01*
X35775914Y-57129230D01*
X35740926Y-57194688D01*
X35707664Y-57256917D01*
X35665635Y-57395465D01*
X35651444Y-57539550D01*
X35655001Y-57575665D01*
X35655001Y-58394498D01*
X35588815Y-58448815D01*
X35509463Y-58545506D01*
X35450498Y-58655820D01*
X35414188Y-58775518D01*
X35401928Y-58900000D01*
X35401928Y-59778999D01*
X30303334Y-59778999D01*
X30266001Y-59775322D01*
X30228668Y-59778999D01*
X30117015Y-59789996D01*
X30060000Y-59807291D01*
X30060000Y-59543740D01*
X30002932Y-59256842D01*
X29890990Y-58986589D01*
X29728475Y-58743368D01*
X29521632Y-58536525D01*
X29347240Y-58420000D01*
X29521632Y-58303475D01*
X29728475Y-58096632D01*
X29890990Y-57853411D01*
X30002932Y-57583158D01*
X30060000Y-57296260D01*
X30060000Y-57003740D01*
X30002932Y-56716842D01*
X29890990Y-56446589D01*
X29728475Y-56203368D01*
X29521632Y-55996525D01*
X29347240Y-55880000D01*
X29521632Y-55763475D01*
X29728475Y-55556632D01*
X29890990Y-55313411D01*
X30002932Y-55043158D01*
X30060000Y-54756260D01*
X30060000Y-54463740D01*
X30002932Y-54176842D01*
X29890990Y-53906589D01*
X29728475Y-53663368D01*
X29521632Y-53456525D01*
X29347240Y-53340000D01*
X29521632Y-53223475D01*
X29728475Y-53016632D01*
X29890990Y-52773411D01*
X30002932Y-52503158D01*
X30060000Y-52216260D01*
X30060000Y-51923740D01*
X30002932Y-51636842D01*
X29890990Y-51366589D01*
X29728475Y-51123368D01*
X29521632Y-50916525D01*
X29347240Y-50800000D01*
X29521632Y-50683475D01*
X29728475Y-50476632D01*
X29890990Y-50233411D01*
X30002932Y-49963158D01*
X30060000Y-49676260D01*
X30060000Y-49383740D01*
X30002932Y-49096842D01*
X29890990Y-48826589D01*
X29728475Y-48583368D01*
X29521632Y-48376525D01*
X29347240Y-48260000D01*
X29521632Y-48143475D01*
X29728475Y-47936632D01*
X29890990Y-47693411D01*
X30002932Y-47423158D01*
X30060000Y-47136260D01*
X30060000Y-46843740D01*
X30002932Y-46556842D01*
X29890990Y-46286589D01*
X29728475Y-46043368D01*
X29521632Y-45836525D01*
X29347240Y-45720000D01*
X29521632Y-45603475D01*
X29728475Y-45396632D01*
X29890990Y-45153411D01*
X30002932Y-44883158D01*
X30060000Y-44596260D01*
X30060000Y-44303740D01*
X30002932Y-44016842D01*
X29890990Y-43746589D01*
X29728475Y-43503368D01*
X29521632Y-43296525D01*
X29347240Y-43180000D01*
X29521632Y-43063475D01*
X29728475Y-42856632D01*
X29890990Y-42613411D01*
X30002932Y-42343158D01*
X30060000Y-42056260D01*
X30060000Y-41763740D01*
X30002932Y-41476842D01*
X29890990Y-41206589D01*
X29728475Y-40963368D01*
X29521632Y-40756525D01*
X29347240Y-40640000D01*
X29521632Y-40523475D01*
X29728475Y-40316632D01*
X29890990Y-40073411D01*
X30002932Y-39803158D01*
X30060000Y-39516260D01*
X30060000Y-39223740D01*
X30002932Y-38936842D01*
X29890990Y-38666589D01*
X29728475Y-38423368D01*
X29521632Y-38216525D01*
X29347240Y-38100000D01*
X29521632Y-37983475D01*
X29728475Y-37776632D01*
X29890990Y-37533411D01*
X30002932Y-37263158D01*
X30060000Y-36976260D01*
X30060000Y-36683740D01*
X30002932Y-36396842D01*
X29890990Y-36126589D01*
X29728475Y-35883368D01*
X29521632Y-35676525D01*
X29347240Y-35560000D01*
X29521632Y-35443475D01*
X29728475Y-35236632D01*
X29890990Y-34993411D01*
X30002932Y-34723158D01*
X30060000Y-34436260D01*
X30060000Y-34143740D01*
X30002932Y-33856842D01*
X29890990Y-33586589D01*
X29728475Y-33343368D01*
X29521632Y-33136525D01*
X29347240Y-33020000D01*
X29521632Y-32903475D01*
X29728475Y-32696632D01*
X29890990Y-32453411D01*
X30002932Y-32183158D01*
X30060000Y-31896260D01*
X30060000Y-31603740D01*
X30002932Y-31316842D01*
X29890990Y-31046589D01*
X29728475Y-30803368D01*
X29521632Y-30596525D01*
X29347240Y-30480000D01*
X29521632Y-30363475D01*
X29728475Y-30156632D01*
X29890990Y-29913411D01*
X30002932Y-29643158D01*
X30060000Y-29356260D01*
X30060000Y-29063740D01*
X30002932Y-28776842D01*
X29890990Y-28506589D01*
X29728475Y-28263368D01*
X29521632Y-28056525D01*
X29347240Y-27940000D01*
X29521632Y-27823475D01*
X29728475Y-27616632D01*
X29890990Y-27373411D01*
X30002932Y-27103158D01*
X30060000Y-26816260D01*
X30060000Y-26523740D01*
X30002932Y-26236842D01*
X29890990Y-25966589D01*
X29728475Y-25723368D01*
X29521632Y-25516525D01*
X29347240Y-25400000D01*
X29521632Y-25283475D01*
X29728475Y-25076632D01*
X29890990Y-24833411D01*
X30002932Y-24563158D01*
X30060000Y-24276260D01*
X30060000Y-23983740D01*
X30002932Y-23696842D01*
X29890990Y-23426589D01*
X29728475Y-23183368D01*
X29596620Y-23051513D01*
X29669180Y-23029502D01*
X29779494Y-22970537D01*
X29876185Y-22891185D01*
X29955537Y-22794494D01*
X30014502Y-22684180D01*
X30050812Y-22564482D01*
X30063072Y-22440000D01*
X30063072Y-20740000D01*
X30050812Y-20615518D01*
X30014502Y-20495820D01*
X29955537Y-20385506D01*
X29876185Y-20288815D01*
X29779494Y-20209463D01*
X29669180Y-20150498D01*
X29549482Y-20114188D01*
X29425000Y-20101928D01*
X28009976Y-20101928D01*
X28013953Y-20088754D01*
X28069555Y-19984181D01*
X28144407Y-19892404D01*
X28235664Y-19816909D01*
X28339844Y-19760581D01*
X28452976Y-19725560D01*
X28601022Y-19710000D01*
X51402721Y-19710000D01*
X51552869Y-19724722D01*
G37*
%TD.AperFunction*%
%TD*%
M02*
