%TF.GenerationSoftware,KiCad,Pcbnew,(5.1.8-0-10_14)*%
%TF.CreationDate,2021-07-01T23:52:50-05:00*%
%TF.ProjectId,crump-s2,6372756d-702d-4733-922e-6b696361645f,rev?*%
%TF.SameCoordinates,Original*%
%TF.FileFunction,Soldermask,Bot*%
%TF.FilePolarity,Negative*%
%FSLAX46Y46*%
G04 Gerber Fmt 4.6, Leading zero omitted, Abs format (unit mm)*
G04 Created by KiCad (PCBNEW (5.1.8-0-10_14)) date 2021-07-01 23:52:50*
%MOMM*%
%LPD*%
G01*
G04 APERTURE LIST*
%ADD10R,1.500000X2.000000*%
%ADD11R,3.800000X2.000000*%
%ADD12O,0.900000X1.700000*%
%ADD13O,0.900000X2.400000*%
%ADD14C,0.700000*%
%ADD15R,4.100000X4.100000*%
%ADD16R,1.500000X0.900000*%
%ADD17R,0.900000X1.500000*%
%ADD18O,1.700000X1.700000*%
%ADD19R,1.700000X1.700000*%
G04 APERTURE END LIST*
%TO.C,R2*%
G36*
G01*
X41459999Y-56550000D02*
X42360001Y-56550000D01*
G75*
G02*
X42610000Y-56799999I0J-249999D01*
G01*
X42610000Y-57500001D01*
G75*
G02*
X42360001Y-57750000I-249999J0D01*
G01*
X41459999Y-57750000D01*
G75*
G02*
X41210000Y-57500001I0J249999D01*
G01*
X41210000Y-56799999D01*
G75*
G02*
X41459999Y-56550000I249999J0D01*
G01*
G37*
G36*
G01*
X41459999Y-58550000D02*
X42360001Y-58550000D01*
G75*
G02*
X42610000Y-58799999I0J-249999D01*
G01*
X42610000Y-59500001D01*
G75*
G02*
X42360001Y-59750000I-249999J0D01*
G01*
X41459999Y-59750000D01*
G75*
G02*
X41210000Y-59500001I0J249999D01*
G01*
X41210000Y-58799999D01*
G75*
G02*
X41459999Y-58550000I249999J0D01*
G01*
G37*
%TD*%
D10*
%TO.C,U2*%
X42545000Y-54610000D03*
X37945000Y-54610000D03*
X40245000Y-54610000D03*
D11*
X40245000Y-48310000D03*
%TD*%
%TO.C,C2*%
G36*
G01*
X44809999Y-52690000D02*
X45360001Y-52690000D01*
G75*
G02*
X45610000Y-52939999I0J-249999D01*
G01*
X45610000Y-53740001D01*
G75*
G02*
X45360001Y-53990000I-249999J0D01*
G01*
X44809999Y-53990000D01*
G75*
G02*
X44560000Y-53740001I0J249999D01*
G01*
X44560000Y-52939999D01*
G75*
G02*
X44809999Y-52690000I249999J0D01*
G01*
G37*
G36*
G01*
X44809999Y-50740000D02*
X45360001Y-50740000D01*
G75*
G02*
X45610000Y-50989999I0J-249999D01*
G01*
X45610000Y-51790001D01*
G75*
G02*
X45360001Y-52040000I-249999J0D01*
G01*
X44809999Y-52040000D01*
G75*
G02*
X44560000Y-51790001I0J249999D01*
G01*
X44560000Y-50989999D01*
G75*
G02*
X44809999Y-50740000I249999J0D01*
G01*
G37*
%TD*%
%TO.C,C1*%
G36*
G01*
X35284999Y-52690000D02*
X35835001Y-52690000D01*
G75*
G02*
X36085000Y-52939999I0J-249999D01*
G01*
X36085000Y-53740001D01*
G75*
G02*
X35835001Y-53990000I-249999J0D01*
G01*
X35284999Y-53990000D01*
G75*
G02*
X35035000Y-53740001I0J249999D01*
G01*
X35035000Y-52939999D01*
G75*
G02*
X35284999Y-52690000I249999J0D01*
G01*
G37*
G36*
G01*
X35284999Y-50740000D02*
X35835001Y-50740000D01*
G75*
G02*
X36085000Y-50989999I0J-249999D01*
G01*
X36085000Y-51790001D01*
G75*
G02*
X35835001Y-52040000I-249999J0D01*
G01*
X35284999Y-52040000D01*
G75*
G02*
X35035000Y-51790001I0J249999D01*
G01*
X35035000Y-50989999D01*
G75*
G02*
X35284999Y-50740000I249999J0D01*
G01*
G37*
%TD*%
%TO.C,D1*%
G36*
G01*
X35322500Y-58375000D02*
X35797500Y-58375000D01*
G75*
G02*
X36035000Y-58612500I0J-237500D01*
G01*
X36035000Y-59187500D01*
G75*
G02*
X35797500Y-59425000I-237500J0D01*
G01*
X35322500Y-59425000D01*
G75*
G02*
X35085000Y-59187500I0J237500D01*
G01*
X35085000Y-58612500D01*
G75*
G02*
X35322500Y-58375000I237500J0D01*
G01*
G37*
G36*
G01*
X35322500Y-56625000D02*
X35797500Y-56625000D01*
G75*
G02*
X36035000Y-56862500I0J-237500D01*
G01*
X36035000Y-57437500D01*
G75*
G02*
X35797500Y-57675000I-237500J0D01*
G01*
X35322500Y-57675000D01*
G75*
G02*
X35085000Y-57437500I0J237500D01*
G01*
X35085000Y-56862500D01*
G75*
G02*
X35322500Y-56625000I237500J0D01*
G01*
G37*
%TD*%
D12*
%TO.C,J1*%
X44320500Y-65574000D03*
X35670500Y-65574000D03*
D13*
X44320500Y-62194000D03*
X35670500Y-62194000D03*
D14*
X40420500Y-62564000D03*
X42970500Y-62564000D03*
X42120500Y-62564000D03*
X41270500Y-62564000D03*
X37020500Y-62564000D03*
X38720500Y-62564000D03*
X39570500Y-62564000D03*
X37870500Y-62564000D03*
X42970500Y-61214000D03*
X42120500Y-61214000D03*
X41270500Y-61214000D03*
X40420500Y-61214000D03*
X39570500Y-61214000D03*
X38720500Y-61214000D03*
X37870500Y-61214000D03*
X37020500Y-61214000D03*
%TD*%
%TO.C,R1*%
G36*
G01*
X44634999Y-56550000D02*
X45535001Y-56550000D01*
G75*
G02*
X45785000Y-56799999I0J-249999D01*
G01*
X45785000Y-57500001D01*
G75*
G02*
X45535001Y-57750000I-249999J0D01*
G01*
X44634999Y-57750000D01*
G75*
G02*
X44385000Y-57500001I0J249999D01*
G01*
X44385000Y-56799999D01*
G75*
G02*
X44634999Y-56550000I249999J0D01*
G01*
G37*
G36*
G01*
X44634999Y-58550000D02*
X45535001Y-58550000D01*
G75*
G02*
X45785000Y-58799999I0J-249999D01*
G01*
X45785000Y-59500001D01*
G75*
G02*
X45535001Y-59750000I-249999J0D01*
G01*
X44634999Y-59750000D01*
G75*
G02*
X44385000Y-59500001I0J249999D01*
G01*
X44385000Y-58799999D01*
G75*
G02*
X44634999Y-58550000I249999J0D01*
G01*
G37*
%TD*%
%TO.C,R3*%
G36*
G01*
X39185001Y-57750000D02*
X38284999Y-57750000D01*
G75*
G02*
X38035000Y-57500001I0J249999D01*
G01*
X38035000Y-56799999D01*
G75*
G02*
X38284999Y-56550000I249999J0D01*
G01*
X39185001Y-56550000D01*
G75*
G02*
X39435000Y-56799999I0J-249999D01*
G01*
X39435000Y-57500001D01*
G75*
G02*
X39185001Y-57750000I-249999J0D01*
G01*
G37*
G36*
G01*
X39185001Y-59750000D02*
X38284999Y-59750000D01*
G75*
G02*
X38035000Y-59500001I0J249999D01*
G01*
X38035000Y-58799999D01*
G75*
G02*
X38284999Y-58550000I249999J0D01*
G01*
X39185001Y-58550000D01*
G75*
G02*
X39435000Y-58799999I0J-249999D01*
G01*
X39435000Y-59500001D01*
G75*
G02*
X39185001Y-59750000I-249999J0D01*
G01*
G37*
%TD*%
D15*
%TO.C,U1*%
X41195000Y-28015000D03*
D16*
X31380000Y-20075000D03*
X31380000Y-21475000D03*
X31380000Y-22975000D03*
X31380000Y-24575000D03*
D17*
X34755000Y-43225000D03*
X33255000Y-43225000D03*
D16*
X31380000Y-42575000D03*
X31380000Y-41075000D03*
X31380000Y-39575000D03*
X31380000Y-38075000D03*
X31380000Y-36575000D03*
X31380000Y-35075000D03*
X31380000Y-33575000D03*
X31380000Y-32075000D03*
X31380000Y-30575000D03*
X31380000Y-29075000D03*
X31380000Y-27575000D03*
X31380000Y-26075000D03*
X48630000Y-39475000D03*
X48630000Y-37975000D03*
X48630000Y-36475000D03*
X48630000Y-34975000D03*
X48630000Y-33475000D03*
X48630000Y-31975000D03*
X48630000Y-30475000D03*
X48630000Y-28975000D03*
X48630000Y-27475000D03*
X48630000Y-25975000D03*
X48630000Y-24475000D03*
X48630000Y-22975000D03*
X48630000Y-21475000D03*
D17*
X36255000Y-43225000D03*
X37755000Y-43225000D03*
X39255000Y-43225000D03*
X40755000Y-43225000D03*
X42255000Y-43225000D03*
X43755000Y-43225000D03*
X45255000Y-43225000D03*
X46755000Y-43225000D03*
D16*
X48630000Y-42475000D03*
X48630000Y-40975000D03*
X48630000Y-19975000D03*
%TD*%
D18*
%TO.C,J2*%
X51435000Y-64770000D03*
X51435000Y-62230000D03*
X51435000Y-59690000D03*
X51435000Y-57150000D03*
X51435000Y-54610000D03*
X51435000Y-52070000D03*
X51435000Y-49530000D03*
X51435000Y-46990000D03*
X51435000Y-44450000D03*
X51435000Y-41910000D03*
X51435000Y-39370000D03*
X51435000Y-36830000D03*
X51435000Y-34290000D03*
X51435000Y-31750000D03*
X51435000Y-29210000D03*
X51435000Y-26670000D03*
X51435000Y-24130000D03*
D19*
X51435000Y-21590000D03*
%TD*%
%TO.C,J3*%
X28575000Y-21590000D03*
D18*
X28575000Y-24130000D03*
X28575000Y-26670000D03*
X28575000Y-29210000D03*
X28575000Y-31750000D03*
X28575000Y-34290000D03*
X28575000Y-36830000D03*
X28575000Y-39370000D03*
X28575000Y-41910000D03*
X28575000Y-44450000D03*
X28575000Y-46990000D03*
X28575000Y-49530000D03*
X28575000Y-52070000D03*
X28575000Y-54610000D03*
X28575000Y-57150000D03*
X28575000Y-59690000D03*
X28575000Y-62230000D03*
X28575000Y-64770000D03*
%TD*%
M02*
