%TF.GenerationSoftware,KiCad,Pcbnew,(5.1.8-0-10_14)*%
%TF.CreationDate,2021-07-01T23:52:50-05:00*%
%TF.ProjectId,crump-s2,6372756d-702d-4733-922e-6b696361645f,rev?*%
%TF.SameCoordinates,Original*%
%TF.FileFunction,Copper,L2,Bot*%
%TF.FilePolarity,Positive*%
%FSLAX46Y46*%
G04 Gerber Fmt 4.6, Leading zero omitted, Abs format (unit mm)*
G04 Created by KiCad (PCBNEW (5.1.8-0-10_14)) date 2021-07-01 23:52:50*
%MOMM*%
%LPD*%
G01*
G04 APERTURE LIST*
%TA.AperFunction,SMDPad,CuDef*%
%ADD10R,1.500000X2.000000*%
%TD*%
%TA.AperFunction,SMDPad,CuDef*%
%ADD11R,3.800000X2.000000*%
%TD*%
%TA.AperFunction,ComponentPad*%
%ADD12O,0.900000X1.700000*%
%TD*%
%TA.AperFunction,ComponentPad*%
%ADD13O,0.900000X2.400000*%
%TD*%
%TA.AperFunction,ComponentPad*%
%ADD14C,0.700000*%
%TD*%
%TA.AperFunction,SMDPad,CuDef*%
%ADD15R,4.100000X4.100000*%
%TD*%
%TA.AperFunction,SMDPad,CuDef*%
%ADD16R,1.500000X0.900000*%
%TD*%
%TA.AperFunction,SMDPad,CuDef*%
%ADD17R,0.900000X1.500000*%
%TD*%
%TA.AperFunction,ComponentPad*%
%ADD18O,1.700000X1.700000*%
%TD*%
%TA.AperFunction,ComponentPad*%
%ADD19R,1.700000X1.700000*%
%TD*%
%TA.AperFunction,ViaPad*%
%ADD20C,0.800000*%
%TD*%
%TA.AperFunction,Conductor*%
%ADD21C,0.250000*%
%TD*%
%TA.AperFunction,Conductor*%
%ADD22C,0.200000*%
%TD*%
%TA.AperFunction,Conductor*%
%ADD23C,0.254000*%
%TD*%
%TA.AperFunction,Conductor*%
%ADD24C,0.100000*%
%TD*%
G04 APERTURE END LIST*
%TO.P,R2,1*%
%TO.N,GND*%
%TA.AperFunction,SMDPad,CuDef*%
G36*
G01*
X41459999Y-56550000D02*
X42360001Y-56550000D01*
G75*
G02*
X42610000Y-56799999I0J-249999D01*
G01*
X42610000Y-57500001D01*
G75*
G02*
X42360001Y-57750000I-249999J0D01*
G01*
X41459999Y-57750000D01*
G75*
G02*
X41210000Y-57500001I0J249999D01*
G01*
X41210000Y-56799999D01*
G75*
G02*
X41459999Y-56550000I249999J0D01*
G01*
G37*
%TD.AperFunction*%
%TO.P,R2,2*%
%TO.N,Net-(J1-PadB5)*%
%TA.AperFunction,SMDPad,CuDef*%
G36*
G01*
X41459999Y-58550000D02*
X42360001Y-58550000D01*
G75*
G02*
X42610000Y-58799999I0J-249999D01*
G01*
X42610000Y-59500001D01*
G75*
G02*
X42360001Y-59750000I-249999J0D01*
G01*
X41459999Y-59750000D01*
G75*
G02*
X41210000Y-59500001I0J249999D01*
G01*
X41210000Y-58799999D01*
G75*
G02*
X41459999Y-58550000I249999J0D01*
G01*
G37*
%TD.AperFunction*%
%TD*%
D10*
%TO.P,U2,1*%
%TO.N,GND*%
X42545000Y-54610000D03*
%TO.P,U2,3*%
%TO.N,+5V*%
X37945000Y-54610000D03*
%TO.P,U2,2*%
%TO.N,+3V3*%
X40245000Y-54610000D03*
D11*
X40245000Y-48310000D03*
%TD*%
%TO.P,C2,2*%
%TO.N,GND*%
%TA.AperFunction,SMDPad,CuDef*%
G36*
G01*
X44809999Y-52690000D02*
X45360001Y-52690000D01*
G75*
G02*
X45610000Y-52939999I0J-249999D01*
G01*
X45610000Y-53740001D01*
G75*
G02*
X45360001Y-53990000I-249999J0D01*
G01*
X44809999Y-53990000D01*
G75*
G02*
X44560000Y-53740001I0J249999D01*
G01*
X44560000Y-52939999D01*
G75*
G02*
X44809999Y-52690000I249999J0D01*
G01*
G37*
%TD.AperFunction*%
%TO.P,C2,1*%
%TO.N,+3V3*%
%TA.AperFunction,SMDPad,CuDef*%
G36*
G01*
X44809999Y-50740000D02*
X45360001Y-50740000D01*
G75*
G02*
X45610000Y-50989999I0J-249999D01*
G01*
X45610000Y-51790001D01*
G75*
G02*
X45360001Y-52040000I-249999J0D01*
G01*
X44809999Y-52040000D01*
G75*
G02*
X44560000Y-51790001I0J249999D01*
G01*
X44560000Y-50989999D01*
G75*
G02*
X44809999Y-50740000I249999J0D01*
G01*
G37*
%TD.AperFunction*%
%TD*%
%TO.P,C1,2*%
%TO.N,GND*%
%TA.AperFunction,SMDPad,CuDef*%
G36*
G01*
X35284999Y-52690000D02*
X35835001Y-52690000D01*
G75*
G02*
X36085000Y-52939999I0J-249999D01*
G01*
X36085000Y-53740001D01*
G75*
G02*
X35835001Y-53990000I-249999J0D01*
G01*
X35284999Y-53990000D01*
G75*
G02*
X35035000Y-53740001I0J249999D01*
G01*
X35035000Y-52939999D01*
G75*
G02*
X35284999Y-52690000I249999J0D01*
G01*
G37*
%TD.AperFunction*%
%TO.P,C1,1*%
%TO.N,+5V*%
%TA.AperFunction,SMDPad,CuDef*%
G36*
G01*
X35284999Y-50740000D02*
X35835001Y-50740000D01*
G75*
G02*
X36085000Y-50989999I0J-249999D01*
G01*
X36085000Y-51790001D01*
G75*
G02*
X35835001Y-52040000I-249999J0D01*
G01*
X35284999Y-52040000D01*
G75*
G02*
X35035000Y-51790001I0J249999D01*
G01*
X35035000Y-50989999D01*
G75*
G02*
X35284999Y-50740000I249999J0D01*
G01*
G37*
%TD.AperFunction*%
%TD*%
%TO.P,D1,2*%
%TO.N,Net-(D1-Pad2)*%
%TA.AperFunction,SMDPad,CuDef*%
G36*
G01*
X35322500Y-58375000D02*
X35797500Y-58375000D01*
G75*
G02*
X36035000Y-58612500I0J-237500D01*
G01*
X36035000Y-59187500D01*
G75*
G02*
X35797500Y-59425000I-237500J0D01*
G01*
X35322500Y-59425000D01*
G75*
G02*
X35085000Y-59187500I0J237500D01*
G01*
X35085000Y-58612500D01*
G75*
G02*
X35322500Y-58375000I237500J0D01*
G01*
G37*
%TD.AperFunction*%
%TO.P,D1,1*%
%TO.N,+5V*%
%TA.AperFunction,SMDPad,CuDef*%
G36*
G01*
X35322500Y-56625000D02*
X35797500Y-56625000D01*
G75*
G02*
X36035000Y-56862500I0J-237500D01*
G01*
X36035000Y-57437500D01*
G75*
G02*
X35797500Y-57675000I-237500J0D01*
G01*
X35322500Y-57675000D01*
G75*
G02*
X35085000Y-57437500I0J237500D01*
G01*
X35085000Y-56862500D01*
G75*
G02*
X35322500Y-56625000I237500J0D01*
G01*
G37*
%TD.AperFunction*%
%TD*%
D12*
%TO.P,J1,S1*%
%TO.N,Net-(J1-PadS1)*%
X44320500Y-65574000D03*
X35670500Y-65574000D03*
D13*
X44320500Y-62194000D03*
X35670500Y-62194000D03*
D14*
%TO.P,J1,B6*%
%TO.N,/USB_D+*%
X40420500Y-62564000D03*
%TO.P,J1,B1*%
%TO.N,GND*%
X42970500Y-62564000D03*
%TO.P,J1,B4*%
%TO.N,Net-(D1-Pad2)*%
X42120500Y-62564000D03*
%TO.P,J1,B5*%
%TO.N,Net-(J1-PadB5)*%
X41270500Y-62564000D03*
%TO.P,J1,B12*%
%TO.N,GND*%
X37020500Y-62564000D03*
%TO.P,J1,B8*%
%TO.N,N/C*%
X38720500Y-62564000D03*
%TO.P,J1,B7*%
%TO.N,/USB_D-*%
X39570500Y-62564000D03*
%TO.P,J1,B9*%
%TO.N,Net-(D1-Pad2)*%
X37870500Y-62564000D03*
%TO.P,J1,A12*%
%TO.N,GND*%
X42970500Y-61214000D03*
%TO.P,J1,A9*%
%TO.N,Net-(D1-Pad2)*%
X42120500Y-61214000D03*
%TO.P,J1,A8*%
%TO.N,N/C*%
X41270500Y-61214000D03*
%TO.P,J1,A7*%
%TO.N,/USB_D-*%
X40420500Y-61214000D03*
%TO.P,J1,A6*%
%TO.N,/USB_D+*%
X39570500Y-61214000D03*
%TO.P,J1,A5*%
%TO.N,Net-(J1-PadA5)*%
X38720500Y-61214000D03*
%TO.P,J1,A4*%
%TO.N,Net-(D1-Pad2)*%
X37870500Y-61214000D03*
%TO.P,J1,A1*%
%TO.N,GND*%
X37020500Y-61214000D03*
%TD*%
%TO.P,R1,1*%
%TO.N,+3V3*%
%TA.AperFunction,SMDPad,CuDef*%
G36*
G01*
X44634999Y-56550000D02*
X45535001Y-56550000D01*
G75*
G02*
X45785000Y-56799999I0J-249999D01*
G01*
X45785000Y-57500001D01*
G75*
G02*
X45535001Y-57750000I-249999J0D01*
G01*
X44634999Y-57750000D01*
G75*
G02*
X44385000Y-57500001I0J249999D01*
G01*
X44385000Y-56799999D01*
G75*
G02*
X44634999Y-56550000I249999J0D01*
G01*
G37*
%TD.AperFunction*%
%TO.P,R1,2*%
%TO.N,/EN*%
%TA.AperFunction,SMDPad,CuDef*%
G36*
G01*
X44634999Y-58550000D02*
X45535001Y-58550000D01*
G75*
G02*
X45785000Y-58799999I0J-249999D01*
G01*
X45785000Y-59500001D01*
G75*
G02*
X45535001Y-59750000I-249999J0D01*
G01*
X44634999Y-59750000D01*
G75*
G02*
X44385000Y-59500001I0J249999D01*
G01*
X44385000Y-58799999D01*
G75*
G02*
X44634999Y-58550000I249999J0D01*
G01*
G37*
%TD.AperFunction*%
%TD*%
%TO.P,R3,2*%
%TO.N,GND*%
%TA.AperFunction,SMDPad,CuDef*%
G36*
G01*
X39185001Y-57750000D02*
X38284999Y-57750000D01*
G75*
G02*
X38035000Y-57500001I0J249999D01*
G01*
X38035000Y-56799999D01*
G75*
G02*
X38284999Y-56550000I249999J0D01*
G01*
X39185001Y-56550000D01*
G75*
G02*
X39435000Y-56799999I0J-249999D01*
G01*
X39435000Y-57500001D01*
G75*
G02*
X39185001Y-57750000I-249999J0D01*
G01*
G37*
%TD.AperFunction*%
%TO.P,R3,1*%
%TO.N,Net-(J1-PadA5)*%
%TA.AperFunction,SMDPad,CuDef*%
G36*
G01*
X39185001Y-59750000D02*
X38284999Y-59750000D01*
G75*
G02*
X38035000Y-59500001I0J249999D01*
G01*
X38035000Y-58799999D01*
G75*
G02*
X38284999Y-58550000I249999J0D01*
G01*
X39185001Y-58550000D01*
G75*
G02*
X39435000Y-58799999I0J-249999D01*
G01*
X39435000Y-59500001D01*
G75*
G02*
X39185001Y-59750000I-249999J0D01*
G01*
G37*
%TD.AperFunction*%
%TD*%
D15*
%TO.P,U1,43*%
%TO.N,GND*%
X41195000Y-28015000D03*
D16*
%TO.P,U1,42*%
X31380000Y-20075000D03*
%TO.P,U1,41*%
%TO.N,/EN*%
X31380000Y-21475000D03*
%TO.P,U1,40*%
%TO.N,/IO46*%
X31380000Y-22975000D03*
%TO.P,U1,39*%
%TO.N,/IO45*%
X31380000Y-24575000D03*
D17*
%TO.P,U1,25*%
%TO.N,/IO26*%
X34755000Y-43225000D03*
%TO.P,U1,26*%
%TO.N,GND*%
X33255000Y-43225000D03*
D16*
%TO.P,U1,27*%
%TO.N,/IO33*%
X31380000Y-42575000D03*
%TO.P,U1,28*%
%TO.N,/IO34*%
X31380000Y-41075000D03*
%TO.P,U1,29*%
%TO.N,/IO35*%
X31380000Y-39575000D03*
%TO.P,U1,30*%
%TO.N,/IO36*%
X31380000Y-38075000D03*
%TO.P,U1,31*%
%TO.N,/IO37*%
X31380000Y-36575000D03*
%TO.P,U1,32*%
%TO.N,/IO38*%
X31380000Y-35075000D03*
%TO.P,U1,33*%
%TO.N,/IO39*%
X31380000Y-33575000D03*
%TO.P,U1,34*%
%TO.N,/IO40*%
X31380000Y-32075000D03*
%TO.P,U1,35*%
%TO.N,/IO41*%
X31380000Y-30575000D03*
%TO.P,U1,36*%
%TO.N,/IO42*%
X31380000Y-29075000D03*
%TO.P,U1,37*%
%TO.N,/TX*%
X31380000Y-27575000D03*
%TO.P,U1,38*%
%TO.N,/RX*%
X31380000Y-26075000D03*
%TO.P,U1,14*%
%TO.N,/IO11*%
X48630000Y-39475000D03*
%TO.P,U1,13*%
%TO.N,/IO10*%
X48630000Y-37975000D03*
%TO.P,U1,12*%
%TO.N,/IO09*%
X48630000Y-36475000D03*
%TO.P,U1,11*%
%TO.N,/IO08*%
X48630000Y-34975000D03*
%TO.P,U1,10*%
%TO.N,/IO07*%
X48630000Y-33475000D03*
%TO.P,U1,9*%
%TO.N,/IO06*%
X48630000Y-31975000D03*
%TO.P,U1,8*%
%TO.N,/IO05*%
X48630000Y-30475000D03*
%TO.P,U1,7*%
%TO.N,/IO04*%
X48630000Y-28975000D03*
%TO.P,U1,6*%
%TO.N,/IO03*%
X48630000Y-27475000D03*
%TO.P,U1,5*%
%TO.N,/IO02*%
X48630000Y-25975000D03*
%TO.P,U1,4*%
%TO.N,/IO01*%
X48630000Y-24475000D03*
%TO.P,U1,3*%
%TO.N,/IO00*%
X48630000Y-22975000D03*
%TO.P,U1,2*%
%TO.N,+3V3*%
X48630000Y-21475000D03*
D17*
%TO.P,U1,24*%
%TO.N,/IO21*%
X36255000Y-43225000D03*
%TO.P,U1,23*%
%TO.N,/USB_D+*%
X37755000Y-43225000D03*
%TO.P,U1,22*%
%TO.N,/USB_D-*%
X39255000Y-43225000D03*
%TO.P,U1,21*%
%TO.N,/IO18*%
X40755000Y-43225000D03*
%TO.P,U1,20*%
%TO.N,/IO17*%
X42255000Y-43225000D03*
%TO.P,U1,19*%
%TO.N,/IO16*%
X43755000Y-43225000D03*
%TO.P,U1,18*%
%TO.N,/IO15*%
X45255000Y-43225000D03*
%TO.P,U1,17*%
%TO.N,/IO14*%
X46755000Y-43225000D03*
D16*
%TO.P,U1,16*%
%TO.N,/IO13*%
X48630000Y-42475000D03*
%TO.P,U1,15*%
%TO.N,/IO12*%
X48630000Y-40975000D03*
%TO.P,U1,1*%
%TO.N,GND*%
X48630000Y-19975000D03*
%TD*%
D18*
%TO.P,J2,18*%
%TO.N,+5V*%
X51435000Y-64770000D03*
%TO.P,J2,17*%
%TO.N,/IO16*%
X51435000Y-62230000D03*
%TO.P,J2,16*%
%TO.N,/IO15*%
X51435000Y-59690000D03*
%TO.P,J2,15*%
%TO.N,/IO14*%
X51435000Y-57150000D03*
%TO.P,J2,14*%
%TO.N,/IO13*%
X51435000Y-54610000D03*
%TO.P,J2,13*%
%TO.N,/IO12*%
X51435000Y-52070000D03*
%TO.P,J2,12*%
%TO.N,/IO11*%
X51435000Y-49530000D03*
%TO.P,J2,11*%
%TO.N,/IO10*%
X51435000Y-46990000D03*
%TO.P,J2,10*%
%TO.N,/IO09*%
X51435000Y-44450000D03*
%TO.P,J2,9*%
%TO.N,/IO08*%
X51435000Y-41910000D03*
%TO.P,J2,8*%
%TO.N,/IO07*%
X51435000Y-39370000D03*
%TO.P,J2,7*%
%TO.N,/IO06*%
X51435000Y-36830000D03*
%TO.P,J2,6*%
%TO.N,/IO05*%
X51435000Y-34290000D03*
%TO.P,J2,5*%
%TO.N,/IO04*%
X51435000Y-31750000D03*
%TO.P,J2,4*%
%TO.N,/IO03*%
X51435000Y-29210000D03*
%TO.P,J2,3*%
%TO.N,/IO02*%
X51435000Y-26670000D03*
%TO.P,J2,2*%
%TO.N,/IO01*%
X51435000Y-24130000D03*
D19*
%TO.P,J2,1*%
%TO.N,/IO00*%
X51435000Y-21590000D03*
%TD*%
%TO.P,J3,1*%
%TO.N,/IO46*%
X28575000Y-21590000D03*
D18*
%TO.P,J3,2*%
%TO.N,/RX*%
X28575000Y-24130000D03*
%TO.P,J3,3*%
%TO.N,/TX*%
X28575000Y-26670000D03*
%TO.P,J3,4*%
%TO.N,/IO42*%
X28575000Y-29210000D03*
%TO.P,J3,5*%
%TO.N,/IO41*%
X28575000Y-31750000D03*
%TO.P,J3,6*%
%TO.N,/IO39*%
X28575000Y-34290000D03*
%TO.P,J3,7*%
%TO.N,/IO38*%
X28575000Y-36830000D03*
%TO.P,J3,8*%
%TO.N,/IO37*%
X28575000Y-39370000D03*
%TO.P,J3,9*%
%TO.N,/IO36*%
X28575000Y-41910000D03*
%TO.P,J3,10*%
%TO.N,/IO35*%
X28575000Y-44450000D03*
%TO.P,J3,11*%
%TO.N,/IO34*%
X28575000Y-46990000D03*
%TO.P,J3,12*%
%TO.N,/IO33*%
X28575000Y-49530000D03*
%TO.P,J3,13*%
%TO.N,/IO26*%
X28575000Y-52070000D03*
%TO.P,J3,14*%
%TO.N,/IO21*%
X28575000Y-54610000D03*
%TO.P,J3,15*%
%TO.N,/IO18*%
X28575000Y-57150000D03*
%TO.P,J3,16*%
%TO.N,/IO17*%
X28575000Y-59690000D03*
%TO.P,J3,17*%
%TO.N,+3V3*%
X28575000Y-62230000D03*
%TO.P,J3,18*%
%TO.N,GND*%
X28575000Y-64770000D03*
%TD*%
D20*
%TO.N,GND*%
X40640000Y-30988000D03*
X42545000Y-54610000D03*
X42545000Y-54610000D03*
X44958000Y-53340000D03*
X38735000Y-57150000D03*
X33020000Y-53340000D03*
X33020000Y-45720000D03*
%TO.N,/USB_D+*%
X37378640Y-39344600D03*
%TO.N,/USB_D-*%
X42926000Y-37084000D03*
%TO.N,+3V3*%
X46990000Y-45720000D03*
X46990000Y-22860000D03*
X45084996Y-55880000D03*
%TO.N,/EN*%
X43434000Y-56660011D03*
X33020000Y-22860000D03*
%TO.N,/IO45*%
X37605000Y-29210000D03*
%TO.N,/IO40*%
X39205002Y-30734000D03*
%TO.N,/IO11*%
X46990000Y-40640000D03*
%TO.N,/IO09*%
X46990000Y-38100000D03*
%TO.N,/IO00*%
X37399836Y-56529714D03*
%TO.N,+5V*%
X33019992Y-58420000D03*
%TD*%
D21*
%TO.N,GND*%
X41195000Y-30433000D02*
X41195000Y-28015000D01*
X40640000Y-30988000D02*
X41195000Y-30433000D01*
X42970500Y-61214000D02*
X42970500Y-62564000D01*
X37020500Y-62564000D02*
X37020500Y-61214000D01*
X41910000Y-55245000D02*
X42545000Y-54610000D01*
X41910000Y-57150000D02*
X41910000Y-55245000D01*
X45085000Y-53340000D02*
X44958000Y-53340000D01*
X42970500Y-60719026D02*
X42970500Y-61214000D01*
X40884990Y-59738180D02*
X41235798Y-60088988D01*
X40884990Y-58664990D02*
X40884990Y-59738180D01*
X39370000Y-57150000D02*
X40884990Y-58664990D01*
X41235798Y-60088988D02*
X42340462Y-60088988D01*
X38735000Y-57150000D02*
X39370000Y-57150000D01*
X42340462Y-60088988D02*
X42970500Y-60719026D01*
X36475490Y-60668990D02*
X36475490Y-60605490D01*
X37020500Y-61214000D02*
X36475490Y-60668990D01*
X36475490Y-60605490D02*
X34136510Y-60605490D01*
X29972000Y-64770000D02*
X28575000Y-64770000D01*
X34136510Y-60605490D02*
X29972000Y-64770000D01*
D22*
X33782000Y-53340000D02*
X33020000Y-53340000D01*
X33255000Y-45485000D02*
X33020000Y-45720000D01*
X33255000Y-43225000D02*
X33255000Y-45485000D01*
D21*
%TO.N,Net-(D1-Pad2)*%
X36051474Y-58900000D02*
X35560000Y-58900000D01*
X37870500Y-60719026D02*
X36051474Y-58900000D01*
X37870500Y-61214000D02*
X37870500Y-60719026D01*
X42120500Y-62564000D02*
X42120500Y-61214000D01*
X37870500Y-62564000D02*
X37870500Y-61214000D01*
X40434979Y-59230979D02*
X40434979Y-59924580D01*
X37870500Y-61214000D02*
X37709990Y-61053490D01*
X42120500Y-60719026D02*
X42120500Y-61214000D01*
X37709990Y-61053490D02*
X37709990Y-58561820D01*
X37709990Y-58561820D02*
X38046820Y-58224990D01*
X40434979Y-59924580D02*
X41049398Y-60538999D01*
X38046820Y-58224990D02*
X39428990Y-58224990D01*
X39428990Y-58224990D02*
X40434979Y-59230979D01*
X41940473Y-60538999D02*
X42120500Y-60719026D01*
X41049398Y-60538999D02*
X41940473Y-60538999D01*
%TO.N,Net-(J1-PadA5)*%
X38735000Y-61199500D02*
X38720500Y-61214000D01*
X38735000Y-59150000D02*
X38735000Y-61199500D01*
%TO.N,/USB_D+*%
X37755000Y-39720960D02*
X37378640Y-39344600D01*
X37755000Y-43225000D02*
X37755000Y-39720960D01*
%TO.N,/USB_D-*%
X40420500Y-61363002D02*
X40420500Y-61214000D01*
X39570500Y-62213002D02*
X40420500Y-61363002D01*
X39570500Y-62564000D02*
X39570500Y-62213002D01*
X39255000Y-40755000D02*
X42926000Y-37084000D01*
X39255000Y-43225000D02*
X39255000Y-40755000D01*
D22*
%TO.N,Net-(J1-PadB5)*%
X41270500Y-63058974D02*
X41905536Y-63694010D01*
X41905536Y-63694010D02*
X44631164Y-63694010D01*
X45070510Y-63254664D02*
X45070510Y-61133336D01*
X43087174Y-59150000D02*
X41910000Y-59150000D01*
X45070510Y-61133336D02*
X43087174Y-59150000D01*
X41270500Y-62564000D02*
X41270500Y-63058974D01*
X44631164Y-63694010D02*
X45070510Y-63254664D01*
D21*
%TO.N,+3V3*%
X42005000Y-48310000D02*
X45085000Y-51390000D01*
X40245000Y-48310000D02*
X42005000Y-48310000D01*
X43465000Y-51390000D02*
X45085000Y-51390000D01*
X40245000Y-54610000D02*
X43465000Y-51390000D01*
X40245000Y-54610000D02*
X41570001Y-53284999D01*
X41570001Y-53284999D02*
X43555001Y-53284999D01*
X43555001Y-53284999D02*
X43870001Y-53599999D01*
X43870001Y-53599999D02*
X43870001Y-55935001D01*
X43870001Y-55935001D02*
X45085000Y-57150000D01*
X40245000Y-48310000D02*
X44400000Y-48310000D01*
X44400000Y-48310000D02*
X46990000Y-45720000D01*
X48630000Y-21475000D02*
X48375000Y-21475000D01*
X48375000Y-21475000D02*
X46990000Y-22860000D01*
X45085000Y-57150000D02*
X45085000Y-55880004D01*
X45085000Y-55880004D02*
X45084996Y-55880000D01*
D22*
%TO.N,/EN*%
X43434000Y-57499000D02*
X43434000Y-56660011D01*
X45085000Y-59150000D02*
X43434000Y-57499000D01*
X31380000Y-21475000D02*
X32330000Y-21475000D01*
X32330000Y-21475000D02*
X33020000Y-22165000D01*
X33020000Y-22165000D02*
X33020000Y-22860000D01*
D21*
%TO.N,/IO46*%
X29960000Y-22975000D02*
X28575000Y-21590000D01*
X31380000Y-22975000D02*
X29960000Y-22975000D01*
%TO.N,/IO45*%
X32970000Y-24575000D02*
X37605000Y-29210000D01*
X31380000Y-24575000D02*
X32970000Y-24575000D01*
%TO.N,/IO26*%
X34755000Y-45890000D02*
X28575000Y-52070000D01*
X34755000Y-43225000D02*
X34755000Y-45890000D01*
%TO.N,/IO33*%
X31380000Y-46725000D02*
X28575000Y-49530000D01*
X31380000Y-42575000D02*
X31380000Y-46725000D01*
%TO.N,/IO34*%
X30295010Y-45269990D02*
X28575000Y-46990000D01*
X30295010Y-41159990D02*
X30295010Y-45269990D01*
X30380000Y-41075000D02*
X30295010Y-41159990D01*
X31380000Y-41075000D02*
X30380000Y-41075000D01*
%TO.N,/IO35*%
X30950412Y-39370000D02*
X29845000Y-40475412D01*
X31585000Y-39370000D02*
X30950412Y-39370000D01*
X29845000Y-43180000D02*
X28575000Y-44450000D01*
X29845000Y-40475412D02*
X29845000Y-43180000D01*
X31380000Y-39575000D02*
X31585000Y-39370000D01*
%TO.N,/IO36*%
X29750001Y-39934001D02*
X28575000Y-41109002D01*
X29750001Y-38704999D02*
X29750001Y-39934001D01*
X28575000Y-41109002D02*
X28575000Y-41910000D01*
X31380000Y-38075000D02*
X30380000Y-38075000D01*
X30380000Y-38075000D02*
X29750001Y-38704999D01*
%TO.N,/IO37*%
X28575000Y-39080000D02*
X28575000Y-39370000D01*
X31080000Y-36575000D02*
X28575000Y-39080000D01*
X31380000Y-36575000D02*
X31080000Y-36575000D01*
%TO.N,/IO38*%
X30330000Y-35075000D02*
X28575000Y-36830000D01*
X31380000Y-35075000D02*
X30330000Y-35075000D01*
%TO.N,/IO39*%
X29290000Y-33575000D02*
X28575000Y-34290000D01*
X31380000Y-33575000D02*
X29290000Y-33575000D01*
%TO.N,/IO40*%
X37864002Y-32075000D02*
X39205002Y-30734000D01*
X31380000Y-32075000D02*
X37864002Y-32075000D01*
%TO.N,/IO41*%
X29750000Y-30575000D02*
X28575000Y-31750000D01*
X31380000Y-30575000D02*
X29750000Y-30575000D01*
%TO.N,/IO42*%
X28710000Y-29075000D02*
X28575000Y-29210000D01*
X31380000Y-29075000D02*
X28710000Y-29075000D01*
%TO.N,/TX*%
X29480000Y-27575000D02*
X28575000Y-26670000D01*
X31380000Y-27575000D02*
X29480000Y-27575000D01*
%TO.N,/RX*%
X30520000Y-26075000D02*
X28575000Y-24130000D01*
X31380000Y-26075000D02*
X30520000Y-26075000D01*
%TO.N,/IO11*%
X48630000Y-39475000D02*
X48155000Y-39475000D01*
X48155000Y-39475000D02*
X46990000Y-40640000D01*
%TO.N,/IO10*%
X50165000Y-40475412D02*
X50165000Y-45720000D01*
X49809988Y-40120401D02*
X50165000Y-40475412D01*
X49809988Y-38854988D02*
X49809988Y-40120401D01*
X48630000Y-37975000D02*
X48930000Y-37975000D01*
X50165000Y-45720000D02*
X51435000Y-46990000D01*
X48930000Y-37975000D02*
X49809988Y-38854988D01*
%TO.N,/IO09*%
X47389999Y-37700001D02*
X46990000Y-38100000D01*
X47389999Y-36715001D02*
X47389999Y-37700001D01*
X47630000Y-36475000D02*
X47389999Y-36715001D01*
X48630000Y-36475000D02*
X47630000Y-36475000D01*
%TO.N,/IO08*%
X50259999Y-39934001D02*
X51435000Y-41109002D01*
X49809990Y-38063195D02*
X50259999Y-38513204D01*
X48930000Y-34975000D02*
X49809990Y-35854990D01*
X51435000Y-41109002D02*
X51435000Y-41910000D01*
X49809990Y-35854990D02*
X49809990Y-38063195D01*
X48630000Y-34975000D02*
X48930000Y-34975000D01*
X50259999Y-38513204D02*
X50259999Y-39934001D01*
%TO.N,/IO07*%
X49809988Y-35203578D02*
X50259999Y-35653589D01*
X49809988Y-33654988D02*
X49809988Y-35203578D01*
X49630000Y-33475000D02*
X49809988Y-33654988D01*
X50259999Y-37394001D02*
X51435000Y-38569002D01*
X48630000Y-33475000D02*
X49630000Y-33475000D01*
X50259999Y-35653589D02*
X50259999Y-37394001D01*
X51435000Y-38569002D02*
X51435000Y-39370000D01*
%TO.N,/IO06*%
X48630000Y-31975000D02*
X48930000Y-31975000D01*
X48930000Y-31975000D02*
X50259999Y-33304999D01*
X50259999Y-34854001D02*
X51435000Y-36029002D01*
X50259999Y-33304999D02*
X50259999Y-34854001D01*
X51435000Y-36029002D02*
X51435000Y-36830000D01*
%TO.N,/IO05*%
X51435000Y-33489002D02*
X51435000Y-34290000D01*
X48630000Y-30475000D02*
X49630000Y-30475000D01*
X49630000Y-30475000D02*
X50259999Y-31104999D01*
X50259999Y-31104999D02*
X50259999Y-32314001D01*
X50259999Y-32314001D02*
X51435000Y-33489002D01*
%TO.N,/IO04*%
X51435000Y-31480000D02*
X51435000Y-31750000D01*
X48930000Y-28975000D02*
X51435000Y-31480000D01*
X48630000Y-28975000D02*
X48930000Y-28975000D01*
%TO.N,/IO03*%
X49700000Y-27475000D02*
X51435000Y-29210000D01*
X48630000Y-27475000D02*
X49700000Y-27475000D01*
%TO.N,/IO02*%
X50740000Y-25975000D02*
X51435000Y-26670000D01*
X48630000Y-25975000D02*
X50740000Y-25975000D01*
%TO.N,/IO01*%
X51090000Y-24475000D02*
X51435000Y-24130000D01*
X48630000Y-24475000D02*
X51090000Y-24475000D01*
%TO.N,/IO00*%
X50050000Y-22975000D02*
X51435000Y-21590000D01*
X48630000Y-22975000D02*
X50050000Y-22975000D01*
D22*
X48330000Y-22975000D02*
X46990000Y-24315000D01*
X48630000Y-22975000D02*
X48330000Y-22975000D01*
X46990000Y-36830000D02*
X43005000Y-40815000D01*
X38715287Y-56129715D02*
X37799835Y-56129715D01*
X41246002Y-45974000D02*
X39140998Y-45974000D01*
X46990000Y-24315000D02*
X46990000Y-36830000D01*
X38995001Y-53369999D02*
X38995001Y-55850001D01*
X39140998Y-45974000D02*
X37846000Y-47268998D01*
X43005000Y-44215002D02*
X41246002Y-45974000D01*
X37846000Y-47268998D02*
X37846000Y-52220998D01*
X38995001Y-55850001D02*
X38715287Y-56129715D01*
X37799835Y-56129715D02*
X37399836Y-56529714D01*
X37846000Y-52220998D02*
X38995001Y-53369999D01*
X43005000Y-40815000D02*
X43005000Y-44215002D01*
D21*
%TO.N,/IO21*%
X36255000Y-46927179D02*
X29424999Y-53757180D01*
X29424999Y-53757180D02*
X29424999Y-53760001D01*
X29424999Y-53760001D02*
X28575000Y-54610000D01*
X36255000Y-43225000D02*
X36255000Y-46927179D01*
%TO.N,/IO18*%
X31115000Y-54610000D02*
X28575000Y-57150000D01*
X40755000Y-43225000D02*
X40755000Y-44225000D01*
X38778553Y-45098978D02*
X31115000Y-52762531D01*
X39881022Y-45098978D02*
X38778553Y-45098978D01*
X31115000Y-52762531D02*
X31115000Y-54610000D01*
X40755000Y-44225000D02*
X39881022Y-45098978D01*
%TO.N,/IO17*%
X31750000Y-56515000D02*
X28575000Y-59690000D01*
X38964952Y-45548990D02*
X31750000Y-52763942D01*
X31750000Y-52763942D02*
X31750000Y-56515000D01*
X42255000Y-44225000D02*
X40931011Y-45548989D01*
X40931011Y-45548989D02*
X38964952Y-45548990D01*
X42255000Y-43225000D02*
X42255000Y-44225000D01*
%TO.N,/IO16*%
X50585001Y-61380001D02*
X51435000Y-62230000D01*
X47655001Y-58450001D02*
X50585001Y-61380001D01*
X47655001Y-45400799D02*
X47655001Y-58450001D01*
X44584999Y-45054999D02*
X47309201Y-45054999D01*
X43755000Y-44225000D02*
X44584999Y-45054999D01*
X47309201Y-45054999D02*
X47655001Y-45400799D01*
X43755000Y-43225000D02*
X43755000Y-44225000D01*
%TO.N,/IO15*%
X45255000Y-43225000D02*
X45255000Y-44225000D01*
X45255000Y-44225000D02*
X45574988Y-44544988D01*
X45574988Y-44544988D02*
X47350748Y-44544988D01*
X47350748Y-44544988D02*
X48045012Y-45239252D01*
X48045012Y-45239252D02*
X48045012Y-56300012D01*
X48045012Y-56300012D02*
X51435000Y-59690000D01*
%TO.N,/IO14*%
X48435023Y-54150023D02*
X51435000Y-57150000D01*
X48435023Y-44905023D02*
X48435023Y-54150023D01*
X46755000Y-43225000D02*
X48435023Y-44905023D01*
%TO.N,/IO13*%
X48825034Y-42670034D02*
X48825034Y-52000034D01*
X48630000Y-42475000D02*
X48825034Y-42670034D01*
X48825034Y-52000034D02*
X51435000Y-54610000D01*
%TO.N,/IO12*%
X49705001Y-50340001D02*
X51435000Y-52070000D01*
X48915002Y-40975000D02*
X49705001Y-41764999D01*
X49705001Y-41764999D02*
X49705001Y-50340001D01*
X48630000Y-40975000D02*
X48915002Y-40975000D01*
%TO.N,+5V*%
X37945000Y-53775000D02*
X37945000Y-54610000D01*
X35560000Y-51390000D02*
X37945000Y-53775000D01*
X35560000Y-56995000D02*
X37945000Y-54610000D01*
X35560000Y-57150000D02*
X35560000Y-56995000D01*
X35560000Y-57150000D02*
X34289992Y-57150000D01*
X34289992Y-57150000D02*
X33019992Y-58420000D01*
%TD*%
D23*
%TO.N,GND*%
X46895002Y-58412669D02*
X46891325Y-58450001D01*
X46895002Y-58487334D01*
X46905999Y-58598987D01*
X46910098Y-58612500D01*
X46949455Y-58742247D01*
X47020027Y-58874277D01*
X47090380Y-58960001D01*
X47115001Y-58990002D01*
X47143999Y-59013800D01*
X49993790Y-61863592D01*
X49950000Y-62083740D01*
X49950000Y-62376260D01*
X50007068Y-62663158D01*
X50119010Y-62933411D01*
X50281525Y-63176632D01*
X50488368Y-63383475D01*
X50662760Y-63500000D01*
X50488368Y-63616525D01*
X50281525Y-63823368D01*
X50119010Y-64066589D01*
X50007068Y-64336842D01*
X49950000Y-64623740D01*
X49950000Y-64916260D01*
X50007068Y-65203158D01*
X50119010Y-65473411D01*
X50281525Y-65716632D01*
X50488368Y-65923475D01*
X50731589Y-66085990D01*
X51001842Y-66197932D01*
X51288740Y-66255000D01*
X51581260Y-66255000D01*
X51868158Y-66197932D01*
X52033046Y-66129633D01*
X52030278Y-66157869D01*
X51996047Y-66271246D01*
X51940446Y-66375817D01*
X51865594Y-66467595D01*
X51774335Y-66543091D01*
X51670160Y-66599419D01*
X51557024Y-66634440D01*
X51408979Y-66650000D01*
X45169323Y-66650000D01*
X45227009Y-66579710D01*
X45327759Y-66391220D01*
X45389800Y-66186696D01*
X45405500Y-66027293D01*
X45405500Y-65120706D01*
X45389800Y-64961303D01*
X45327759Y-64756780D01*
X45227009Y-64568290D01*
X45091422Y-64403078D01*
X45001639Y-64329395D01*
X45041484Y-64308097D01*
X45153402Y-64216248D01*
X45176423Y-64188197D01*
X45564702Y-63799918D01*
X45592747Y-63776902D01*
X45684597Y-63664984D01*
X45752847Y-63537297D01*
X45786656Y-63425843D01*
X45794875Y-63398750D01*
X45809066Y-63254665D01*
X45805510Y-63218560D01*
X45805510Y-61169441D01*
X45809066Y-61133336D01*
X45794875Y-60989251D01*
X45752847Y-60850702D01*
X45684597Y-60723016D01*
X45615763Y-60639142D01*
X45592748Y-60611098D01*
X45564703Y-60588082D01*
X45364693Y-60388072D01*
X45535001Y-60388072D01*
X45708255Y-60371008D01*
X45874851Y-60320472D01*
X46028387Y-60238405D01*
X46162962Y-60127962D01*
X46273405Y-59993387D01*
X46355472Y-59839851D01*
X46406008Y-59673255D01*
X46423072Y-59500001D01*
X46423072Y-58799999D01*
X46406008Y-58626745D01*
X46355472Y-58460149D01*
X46273405Y-58306613D01*
X46162962Y-58172038D01*
X46136109Y-58150000D01*
X46162962Y-58127962D01*
X46273405Y-57993387D01*
X46355472Y-57839851D01*
X46406008Y-57673255D01*
X46423072Y-57500001D01*
X46423072Y-56799999D01*
X46406008Y-56626745D01*
X46355472Y-56460149D01*
X46273405Y-56306613D01*
X46162962Y-56172038D01*
X46093519Y-56115048D01*
X46119996Y-55981939D01*
X46119996Y-55778061D01*
X46080222Y-55578102D01*
X46002201Y-55389744D01*
X45888933Y-55220226D01*
X45744770Y-55076063D01*
X45575252Y-54962795D01*
X45386894Y-54884774D01*
X45186935Y-54845000D01*
X44983057Y-54845000D01*
X44783098Y-54884774D01*
X44630001Y-54948189D01*
X44630001Y-54627173D01*
X44799250Y-54625000D01*
X44958000Y-54466250D01*
X44958000Y-53467000D01*
X45212000Y-53467000D01*
X45212000Y-54466250D01*
X45370750Y-54625000D01*
X45610000Y-54628072D01*
X45734482Y-54615812D01*
X45854180Y-54579502D01*
X45964494Y-54520537D01*
X46061185Y-54441185D01*
X46140537Y-54344494D01*
X46199502Y-54234180D01*
X46235812Y-54114482D01*
X46248072Y-53990000D01*
X46245000Y-53625750D01*
X46086250Y-53467000D01*
X45212000Y-53467000D01*
X44958000Y-53467000D01*
X44938000Y-53467000D01*
X44938000Y-53213000D01*
X44958000Y-53213000D01*
X44958000Y-53193000D01*
X45212000Y-53193000D01*
X45212000Y-53213000D01*
X46086250Y-53213000D01*
X46245000Y-53054250D01*
X46248072Y-52690000D01*
X46235812Y-52565518D01*
X46199502Y-52445820D01*
X46140537Y-52335506D01*
X46098085Y-52283777D01*
X46098405Y-52283387D01*
X46180472Y-52129851D01*
X46231008Y-51963255D01*
X46248072Y-51790001D01*
X46248072Y-50989999D01*
X46231008Y-50816745D01*
X46180472Y-50650149D01*
X46098405Y-50496613D01*
X45987962Y-50362038D01*
X45853387Y-50251595D01*
X45699851Y-50169528D01*
X45533255Y-50118992D01*
X45360001Y-50101928D01*
X44871730Y-50101928D01*
X43839801Y-49070000D01*
X44362678Y-49070000D01*
X44400000Y-49073676D01*
X44437322Y-49070000D01*
X44437333Y-49070000D01*
X44548986Y-49059003D01*
X44692247Y-49015546D01*
X44824276Y-48944974D01*
X44940001Y-48850001D01*
X44963804Y-48820997D01*
X46895001Y-46889801D01*
X46895002Y-58412669D01*
%TA.AperFunction,Conductor*%
D24*
G36*
X46895002Y-58412669D02*
G01*
X46891325Y-58450001D01*
X46895002Y-58487334D01*
X46905999Y-58598987D01*
X46910098Y-58612500D01*
X46949455Y-58742247D01*
X47020027Y-58874277D01*
X47090380Y-58960001D01*
X47115001Y-58990002D01*
X47143999Y-59013800D01*
X49993790Y-61863592D01*
X49950000Y-62083740D01*
X49950000Y-62376260D01*
X50007068Y-62663158D01*
X50119010Y-62933411D01*
X50281525Y-63176632D01*
X50488368Y-63383475D01*
X50662760Y-63500000D01*
X50488368Y-63616525D01*
X50281525Y-63823368D01*
X50119010Y-64066589D01*
X50007068Y-64336842D01*
X49950000Y-64623740D01*
X49950000Y-64916260D01*
X50007068Y-65203158D01*
X50119010Y-65473411D01*
X50281525Y-65716632D01*
X50488368Y-65923475D01*
X50731589Y-66085990D01*
X51001842Y-66197932D01*
X51288740Y-66255000D01*
X51581260Y-66255000D01*
X51868158Y-66197932D01*
X52033046Y-66129633D01*
X52030278Y-66157869D01*
X51996047Y-66271246D01*
X51940446Y-66375817D01*
X51865594Y-66467595D01*
X51774335Y-66543091D01*
X51670160Y-66599419D01*
X51557024Y-66634440D01*
X51408979Y-66650000D01*
X45169323Y-66650000D01*
X45227009Y-66579710D01*
X45327759Y-66391220D01*
X45389800Y-66186696D01*
X45405500Y-66027293D01*
X45405500Y-65120706D01*
X45389800Y-64961303D01*
X45327759Y-64756780D01*
X45227009Y-64568290D01*
X45091422Y-64403078D01*
X45001639Y-64329395D01*
X45041484Y-64308097D01*
X45153402Y-64216248D01*
X45176423Y-64188197D01*
X45564702Y-63799918D01*
X45592747Y-63776902D01*
X45684597Y-63664984D01*
X45752847Y-63537297D01*
X45786656Y-63425843D01*
X45794875Y-63398750D01*
X45809066Y-63254665D01*
X45805510Y-63218560D01*
X45805510Y-61169441D01*
X45809066Y-61133336D01*
X45794875Y-60989251D01*
X45752847Y-60850702D01*
X45684597Y-60723016D01*
X45615763Y-60639142D01*
X45592748Y-60611098D01*
X45564703Y-60588082D01*
X45364693Y-60388072D01*
X45535001Y-60388072D01*
X45708255Y-60371008D01*
X45874851Y-60320472D01*
X46028387Y-60238405D01*
X46162962Y-60127962D01*
X46273405Y-59993387D01*
X46355472Y-59839851D01*
X46406008Y-59673255D01*
X46423072Y-59500001D01*
X46423072Y-58799999D01*
X46406008Y-58626745D01*
X46355472Y-58460149D01*
X46273405Y-58306613D01*
X46162962Y-58172038D01*
X46136109Y-58150000D01*
X46162962Y-58127962D01*
X46273405Y-57993387D01*
X46355472Y-57839851D01*
X46406008Y-57673255D01*
X46423072Y-57500001D01*
X46423072Y-56799999D01*
X46406008Y-56626745D01*
X46355472Y-56460149D01*
X46273405Y-56306613D01*
X46162962Y-56172038D01*
X46093519Y-56115048D01*
X46119996Y-55981939D01*
X46119996Y-55778061D01*
X46080222Y-55578102D01*
X46002201Y-55389744D01*
X45888933Y-55220226D01*
X45744770Y-55076063D01*
X45575252Y-54962795D01*
X45386894Y-54884774D01*
X45186935Y-54845000D01*
X44983057Y-54845000D01*
X44783098Y-54884774D01*
X44630001Y-54948189D01*
X44630001Y-54627173D01*
X44799250Y-54625000D01*
X44958000Y-54466250D01*
X44958000Y-53467000D01*
X45212000Y-53467000D01*
X45212000Y-54466250D01*
X45370750Y-54625000D01*
X45610000Y-54628072D01*
X45734482Y-54615812D01*
X45854180Y-54579502D01*
X45964494Y-54520537D01*
X46061185Y-54441185D01*
X46140537Y-54344494D01*
X46199502Y-54234180D01*
X46235812Y-54114482D01*
X46248072Y-53990000D01*
X46245000Y-53625750D01*
X46086250Y-53467000D01*
X45212000Y-53467000D01*
X44958000Y-53467000D01*
X44938000Y-53467000D01*
X44938000Y-53213000D01*
X44958000Y-53213000D01*
X44958000Y-53193000D01*
X45212000Y-53193000D01*
X45212000Y-53213000D01*
X46086250Y-53213000D01*
X46245000Y-53054250D01*
X46248072Y-52690000D01*
X46235812Y-52565518D01*
X46199502Y-52445820D01*
X46140537Y-52335506D01*
X46098085Y-52283777D01*
X46098405Y-52283387D01*
X46180472Y-52129851D01*
X46231008Y-51963255D01*
X46248072Y-51790001D01*
X46248072Y-50989999D01*
X46231008Y-50816745D01*
X46180472Y-50650149D01*
X46098405Y-50496613D01*
X45987962Y-50362038D01*
X45853387Y-50251595D01*
X45699851Y-50169528D01*
X45533255Y-50118992D01*
X45360001Y-50101928D01*
X44871730Y-50101928D01*
X43839801Y-49070000D01*
X44362678Y-49070000D01*
X44400000Y-49073676D01*
X44437322Y-49070000D01*
X44437333Y-49070000D01*
X44548986Y-49059003D01*
X44692247Y-49015546D01*
X44824276Y-48944974D01*
X44940001Y-48850001D01*
X44963804Y-48820997D01*
X46895001Y-46889801D01*
X46895002Y-58412669D01*
G37*
%TD.AperFunction*%
D23*
X34396928Y-51790001D02*
X34413992Y-51963255D01*
X34464528Y-52129851D01*
X34546595Y-52283387D01*
X34546915Y-52283777D01*
X34504463Y-52335506D01*
X34445498Y-52445820D01*
X34409188Y-52565518D01*
X34396928Y-52690000D01*
X34400000Y-53054250D01*
X34558750Y-53213000D01*
X35433000Y-53213000D01*
X35433000Y-53193000D01*
X35687000Y-53193000D01*
X35687000Y-53213000D01*
X35707000Y-53213000D01*
X35707000Y-53467000D01*
X35687000Y-53467000D01*
X35687000Y-54466250D01*
X35845750Y-54625000D01*
X36085000Y-54628072D01*
X36209482Y-54615812D01*
X36329180Y-54579502D01*
X36439494Y-54520537D01*
X36536185Y-54441185D01*
X36556928Y-54415910D01*
X36556928Y-54923270D01*
X35493271Y-55986928D01*
X35322500Y-55986928D01*
X35151684Y-56003752D01*
X34987433Y-56053577D01*
X34836058Y-56134488D01*
X34703377Y-56243377D01*
X34594488Y-56376058D01*
X34587036Y-56390000D01*
X34327314Y-56390000D01*
X34289991Y-56386324D01*
X34252668Y-56390000D01*
X34252659Y-56390000D01*
X34141006Y-56400997D01*
X33997745Y-56444454D01*
X33865716Y-56515026D01*
X33749991Y-56609999D01*
X33726193Y-56638997D01*
X32980191Y-57385000D01*
X32918053Y-57385000D01*
X32718094Y-57424774D01*
X32529736Y-57502795D01*
X32360218Y-57616063D01*
X32216055Y-57760226D01*
X32102787Y-57929744D01*
X32024766Y-58118102D01*
X31984992Y-58318061D01*
X31984992Y-58521939D01*
X32024766Y-58721898D01*
X32102787Y-58910256D01*
X32216055Y-59079774D01*
X32360218Y-59223937D01*
X32529736Y-59337205D01*
X32718094Y-59415226D01*
X32918053Y-59455000D01*
X33121931Y-59455000D01*
X33321890Y-59415226D01*
X33510248Y-59337205D01*
X33679766Y-59223937D01*
X33823929Y-59079774D01*
X33937197Y-58910256D01*
X34015218Y-58721898D01*
X34054992Y-58521939D01*
X34054992Y-58459801D01*
X34593221Y-57921572D01*
X34594488Y-57923942D01*
X34677425Y-58025000D01*
X34594488Y-58126058D01*
X34513577Y-58277433D01*
X34463752Y-58441684D01*
X34446928Y-58612500D01*
X34446928Y-59187500D01*
X34463752Y-59358316D01*
X34513577Y-59522567D01*
X34594488Y-59673942D01*
X34703377Y-59806623D01*
X34836058Y-59915512D01*
X34987433Y-59996423D01*
X35151684Y-60046248D01*
X35322500Y-60063072D01*
X35797500Y-60063072D01*
X35968316Y-60046248D01*
X36086937Y-60010265D01*
X36536623Y-60459950D01*
X36529588Y-60543483D01*
X36921601Y-60935496D01*
X36885500Y-61116986D01*
X36885500Y-61286890D01*
X36826753Y-61228143D01*
X36840895Y-61214000D01*
X36688246Y-61061351D01*
X36677759Y-61026780D01*
X36577009Y-60838290D01*
X36441422Y-60673078D01*
X36276210Y-60537491D01*
X36087719Y-60436741D01*
X35883196Y-60374700D01*
X35670500Y-60353751D01*
X35457803Y-60374700D01*
X35253280Y-60436741D01*
X35064790Y-60537491D01*
X34899578Y-60673078D01*
X34763991Y-60838290D01*
X34663241Y-61026781D01*
X34601200Y-61231304D01*
X34585500Y-61390707D01*
X34585500Y-62997294D01*
X34601200Y-63156697D01*
X34663242Y-63361220D01*
X34763992Y-63549710D01*
X34899579Y-63714922D01*
X35064791Y-63850509D01*
X35253281Y-63951259D01*
X35457804Y-64013300D01*
X35670500Y-64034249D01*
X35883197Y-64013300D01*
X36087720Y-63951259D01*
X36276210Y-63850509D01*
X36441422Y-63714922D01*
X36577009Y-63549710D01*
X36622273Y-63465027D01*
X36724884Y-63508589D01*
X36914844Y-63548110D01*
X37108864Y-63549813D01*
X37299489Y-63513632D01*
X37446151Y-63454385D01*
X37583186Y-63511147D01*
X37773486Y-63549000D01*
X37967514Y-63549000D01*
X38157814Y-63511147D01*
X38295500Y-63454116D01*
X38433186Y-63511147D01*
X38623486Y-63549000D01*
X38817514Y-63549000D01*
X39007814Y-63511147D01*
X39145500Y-63454116D01*
X39283186Y-63511147D01*
X39473486Y-63549000D01*
X39667514Y-63549000D01*
X39857814Y-63511147D01*
X39995500Y-63454116D01*
X40133186Y-63511147D01*
X40323486Y-63549000D01*
X40517514Y-63549000D01*
X40693154Y-63514063D01*
X40748263Y-63581212D01*
X40776308Y-63604228D01*
X41360282Y-64188203D01*
X41383298Y-64216248D01*
X41411342Y-64239263D01*
X41495216Y-64308097D01*
X41622902Y-64376347D01*
X41761451Y-64418375D01*
X41905536Y-64432566D01*
X41941641Y-64429010D01*
X43528296Y-64429010D01*
X43413991Y-64568290D01*
X43313241Y-64756781D01*
X43251200Y-64961304D01*
X43235500Y-65120707D01*
X43235500Y-66027294D01*
X43251200Y-66186697D01*
X43313242Y-66391220D01*
X43413992Y-66579710D01*
X43471678Y-66650000D01*
X36519323Y-66650000D01*
X36577009Y-66579710D01*
X36677759Y-66391220D01*
X36739800Y-66186696D01*
X36755500Y-66027293D01*
X36755500Y-65120706D01*
X36739800Y-64961303D01*
X36677759Y-64756780D01*
X36577009Y-64568290D01*
X36441422Y-64403078D01*
X36276210Y-64267491D01*
X36087719Y-64166741D01*
X35883196Y-64104700D01*
X35670500Y-64083751D01*
X35457803Y-64104700D01*
X35253280Y-64166741D01*
X35064790Y-64267491D01*
X34899578Y-64403078D01*
X34763991Y-64568290D01*
X34663241Y-64756781D01*
X34601200Y-64961304D01*
X34585500Y-65120707D01*
X34585500Y-66027294D01*
X34601200Y-66186697D01*
X34663242Y-66391220D01*
X34763992Y-66579710D01*
X34821678Y-66650000D01*
X28607279Y-66650000D01*
X28457131Y-66635278D01*
X28343754Y-66601047D01*
X28239183Y-66545446D01*
X28147405Y-66470594D01*
X28071909Y-66379335D01*
X28015581Y-66275160D01*
X27980560Y-66162024D01*
X27976760Y-66125867D01*
X28218109Y-66211481D01*
X28448000Y-66090814D01*
X28448000Y-64897000D01*
X28702000Y-64897000D01*
X28702000Y-66090814D01*
X28931891Y-66211481D01*
X29206252Y-66114157D01*
X29456355Y-65965178D01*
X29672588Y-65770269D01*
X29846641Y-65536920D01*
X29971825Y-65274099D01*
X30016476Y-65126890D01*
X29895155Y-64897000D01*
X28702000Y-64897000D01*
X28448000Y-64897000D01*
X28428000Y-64897000D01*
X28428000Y-64643000D01*
X28448000Y-64643000D01*
X28448000Y-64623000D01*
X28702000Y-64623000D01*
X28702000Y-64643000D01*
X29895155Y-64643000D01*
X30016476Y-64413110D01*
X29971825Y-64265901D01*
X29846641Y-64003080D01*
X29672588Y-63769731D01*
X29456355Y-63574822D01*
X29339466Y-63505195D01*
X29521632Y-63383475D01*
X29728475Y-63176632D01*
X29890990Y-62933411D01*
X30002932Y-62663158D01*
X30060000Y-62376260D01*
X30060000Y-62083740D01*
X30002932Y-61796842D01*
X29890990Y-61526589D01*
X29728475Y-61283368D01*
X29521632Y-61076525D01*
X29347240Y-60960000D01*
X29521632Y-60843475D01*
X29728475Y-60636632D01*
X29890990Y-60393411D01*
X30002932Y-60123158D01*
X30060000Y-59836260D01*
X30060000Y-59543740D01*
X30016209Y-59323592D01*
X32261003Y-57078799D01*
X32290001Y-57055001D01*
X32339243Y-56995000D01*
X32384974Y-56939277D01*
X32455546Y-56807247D01*
X32458592Y-56797205D01*
X32499003Y-56663986D01*
X32510000Y-56552333D01*
X32510000Y-56552324D01*
X32513676Y-56515001D01*
X32510000Y-56477678D01*
X32510000Y-53990000D01*
X34396928Y-53990000D01*
X34409188Y-54114482D01*
X34445498Y-54234180D01*
X34504463Y-54344494D01*
X34583815Y-54441185D01*
X34680506Y-54520537D01*
X34790820Y-54579502D01*
X34910518Y-54615812D01*
X35035000Y-54628072D01*
X35274250Y-54625000D01*
X35433000Y-54466250D01*
X35433000Y-53467000D01*
X34558750Y-53467000D01*
X34400000Y-53625750D01*
X34396928Y-53990000D01*
X32510000Y-53990000D01*
X32510000Y-53078743D01*
X34396928Y-51191815D01*
X34396928Y-51790001D01*
%TA.AperFunction,Conductor*%
D24*
G36*
X34396928Y-51790001D02*
G01*
X34413992Y-51963255D01*
X34464528Y-52129851D01*
X34546595Y-52283387D01*
X34546915Y-52283777D01*
X34504463Y-52335506D01*
X34445498Y-52445820D01*
X34409188Y-52565518D01*
X34396928Y-52690000D01*
X34400000Y-53054250D01*
X34558750Y-53213000D01*
X35433000Y-53213000D01*
X35433000Y-53193000D01*
X35687000Y-53193000D01*
X35687000Y-53213000D01*
X35707000Y-53213000D01*
X35707000Y-53467000D01*
X35687000Y-53467000D01*
X35687000Y-54466250D01*
X35845750Y-54625000D01*
X36085000Y-54628072D01*
X36209482Y-54615812D01*
X36329180Y-54579502D01*
X36439494Y-54520537D01*
X36536185Y-54441185D01*
X36556928Y-54415910D01*
X36556928Y-54923270D01*
X35493271Y-55986928D01*
X35322500Y-55986928D01*
X35151684Y-56003752D01*
X34987433Y-56053577D01*
X34836058Y-56134488D01*
X34703377Y-56243377D01*
X34594488Y-56376058D01*
X34587036Y-56390000D01*
X34327314Y-56390000D01*
X34289991Y-56386324D01*
X34252668Y-56390000D01*
X34252659Y-56390000D01*
X34141006Y-56400997D01*
X33997745Y-56444454D01*
X33865716Y-56515026D01*
X33749991Y-56609999D01*
X33726193Y-56638997D01*
X32980191Y-57385000D01*
X32918053Y-57385000D01*
X32718094Y-57424774D01*
X32529736Y-57502795D01*
X32360218Y-57616063D01*
X32216055Y-57760226D01*
X32102787Y-57929744D01*
X32024766Y-58118102D01*
X31984992Y-58318061D01*
X31984992Y-58521939D01*
X32024766Y-58721898D01*
X32102787Y-58910256D01*
X32216055Y-59079774D01*
X32360218Y-59223937D01*
X32529736Y-59337205D01*
X32718094Y-59415226D01*
X32918053Y-59455000D01*
X33121931Y-59455000D01*
X33321890Y-59415226D01*
X33510248Y-59337205D01*
X33679766Y-59223937D01*
X33823929Y-59079774D01*
X33937197Y-58910256D01*
X34015218Y-58721898D01*
X34054992Y-58521939D01*
X34054992Y-58459801D01*
X34593221Y-57921572D01*
X34594488Y-57923942D01*
X34677425Y-58025000D01*
X34594488Y-58126058D01*
X34513577Y-58277433D01*
X34463752Y-58441684D01*
X34446928Y-58612500D01*
X34446928Y-59187500D01*
X34463752Y-59358316D01*
X34513577Y-59522567D01*
X34594488Y-59673942D01*
X34703377Y-59806623D01*
X34836058Y-59915512D01*
X34987433Y-59996423D01*
X35151684Y-60046248D01*
X35322500Y-60063072D01*
X35797500Y-60063072D01*
X35968316Y-60046248D01*
X36086937Y-60010265D01*
X36536623Y-60459950D01*
X36529588Y-60543483D01*
X36921601Y-60935496D01*
X36885500Y-61116986D01*
X36885500Y-61286890D01*
X36826753Y-61228143D01*
X36840895Y-61214000D01*
X36688246Y-61061351D01*
X36677759Y-61026780D01*
X36577009Y-60838290D01*
X36441422Y-60673078D01*
X36276210Y-60537491D01*
X36087719Y-60436741D01*
X35883196Y-60374700D01*
X35670500Y-60353751D01*
X35457803Y-60374700D01*
X35253280Y-60436741D01*
X35064790Y-60537491D01*
X34899578Y-60673078D01*
X34763991Y-60838290D01*
X34663241Y-61026781D01*
X34601200Y-61231304D01*
X34585500Y-61390707D01*
X34585500Y-62997294D01*
X34601200Y-63156697D01*
X34663242Y-63361220D01*
X34763992Y-63549710D01*
X34899579Y-63714922D01*
X35064791Y-63850509D01*
X35253281Y-63951259D01*
X35457804Y-64013300D01*
X35670500Y-64034249D01*
X35883197Y-64013300D01*
X36087720Y-63951259D01*
X36276210Y-63850509D01*
X36441422Y-63714922D01*
X36577009Y-63549710D01*
X36622273Y-63465027D01*
X36724884Y-63508589D01*
X36914844Y-63548110D01*
X37108864Y-63549813D01*
X37299489Y-63513632D01*
X37446151Y-63454385D01*
X37583186Y-63511147D01*
X37773486Y-63549000D01*
X37967514Y-63549000D01*
X38157814Y-63511147D01*
X38295500Y-63454116D01*
X38433186Y-63511147D01*
X38623486Y-63549000D01*
X38817514Y-63549000D01*
X39007814Y-63511147D01*
X39145500Y-63454116D01*
X39283186Y-63511147D01*
X39473486Y-63549000D01*
X39667514Y-63549000D01*
X39857814Y-63511147D01*
X39995500Y-63454116D01*
X40133186Y-63511147D01*
X40323486Y-63549000D01*
X40517514Y-63549000D01*
X40693154Y-63514063D01*
X40748263Y-63581212D01*
X40776308Y-63604228D01*
X41360282Y-64188203D01*
X41383298Y-64216248D01*
X41411342Y-64239263D01*
X41495216Y-64308097D01*
X41622902Y-64376347D01*
X41761451Y-64418375D01*
X41905536Y-64432566D01*
X41941641Y-64429010D01*
X43528296Y-64429010D01*
X43413991Y-64568290D01*
X43313241Y-64756781D01*
X43251200Y-64961304D01*
X43235500Y-65120707D01*
X43235500Y-66027294D01*
X43251200Y-66186697D01*
X43313242Y-66391220D01*
X43413992Y-66579710D01*
X43471678Y-66650000D01*
X36519323Y-66650000D01*
X36577009Y-66579710D01*
X36677759Y-66391220D01*
X36739800Y-66186696D01*
X36755500Y-66027293D01*
X36755500Y-65120706D01*
X36739800Y-64961303D01*
X36677759Y-64756780D01*
X36577009Y-64568290D01*
X36441422Y-64403078D01*
X36276210Y-64267491D01*
X36087719Y-64166741D01*
X35883196Y-64104700D01*
X35670500Y-64083751D01*
X35457803Y-64104700D01*
X35253280Y-64166741D01*
X35064790Y-64267491D01*
X34899578Y-64403078D01*
X34763991Y-64568290D01*
X34663241Y-64756781D01*
X34601200Y-64961304D01*
X34585500Y-65120707D01*
X34585500Y-66027294D01*
X34601200Y-66186697D01*
X34663242Y-66391220D01*
X34763992Y-66579710D01*
X34821678Y-66650000D01*
X28607279Y-66650000D01*
X28457131Y-66635278D01*
X28343754Y-66601047D01*
X28239183Y-66545446D01*
X28147405Y-66470594D01*
X28071909Y-66379335D01*
X28015581Y-66275160D01*
X27980560Y-66162024D01*
X27976760Y-66125867D01*
X28218109Y-66211481D01*
X28448000Y-66090814D01*
X28448000Y-64897000D01*
X28702000Y-64897000D01*
X28702000Y-66090814D01*
X28931891Y-66211481D01*
X29206252Y-66114157D01*
X29456355Y-65965178D01*
X29672588Y-65770269D01*
X29846641Y-65536920D01*
X29971825Y-65274099D01*
X30016476Y-65126890D01*
X29895155Y-64897000D01*
X28702000Y-64897000D01*
X28448000Y-64897000D01*
X28428000Y-64897000D01*
X28428000Y-64643000D01*
X28448000Y-64643000D01*
X28448000Y-64623000D01*
X28702000Y-64623000D01*
X28702000Y-64643000D01*
X29895155Y-64643000D01*
X30016476Y-64413110D01*
X29971825Y-64265901D01*
X29846641Y-64003080D01*
X29672588Y-63769731D01*
X29456355Y-63574822D01*
X29339466Y-63505195D01*
X29521632Y-63383475D01*
X29728475Y-63176632D01*
X29890990Y-62933411D01*
X30002932Y-62663158D01*
X30060000Y-62376260D01*
X30060000Y-62083740D01*
X30002932Y-61796842D01*
X29890990Y-61526589D01*
X29728475Y-61283368D01*
X29521632Y-61076525D01*
X29347240Y-60960000D01*
X29521632Y-60843475D01*
X29728475Y-60636632D01*
X29890990Y-60393411D01*
X30002932Y-60123158D01*
X30060000Y-59836260D01*
X30060000Y-59543740D01*
X30016209Y-59323592D01*
X32261003Y-57078799D01*
X32290001Y-57055001D01*
X32339243Y-56995000D01*
X32384974Y-56939277D01*
X32455546Y-56807247D01*
X32458592Y-56797205D01*
X32499003Y-56663986D01*
X32510000Y-56552333D01*
X32510000Y-56552324D01*
X32513676Y-56515001D01*
X32510000Y-56477678D01*
X32510000Y-53990000D01*
X34396928Y-53990000D01*
X34409188Y-54114482D01*
X34445498Y-54234180D01*
X34504463Y-54344494D01*
X34583815Y-54441185D01*
X34680506Y-54520537D01*
X34790820Y-54579502D01*
X34910518Y-54615812D01*
X35035000Y-54628072D01*
X35274250Y-54625000D01*
X35433000Y-54466250D01*
X35433000Y-53467000D01*
X34558750Y-53467000D01*
X34400000Y-53625750D01*
X34396928Y-53990000D01*
X32510000Y-53990000D01*
X32510000Y-53078743D01*
X34396928Y-51191815D01*
X34396928Y-51790001D01*
G37*
%TD.AperFunction*%
D23*
X40620498Y-56305820D02*
X40584188Y-56425518D01*
X40571928Y-56550000D01*
X40575000Y-56864250D01*
X40733750Y-57023000D01*
X41783000Y-57023000D01*
X41783000Y-57003000D01*
X42037000Y-57003000D01*
X42037000Y-57023000D01*
X42057000Y-57023000D01*
X42057000Y-57277000D01*
X42037000Y-57277000D01*
X42037000Y-57297000D01*
X41783000Y-57297000D01*
X41783000Y-57277000D01*
X40733750Y-57277000D01*
X40575000Y-57435750D01*
X40571928Y-57750000D01*
X40584188Y-57874482D01*
X40620498Y-57994180D01*
X40679463Y-58104494D01*
X40758815Y-58201185D01*
X40788276Y-58225363D01*
X40721595Y-58306613D01*
X40674160Y-58395358D01*
X40069103Y-57790302D01*
X40073072Y-57750000D01*
X40070000Y-57435750D01*
X39911250Y-57277000D01*
X38862000Y-57277000D01*
X38862000Y-57297000D01*
X38608000Y-57297000D01*
X38608000Y-57277000D01*
X38588000Y-57277000D01*
X38588000Y-57023000D01*
X38608000Y-57023000D01*
X38608000Y-57003000D01*
X38862000Y-57003000D01*
X38862000Y-57023000D01*
X39911250Y-57023000D01*
X40070000Y-56864250D01*
X40073072Y-56550000D01*
X40060812Y-56425518D01*
X40024502Y-56305820D01*
X39993635Y-56248072D01*
X40651365Y-56248072D01*
X40620498Y-56305820D01*
%TA.AperFunction,Conductor*%
D24*
G36*
X40620498Y-56305820D02*
G01*
X40584188Y-56425518D01*
X40571928Y-56550000D01*
X40575000Y-56864250D01*
X40733750Y-57023000D01*
X41783000Y-57023000D01*
X41783000Y-57003000D01*
X42037000Y-57003000D01*
X42037000Y-57023000D01*
X42057000Y-57023000D01*
X42057000Y-57277000D01*
X42037000Y-57277000D01*
X42037000Y-57297000D01*
X41783000Y-57297000D01*
X41783000Y-57277000D01*
X40733750Y-57277000D01*
X40575000Y-57435750D01*
X40571928Y-57750000D01*
X40584188Y-57874482D01*
X40620498Y-57994180D01*
X40679463Y-58104494D01*
X40758815Y-58201185D01*
X40788276Y-58225363D01*
X40721595Y-58306613D01*
X40674160Y-58395358D01*
X40069103Y-57790302D01*
X40073072Y-57750000D01*
X40070000Y-57435750D01*
X39911250Y-57277000D01*
X38862000Y-57277000D01*
X38862000Y-57297000D01*
X38608000Y-57297000D01*
X38608000Y-57277000D01*
X38588000Y-57277000D01*
X38588000Y-57023000D01*
X38608000Y-57023000D01*
X38608000Y-57003000D01*
X38862000Y-57003000D01*
X38862000Y-57023000D01*
X39911250Y-57023000D01*
X40070000Y-56864250D01*
X40073072Y-56550000D01*
X40060812Y-56425518D01*
X40024502Y-56305820D01*
X39993635Y-56248072D01*
X40651365Y-56248072D01*
X40620498Y-56305820D01*
G37*
%TD.AperFunction*%
D23*
X42672000Y-54483000D02*
X42692000Y-54483000D01*
X42692000Y-54737000D01*
X42672000Y-54737000D01*
X42672000Y-54757000D01*
X42418000Y-54757000D01*
X42418000Y-54737000D01*
X42398000Y-54737000D01*
X42398000Y-54483000D01*
X42418000Y-54483000D01*
X42418000Y-54463000D01*
X42672000Y-54463000D01*
X42672000Y-54483000D01*
%TA.AperFunction,Conductor*%
D24*
G36*
X42672000Y-54483000D02*
G01*
X42692000Y-54483000D01*
X42692000Y-54737000D01*
X42672000Y-54737000D01*
X42672000Y-54757000D01*
X42418000Y-54757000D01*
X42418000Y-54737000D01*
X42398000Y-54737000D01*
X42398000Y-54483000D01*
X42418000Y-54483000D01*
X42418000Y-54463000D01*
X42672000Y-54463000D01*
X42672000Y-54483000D01*
G37*
%TD.AperFunction*%
D23*
X29995000Y-19789250D02*
X30153750Y-19948000D01*
X31253000Y-19948000D01*
X31253000Y-19928000D01*
X31507000Y-19928000D01*
X31507000Y-19948000D01*
X32606250Y-19948000D01*
X32765000Y-19789250D01*
X32766482Y-19710000D01*
X47265750Y-19710000D01*
X47403750Y-19848000D01*
X48503000Y-19848000D01*
X48503000Y-19828000D01*
X48757000Y-19828000D01*
X48757000Y-19848000D01*
X49856250Y-19848000D01*
X49994250Y-19710000D01*
X51402721Y-19710000D01*
X51552869Y-19724722D01*
X51666246Y-19758953D01*
X51770819Y-19814555D01*
X51862596Y-19889407D01*
X51938091Y-19980664D01*
X51994419Y-20084844D01*
X51999708Y-20101928D01*
X50585000Y-20101928D01*
X50460518Y-20114188D01*
X50340820Y-20150498D01*
X50230506Y-20209463D01*
X50133815Y-20288815D01*
X50054463Y-20385506D01*
X50014620Y-20460045D01*
X50018072Y-20425000D01*
X50015000Y-20260750D01*
X49856250Y-20102000D01*
X48757000Y-20102000D01*
X48757000Y-20122000D01*
X48503000Y-20122000D01*
X48503000Y-20102000D01*
X47403750Y-20102000D01*
X47245000Y-20260750D01*
X47241928Y-20425000D01*
X47254188Y-20549482D01*
X47290498Y-20669180D01*
X47320335Y-20725000D01*
X47290498Y-20780820D01*
X47254188Y-20900518D01*
X47241928Y-21025000D01*
X47241928Y-21533270D01*
X46950199Y-21825000D01*
X46888061Y-21825000D01*
X46688102Y-21864774D01*
X46499744Y-21942795D01*
X46330226Y-22056063D01*
X46186063Y-22200226D01*
X46072795Y-22369744D01*
X45994774Y-22558102D01*
X45955000Y-22758061D01*
X45955000Y-22961939D01*
X45994774Y-23161898D01*
X46072795Y-23350256D01*
X46186063Y-23519774D01*
X46330226Y-23663937D01*
X46492565Y-23772408D01*
X46467762Y-23792763D01*
X46375913Y-23904681D01*
X46307663Y-24032368D01*
X46279563Y-24125000D01*
X46265635Y-24170915D01*
X46251444Y-24315000D01*
X46255000Y-24351105D01*
X46255001Y-36525552D01*
X42510808Y-40269746D01*
X42482762Y-40292763D01*
X42390913Y-40404681D01*
X42322663Y-40532368D01*
X42297748Y-40614502D01*
X42280635Y-40670915D01*
X42266444Y-40815000D01*
X42270000Y-40851105D01*
X42270000Y-41836928D01*
X41805000Y-41836928D01*
X41680518Y-41849188D01*
X41560820Y-41885498D01*
X41505000Y-41915335D01*
X41449180Y-41885498D01*
X41329482Y-41849188D01*
X41205000Y-41836928D01*
X40305000Y-41836928D01*
X40180518Y-41849188D01*
X40060820Y-41885498D01*
X40015000Y-41909990D01*
X40015000Y-41069801D01*
X42965802Y-38119000D01*
X43027939Y-38119000D01*
X43227898Y-38079226D01*
X43416256Y-38001205D01*
X43585774Y-37887937D01*
X43729937Y-37743774D01*
X43843205Y-37574256D01*
X43921226Y-37385898D01*
X43961000Y-37185939D01*
X43961000Y-36982061D01*
X43921226Y-36782102D01*
X43843205Y-36593744D01*
X43729937Y-36424226D01*
X43585774Y-36280063D01*
X43416256Y-36166795D01*
X43227898Y-36088774D01*
X43027939Y-36049000D01*
X42824061Y-36049000D01*
X42624102Y-36088774D01*
X42435744Y-36166795D01*
X42266226Y-36280063D01*
X42122063Y-36424226D01*
X42008795Y-36593744D01*
X41930774Y-36782102D01*
X41891000Y-36982061D01*
X41891000Y-37044198D01*
X38743998Y-40191201D01*
X38715000Y-40214999D01*
X38691202Y-40243997D01*
X38691201Y-40243998D01*
X38620026Y-40330724D01*
X38549454Y-40462754D01*
X38530573Y-40525000D01*
X38515000Y-40576338D01*
X38515000Y-39758282D01*
X38518676Y-39720959D01*
X38515000Y-39683636D01*
X38515000Y-39683627D01*
X38504003Y-39571974D01*
X38460546Y-39428713D01*
X38413640Y-39340959D01*
X38413640Y-39242661D01*
X38373866Y-39042702D01*
X38295845Y-38854344D01*
X38182577Y-38684826D01*
X38038414Y-38540663D01*
X37868896Y-38427395D01*
X37680538Y-38349374D01*
X37480579Y-38309600D01*
X37276701Y-38309600D01*
X37076742Y-38349374D01*
X36888384Y-38427395D01*
X36718866Y-38540663D01*
X36574703Y-38684826D01*
X36461435Y-38854344D01*
X36383414Y-39042702D01*
X36343640Y-39242661D01*
X36343640Y-39446539D01*
X36383414Y-39646498D01*
X36461435Y-39834856D01*
X36574703Y-40004374D01*
X36718866Y-40148537D01*
X36888384Y-40261805D01*
X36995001Y-40305967D01*
X36995000Y-41909990D01*
X36949180Y-41885498D01*
X36829482Y-41849188D01*
X36705000Y-41836928D01*
X35805000Y-41836928D01*
X35680518Y-41849188D01*
X35560820Y-41885498D01*
X35505000Y-41915335D01*
X35449180Y-41885498D01*
X35329482Y-41849188D01*
X35205000Y-41836928D01*
X34305000Y-41836928D01*
X34180518Y-41849188D01*
X34060820Y-41885498D01*
X34005000Y-41915335D01*
X33949180Y-41885498D01*
X33829482Y-41849188D01*
X33705000Y-41836928D01*
X33540750Y-41840000D01*
X33382000Y-41998750D01*
X33382000Y-43098000D01*
X33402000Y-43098000D01*
X33402000Y-43352000D01*
X33382000Y-43352000D01*
X33382000Y-44451250D01*
X33540750Y-44610000D01*
X33705000Y-44613072D01*
X33829482Y-44600812D01*
X33949180Y-44564502D01*
X33995000Y-44540010D01*
X33995001Y-45575197D01*
X30060000Y-49510199D01*
X30060000Y-49383740D01*
X30016209Y-49163592D01*
X31891003Y-47288799D01*
X31920001Y-47265001D01*
X31946351Y-47232893D01*
X32014974Y-47149277D01*
X32085546Y-47017247D01*
X32094914Y-46986365D01*
X32129003Y-46873986D01*
X32140000Y-46762333D01*
X32140000Y-46762324D01*
X32143676Y-46725001D01*
X32140000Y-46687678D01*
X32140000Y-43662087D01*
X32169017Y-43659229D01*
X32166928Y-43975000D01*
X32179188Y-44099482D01*
X32215498Y-44219180D01*
X32274463Y-44329494D01*
X32353815Y-44426185D01*
X32450506Y-44505537D01*
X32560820Y-44564502D01*
X32680518Y-44600812D01*
X32805000Y-44613072D01*
X32969250Y-44610000D01*
X33128000Y-44451250D01*
X33128000Y-43352000D01*
X33108000Y-43352000D01*
X33108000Y-43098000D01*
X33128000Y-43098000D01*
X33128000Y-41998750D01*
X32969250Y-41840000D01*
X32805000Y-41836928D01*
X32701490Y-41847123D01*
X32689665Y-41825000D01*
X32719502Y-41769180D01*
X32755812Y-41649482D01*
X32768072Y-41525000D01*
X32768072Y-40625000D01*
X32755812Y-40500518D01*
X32719502Y-40380820D01*
X32689665Y-40325000D01*
X32719502Y-40269180D01*
X32755812Y-40149482D01*
X32768072Y-40025000D01*
X32768072Y-39125000D01*
X32755812Y-39000518D01*
X32719502Y-38880820D01*
X32689665Y-38825000D01*
X32719502Y-38769180D01*
X32755812Y-38649482D01*
X32768072Y-38525000D01*
X32768072Y-37625000D01*
X32755812Y-37500518D01*
X32719502Y-37380820D01*
X32689665Y-37325000D01*
X32719502Y-37269180D01*
X32755812Y-37149482D01*
X32768072Y-37025000D01*
X32768072Y-36125000D01*
X32755812Y-36000518D01*
X32719502Y-35880820D01*
X32689665Y-35825000D01*
X32719502Y-35769180D01*
X32755812Y-35649482D01*
X32768072Y-35525000D01*
X32768072Y-34625000D01*
X32755812Y-34500518D01*
X32719502Y-34380820D01*
X32689665Y-34325000D01*
X32719502Y-34269180D01*
X32755812Y-34149482D01*
X32768072Y-34025000D01*
X32768072Y-33125000D01*
X32755812Y-33000518D01*
X32719502Y-32880820D01*
X32695010Y-32835000D01*
X37826680Y-32835000D01*
X37864002Y-32838676D01*
X37901324Y-32835000D01*
X37901335Y-32835000D01*
X38012988Y-32824003D01*
X38156249Y-32780546D01*
X38288278Y-32709974D01*
X38404003Y-32615001D01*
X38427805Y-32585998D01*
X39244804Y-31769000D01*
X39306941Y-31769000D01*
X39506900Y-31729226D01*
X39695258Y-31651205D01*
X39864776Y-31537937D01*
X40008939Y-31393774D01*
X40122207Y-31224256D01*
X40200228Y-31035898D01*
X40240002Y-30835939D01*
X40240002Y-30701165D01*
X40909250Y-30700000D01*
X41068000Y-30541250D01*
X41068000Y-28142000D01*
X41322000Y-28142000D01*
X41322000Y-30541250D01*
X41480750Y-30700000D01*
X43245000Y-30703072D01*
X43369482Y-30690812D01*
X43489180Y-30654502D01*
X43599494Y-30595537D01*
X43696185Y-30516185D01*
X43775537Y-30419494D01*
X43834502Y-30309180D01*
X43870812Y-30189482D01*
X43883072Y-30065000D01*
X43880000Y-28300750D01*
X43721250Y-28142000D01*
X41322000Y-28142000D01*
X41068000Y-28142000D01*
X38668750Y-28142000D01*
X38510000Y-28300750D01*
X38509304Y-28700436D01*
X38408937Y-28550226D01*
X38264774Y-28406063D01*
X38095256Y-28292795D01*
X37906898Y-28214774D01*
X37706939Y-28175000D01*
X37644802Y-28175000D01*
X35434802Y-25965000D01*
X38506928Y-25965000D01*
X38510000Y-27729250D01*
X38668750Y-27888000D01*
X41068000Y-27888000D01*
X41068000Y-25488750D01*
X41322000Y-25488750D01*
X41322000Y-27888000D01*
X43721250Y-27888000D01*
X43880000Y-27729250D01*
X43883072Y-25965000D01*
X43870812Y-25840518D01*
X43834502Y-25720820D01*
X43775537Y-25610506D01*
X43696185Y-25513815D01*
X43599494Y-25434463D01*
X43489180Y-25375498D01*
X43369482Y-25339188D01*
X43245000Y-25326928D01*
X41480750Y-25330000D01*
X41322000Y-25488750D01*
X41068000Y-25488750D01*
X40909250Y-25330000D01*
X39145000Y-25326928D01*
X39020518Y-25339188D01*
X38900820Y-25375498D01*
X38790506Y-25434463D01*
X38693815Y-25513815D01*
X38614463Y-25610506D01*
X38555498Y-25720820D01*
X38519188Y-25840518D01*
X38506928Y-25965000D01*
X35434802Y-25965000D01*
X33533804Y-24064003D01*
X33510001Y-24034999D01*
X33394276Y-23940026D01*
X33262247Y-23869454D01*
X33257543Y-23868027D01*
X33321898Y-23855226D01*
X33510256Y-23777205D01*
X33679774Y-23663937D01*
X33823937Y-23519774D01*
X33937205Y-23350256D01*
X34015226Y-23161898D01*
X34055000Y-22961939D01*
X34055000Y-22758061D01*
X34015226Y-22558102D01*
X33937205Y-22369744D01*
X33823937Y-22200226D01*
X33755261Y-22131550D01*
X33755000Y-22128904D01*
X33755000Y-22128895D01*
X33744365Y-22020915D01*
X33702337Y-21882367D01*
X33634087Y-21754680D01*
X33617514Y-21734487D01*
X33565253Y-21670806D01*
X33565250Y-21670803D01*
X33542237Y-21642762D01*
X33514197Y-21619750D01*
X32875258Y-20980812D01*
X32852238Y-20952762D01*
X32744951Y-20864713D01*
X32719502Y-20780820D01*
X32716391Y-20775000D01*
X32719502Y-20769180D01*
X32755812Y-20649482D01*
X32768072Y-20525000D01*
X32765000Y-20360750D01*
X32606250Y-20202000D01*
X31507000Y-20202000D01*
X31507000Y-20222000D01*
X31253000Y-20222000D01*
X31253000Y-20202000D01*
X30153750Y-20202000D01*
X29995000Y-20360750D01*
X29993218Y-20456002D01*
X29955537Y-20385506D01*
X29876185Y-20288815D01*
X29779494Y-20209463D01*
X29669180Y-20150498D01*
X29549482Y-20114188D01*
X29425000Y-20101928D01*
X28009976Y-20101928D01*
X28013953Y-20088754D01*
X28069555Y-19984181D01*
X28144407Y-19892404D01*
X28235664Y-19816909D01*
X28339844Y-19760581D01*
X28452976Y-19725560D01*
X28601022Y-19710000D01*
X29993518Y-19710000D01*
X29995000Y-19789250D01*
%TA.AperFunction,Conductor*%
D24*
G36*
X29995000Y-19789250D02*
G01*
X30153750Y-19948000D01*
X31253000Y-19948000D01*
X31253000Y-19928000D01*
X31507000Y-19928000D01*
X31507000Y-19948000D01*
X32606250Y-19948000D01*
X32765000Y-19789250D01*
X32766482Y-19710000D01*
X47265750Y-19710000D01*
X47403750Y-19848000D01*
X48503000Y-19848000D01*
X48503000Y-19828000D01*
X48757000Y-19828000D01*
X48757000Y-19848000D01*
X49856250Y-19848000D01*
X49994250Y-19710000D01*
X51402721Y-19710000D01*
X51552869Y-19724722D01*
X51666246Y-19758953D01*
X51770819Y-19814555D01*
X51862596Y-19889407D01*
X51938091Y-19980664D01*
X51994419Y-20084844D01*
X51999708Y-20101928D01*
X50585000Y-20101928D01*
X50460518Y-20114188D01*
X50340820Y-20150498D01*
X50230506Y-20209463D01*
X50133815Y-20288815D01*
X50054463Y-20385506D01*
X50014620Y-20460045D01*
X50018072Y-20425000D01*
X50015000Y-20260750D01*
X49856250Y-20102000D01*
X48757000Y-20102000D01*
X48757000Y-20122000D01*
X48503000Y-20122000D01*
X48503000Y-20102000D01*
X47403750Y-20102000D01*
X47245000Y-20260750D01*
X47241928Y-20425000D01*
X47254188Y-20549482D01*
X47290498Y-20669180D01*
X47320335Y-20725000D01*
X47290498Y-20780820D01*
X47254188Y-20900518D01*
X47241928Y-21025000D01*
X47241928Y-21533270D01*
X46950199Y-21825000D01*
X46888061Y-21825000D01*
X46688102Y-21864774D01*
X46499744Y-21942795D01*
X46330226Y-22056063D01*
X46186063Y-22200226D01*
X46072795Y-22369744D01*
X45994774Y-22558102D01*
X45955000Y-22758061D01*
X45955000Y-22961939D01*
X45994774Y-23161898D01*
X46072795Y-23350256D01*
X46186063Y-23519774D01*
X46330226Y-23663937D01*
X46492565Y-23772408D01*
X46467762Y-23792763D01*
X46375913Y-23904681D01*
X46307663Y-24032368D01*
X46279563Y-24125000D01*
X46265635Y-24170915D01*
X46251444Y-24315000D01*
X46255000Y-24351105D01*
X46255001Y-36525552D01*
X42510808Y-40269746D01*
X42482762Y-40292763D01*
X42390913Y-40404681D01*
X42322663Y-40532368D01*
X42297748Y-40614502D01*
X42280635Y-40670915D01*
X42266444Y-40815000D01*
X42270000Y-40851105D01*
X42270000Y-41836928D01*
X41805000Y-41836928D01*
X41680518Y-41849188D01*
X41560820Y-41885498D01*
X41505000Y-41915335D01*
X41449180Y-41885498D01*
X41329482Y-41849188D01*
X41205000Y-41836928D01*
X40305000Y-41836928D01*
X40180518Y-41849188D01*
X40060820Y-41885498D01*
X40015000Y-41909990D01*
X40015000Y-41069801D01*
X42965802Y-38119000D01*
X43027939Y-38119000D01*
X43227898Y-38079226D01*
X43416256Y-38001205D01*
X43585774Y-37887937D01*
X43729937Y-37743774D01*
X43843205Y-37574256D01*
X43921226Y-37385898D01*
X43961000Y-37185939D01*
X43961000Y-36982061D01*
X43921226Y-36782102D01*
X43843205Y-36593744D01*
X43729937Y-36424226D01*
X43585774Y-36280063D01*
X43416256Y-36166795D01*
X43227898Y-36088774D01*
X43027939Y-36049000D01*
X42824061Y-36049000D01*
X42624102Y-36088774D01*
X42435744Y-36166795D01*
X42266226Y-36280063D01*
X42122063Y-36424226D01*
X42008795Y-36593744D01*
X41930774Y-36782102D01*
X41891000Y-36982061D01*
X41891000Y-37044198D01*
X38743998Y-40191201D01*
X38715000Y-40214999D01*
X38691202Y-40243997D01*
X38691201Y-40243998D01*
X38620026Y-40330724D01*
X38549454Y-40462754D01*
X38530573Y-40525000D01*
X38515000Y-40576338D01*
X38515000Y-39758282D01*
X38518676Y-39720959D01*
X38515000Y-39683636D01*
X38515000Y-39683627D01*
X38504003Y-39571974D01*
X38460546Y-39428713D01*
X38413640Y-39340959D01*
X38413640Y-39242661D01*
X38373866Y-39042702D01*
X38295845Y-38854344D01*
X38182577Y-38684826D01*
X38038414Y-38540663D01*
X37868896Y-38427395D01*
X37680538Y-38349374D01*
X37480579Y-38309600D01*
X37276701Y-38309600D01*
X37076742Y-38349374D01*
X36888384Y-38427395D01*
X36718866Y-38540663D01*
X36574703Y-38684826D01*
X36461435Y-38854344D01*
X36383414Y-39042702D01*
X36343640Y-39242661D01*
X36343640Y-39446539D01*
X36383414Y-39646498D01*
X36461435Y-39834856D01*
X36574703Y-40004374D01*
X36718866Y-40148537D01*
X36888384Y-40261805D01*
X36995001Y-40305967D01*
X36995000Y-41909990D01*
X36949180Y-41885498D01*
X36829482Y-41849188D01*
X36705000Y-41836928D01*
X35805000Y-41836928D01*
X35680518Y-41849188D01*
X35560820Y-41885498D01*
X35505000Y-41915335D01*
X35449180Y-41885498D01*
X35329482Y-41849188D01*
X35205000Y-41836928D01*
X34305000Y-41836928D01*
X34180518Y-41849188D01*
X34060820Y-41885498D01*
X34005000Y-41915335D01*
X33949180Y-41885498D01*
X33829482Y-41849188D01*
X33705000Y-41836928D01*
X33540750Y-41840000D01*
X33382000Y-41998750D01*
X33382000Y-43098000D01*
X33402000Y-43098000D01*
X33402000Y-43352000D01*
X33382000Y-43352000D01*
X33382000Y-44451250D01*
X33540750Y-44610000D01*
X33705000Y-44613072D01*
X33829482Y-44600812D01*
X33949180Y-44564502D01*
X33995000Y-44540010D01*
X33995001Y-45575197D01*
X30060000Y-49510199D01*
X30060000Y-49383740D01*
X30016209Y-49163592D01*
X31891003Y-47288799D01*
X31920001Y-47265001D01*
X31946351Y-47232893D01*
X32014974Y-47149277D01*
X32085546Y-47017247D01*
X32094914Y-46986365D01*
X32129003Y-46873986D01*
X32140000Y-46762333D01*
X32140000Y-46762324D01*
X32143676Y-46725001D01*
X32140000Y-46687678D01*
X32140000Y-43662087D01*
X32169017Y-43659229D01*
X32166928Y-43975000D01*
X32179188Y-44099482D01*
X32215498Y-44219180D01*
X32274463Y-44329494D01*
X32353815Y-44426185D01*
X32450506Y-44505537D01*
X32560820Y-44564502D01*
X32680518Y-44600812D01*
X32805000Y-44613072D01*
X32969250Y-44610000D01*
X33128000Y-44451250D01*
X33128000Y-43352000D01*
X33108000Y-43352000D01*
X33108000Y-43098000D01*
X33128000Y-43098000D01*
X33128000Y-41998750D01*
X32969250Y-41840000D01*
X32805000Y-41836928D01*
X32701490Y-41847123D01*
X32689665Y-41825000D01*
X32719502Y-41769180D01*
X32755812Y-41649482D01*
X32768072Y-41525000D01*
X32768072Y-40625000D01*
X32755812Y-40500518D01*
X32719502Y-40380820D01*
X32689665Y-40325000D01*
X32719502Y-40269180D01*
X32755812Y-40149482D01*
X32768072Y-40025000D01*
X32768072Y-39125000D01*
X32755812Y-39000518D01*
X32719502Y-38880820D01*
X32689665Y-38825000D01*
X32719502Y-38769180D01*
X32755812Y-38649482D01*
X32768072Y-38525000D01*
X32768072Y-37625000D01*
X32755812Y-37500518D01*
X32719502Y-37380820D01*
X32689665Y-37325000D01*
X32719502Y-37269180D01*
X32755812Y-37149482D01*
X32768072Y-37025000D01*
X32768072Y-36125000D01*
X32755812Y-36000518D01*
X32719502Y-35880820D01*
X32689665Y-35825000D01*
X32719502Y-35769180D01*
X32755812Y-35649482D01*
X32768072Y-35525000D01*
X32768072Y-34625000D01*
X32755812Y-34500518D01*
X32719502Y-34380820D01*
X32689665Y-34325000D01*
X32719502Y-34269180D01*
X32755812Y-34149482D01*
X32768072Y-34025000D01*
X32768072Y-33125000D01*
X32755812Y-33000518D01*
X32719502Y-32880820D01*
X32695010Y-32835000D01*
X37826680Y-32835000D01*
X37864002Y-32838676D01*
X37901324Y-32835000D01*
X37901335Y-32835000D01*
X38012988Y-32824003D01*
X38156249Y-32780546D01*
X38288278Y-32709974D01*
X38404003Y-32615001D01*
X38427805Y-32585998D01*
X39244804Y-31769000D01*
X39306941Y-31769000D01*
X39506900Y-31729226D01*
X39695258Y-31651205D01*
X39864776Y-31537937D01*
X40008939Y-31393774D01*
X40122207Y-31224256D01*
X40200228Y-31035898D01*
X40240002Y-30835939D01*
X40240002Y-30701165D01*
X40909250Y-30700000D01*
X41068000Y-30541250D01*
X41068000Y-28142000D01*
X41322000Y-28142000D01*
X41322000Y-30541250D01*
X41480750Y-30700000D01*
X43245000Y-30703072D01*
X43369482Y-30690812D01*
X43489180Y-30654502D01*
X43599494Y-30595537D01*
X43696185Y-30516185D01*
X43775537Y-30419494D01*
X43834502Y-30309180D01*
X43870812Y-30189482D01*
X43883072Y-30065000D01*
X43880000Y-28300750D01*
X43721250Y-28142000D01*
X41322000Y-28142000D01*
X41068000Y-28142000D01*
X38668750Y-28142000D01*
X38510000Y-28300750D01*
X38509304Y-28700436D01*
X38408937Y-28550226D01*
X38264774Y-28406063D01*
X38095256Y-28292795D01*
X37906898Y-28214774D01*
X37706939Y-28175000D01*
X37644802Y-28175000D01*
X35434802Y-25965000D01*
X38506928Y-25965000D01*
X38510000Y-27729250D01*
X38668750Y-27888000D01*
X41068000Y-27888000D01*
X41068000Y-25488750D01*
X41322000Y-25488750D01*
X41322000Y-27888000D01*
X43721250Y-27888000D01*
X43880000Y-27729250D01*
X43883072Y-25965000D01*
X43870812Y-25840518D01*
X43834502Y-25720820D01*
X43775537Y-25610506D01*
X43696185Y-25513815D01*
X43599494Y-25434463D01*
X43489180Y-25375498D01*
X43369482Y-25339188D01*
X43245000Y-25326928D01*
X41480750Y-25330000D01*
X41322000Y-25488750D01*
X41068000Y-25488750D01*
X40909250Y-25330000D01*
X39145000Y-25326928D01*
X39020518Y-25339188D01*
X38900820Y-25375498D01*
X38790506Y-25434463D01*
X38693815Y-25513815D01*
X38614463Y-25610506D01*
X38555498Y-25720820D01*
X38519188Y-25840518D01*
X38506928Y-25965000D01*
X35434802Y-25965000D01*
X33533804Y-24064003D01*
X33510001Y-24034999D01*
X33394276Y-23940026D01*
X33262247Y-23869454D01*
X33257543Y-23868027D01*
X33321898Y-23855226D01*
X33510256Y-23777205D01*
X33679774Y-23663937D01*
X33823937Y-23519774D01*
X33937205Y-23350256D01*
X34015226Y-23161898D01*
X34055000Y-22961939D01*
X34055000Y-22758061D01*
X34015226Y-22558102D01*
X33937205Y-22369744D01*
X33823937Y-22200226D01*
X33755261Y-22131550D01*
X33755000Y-22128904D01*
X33755000Y-22128895D01*
X33744365Y-22020915D01*
X33702337Y-21882367D01*
X33634087Y-21754680D01*
X33617514Y-21734487D01*
X33565253Y-21670806D01*
X33565250Y-21670803D01*
X33542237Y-21642762D01*
X33514197Y-21619750D01*
X32875258Y-20980812D01*
X32852238Y-20952762D01*
X32744951Y-20864713D01*
X32719502Y-20780820D01*
X32716391Y-20775000D01*
X32719502Y-20769180D01*
X32755812Y-20649482D01*
X32768072Y-20525000D01*
X32765000Y-20360750D01*
X32606250Y-20202000D01*
X31507000Y-20202000D01*
X31507000Y-20222000D01*
X31253000Y-20222000D01*
X31253000Y-20202000D01*
X30153750Y-20202000D01*
X29995000Y-20360750D01*
X29993218Y-20456002D01*
X29955537Y-20385506D01*
X29876185Y-20288815D01*
X29779494Y-20209463D01*
X29669180Y-20150498D01*
X29549482Y-20114188D01*
X29425000Y-20101928D01*
X28009976Y-20101928D01*
X28013953Y-20088754D01*
X28069555Y-19984181D01*
X28144407Y-19892404D01*
X28235664Y-19816909D01*
X28339844Y-19760581D01*
X28452976Y-19725560D01*
X28601022Y-19710000D01*
X29993518Y-19710000D01*
X29995000Y-19789250D01*
G37*
%TD.AperFunction*%
%TD*%
M02*
