M48
; DRILL file {KiCad (5.1.8-0-10_14)} date Thursday, July 01, 2021 at 11:52:45 PM
; FORMAT={-:-/ absolute / inch / decimal}
; #@! TF.CreationDate,2021-07-01T23:52:45-05:00
; #@! TF.GenerationSoftware,Kicad,Pcbnew,(5.1.8-0-10_14)
FMAT,2
INCH
T1C0.0157
T2C0.0236
T3C0.0394
%
G90
G05
T1
X1.3Y-2.3
X1.3Y-0.9
X1.3Y-1.8
X1.3Y-2.1
X1.4716Y-1.549
X1.4724Y-2.2256
X1.4805Y-1.15
X1.525Y-2.25
X1.5435Y-1.21
X1.6Y-1.22
X1.675Y-2.15
X1.675Y-2.15
X1.69Y-1.46
X1.71Y-2.2307
X1.77Y-2.1
X1.775Y-2.2
X1.85Y-0.9
X1.85Y-1.5
X1.85Y-1.6
X1.85Y-1.8
X1.4575Y-2.41
X1.4575Y-2.4631
X1.491Y-2.41
X1.491Y-2.4631
X1.5244Y-2.41
X1.5244Y-2.4631
X1.5579Y-2.41
X1.5579Y-2.4631
X1.5914Y-2.41
X1.5914Y-2.4631
X1.6248Y-2.41
X1.6248Y-2.4631
X1.6583Y-2.41
X1.6583Y-2.4631
X1.6918Y-2.41
X1.6918Y-2.4631
T3
X1.125Y-0.85
X1.125Y-0.95
X1.125Y-1.05
X1.125Y-1.15
X1.125Y-1.25
X1.125Y-1.35
X1.125Y-1.45
X1.125Y-1.55
X1.125Y-1.65
X1.125Y-1.75
X1.125Y-1.85
X1.125Y-1.95
X1.125Y-2.05
X1.125Y-2.15
X1.125Y-2.25
X1.125Y-2.35
X1.125Y-2.45
X1.125Y-2.55
X2.025Y-0.85
X2.025Y-0.95
X2.025Y-1.05
X2.025Y-1.15
X2.025Y-1.25
X2.025Y-1.35
X2.025Y-1.45
X2.025Y-1.55
X2.025Y-1.65
X2.025Y-1.75
X2.025Y-1.85
X2.025Y-1.95
X2.025Y-2.05
X2.025Y-2.15
X2.025Y-2.25
X2.025Y-2.35
X2.025Y-2.45
X2.025Y-2.55
T2
G00X1.4044Y-2.4191
M15
G01X1.4044Y-2.4781
M16
G05
G00X1.4044Y-2.5659
M15
G01X1.4044Y-2.5974
M16
G05
G00X1.7449Y-2.4191
M15
G01X1.7449Y-2.4781
M16
G05
G00X1.7449Y-2.5659
M15
G01X1.7449Y-2.5974
M16
G05
T0
M30
