%TF.GenerationSoftware,KiCad,Pcbnew,(5.1.8-0-10_14)*%
%TF.CreationDate,2021-07-01T23:52:50-05:00*%
%TF.ProjectId,crump-s2,6372756d-702d-4733-922e-6b696361645f,rev?*%
%TF.SameCoordinates,Original*%
%TF.FileFunction,Legend,Bot*%
%TF.FilePolarity,Positive*%
%FSLAX46Y46*%
G04 Gerber Fmt 4.6, Leading zero omitted, Abs format (unit mm)*
G04 Created by KiCad (PCBNEW (5.1.8-0-10_14)) date 2021-07-01 23:52:50*
%MOMM*%
%LPD*%
G01*
G04 APERTURE LIST*
%ADD10C,0.100000*%
%ADD11C,0.010000*%
%ADD12C,0.120000*%
%ADD13C,0.150000*%
G04 APERTURE END LIST*
D10*
%TO.C,svg2mod*%
G36*
X33264158Y-64826356D02*
G01*
X33264158Y-65225454D01*
X33112710Y-65224501D01*
X32738378Y-65070196D01*
X32453580Y-65070196D01*
X32069842Y-65258791D01*
X32046178Y-65200689D01*
X32013049Y-65152111D01*
X31971109Y-65113773D01*
X31921013Y-65086389D01*
X31862762Y-65069958D01*
X31796355Y-65064481D01*
X31730394Y-65069958D01*
X31672530Y-65086389D01*
X31622762Y-65113773D01*
X31581090Y-65152111D01*
X31548169Y-65200689D01*
X31524654Y-65258791D01*
X31510545Y-65326419D01*
X31505842Y-65403571D01*
X31510545Y-65480337D01*
X31524654Y-65547756D01*
X31548169Y-65605829D01*
X31581090Y-65654555D01*
X31622762Y-65693101D01*
X31672530Y-65720635D01*
X31730394Y-65737155D01*
X31796355Y-65742661D01*
X31862762Y-65737155D01*
X31921013Y-65720635D01*
X31971109Y-65693101D01*
X32013049Y-65654555D01*
X32046178Y-65605829D01*
X32069842Y-65547756D01*
X32084040Y-65480337D01*
X32088772Y-65403571D01*
X32084040Y-65326419D01*
X32069842Y-65258791D01*
X32453580Y-65070196D01*
X32453580Y-65736946D01*
X32604075Y-65736946D01*
X32604075Y-65197831D01*
X32738378Y-65197831D01*
X32738378Y-65070196D01*
X33112710Y-65224501D01*
X32991743Y-65597881D01*
X32871728Y-65224501D01*
X32725995Y-65224501D01*
X32919353Y-65736946D01*
X33069848Y-65736946D01*
X33264158Y-65225454D01*
X33264158Y-64826356D01*
X33264237Y-64826356D01*
X33320954Y-64829143D01*
X33377125Y-64837475D01*
X33432208Y-64851272D01*
X33485674Y-64870403D01*
X33537008Y-64894682D01*
X33585714Y-64923875D01*
X33631325Y-64957702D01*
X33673400Y-64995837D01*
X33711535Y-65037912D01*
X33745362Y-65083523D01*
X33774555Y-65132229D01*
X33798834Y-65183563D01*
X33817964Y-65237029D01*
X33831762Y-65292112D01*
X33840094Y-65348283D01*
X33842881Y-65405000D01*
X33840094Y-65461717D01*
X33831762Y-65517888D01*
X33817964Y-65572971D01*
X33798834Y-65626437D01*
X33774555Y-65677771D01*
X33745362Y-65726477D01*
X33711535Y-65772088D01*
X33673400Y-65814163D01*
X33631325Y-65852298D01*
X33585714Y-65886125D01*
X33537008Y-65915318D01*
X33485674Y-65939597D01*
X33432208Y-65958728D01*
X33377125Y-65972525D01*
X32298322Y-65723611D01*
X32319277Y-65669319D01*
X32298322Y-65615026D01*
X32245935Y-65594071D01*
X32193071Y-65615026D01*
X32172592Y-65669319D01*
X32193071Y-65724088D01*
X32245935Y-65745519D01*
X32298322Y-65723611D01*
X33377125Y-65972525D01*
X33320954Y-65980857D01*
X33264237Y-65983644D01*
X33264158Y-65983644D01*
X31505842Y-65983644D01*
X31505763Y-65983644D01*
X31449046Y-65980857D01*
X31392875Y-65972525D01*
X31337792Y-65958728D01*
X31284326Y-65939597D01*
X31232992Y-65915318D01*
X31184286Y-65886125D01*
X31138675Y-65852298D01*
X31096600Y-65814163D01*
X31058465Y-65772088D01*
X31024638Y-65726477D01*
X30995445Y-65677771D01*
X30971166Y-65626437D01*
X30952036Y-65572971D01*
X30938238Y-65517888D01*
X30929906Y-65461717D01*
X30927119Y-65405000D01*
X30929906Y-65348283D01*
X30938238Y-65292112D01*
X30952036Y-65237029D01*
X30971166Y-65183563D01*
X30995445Y-65132229D01*
X31024638Y-65083523D01*
X31058465Y-65037912D01*
X31096600Y-64995837D01*
X31138675Y-64957702D01*
X31184286Y-64923875D01*
X31232992Y-64894682D01*
X31284326Y-64870403D01*
X31337792Y-64851272D01*
X31392875Y-64837475D01*
X31449046Y-64829143D01*
X31505763Y-64826356D01*
X31505842Y-64826356D01*
X33264158Y-64826356D01*
G37*
G36*
X31934467Y-65403571D02*
G01*
X31930763Y-65474109D01*
X31919651Y-65530783D01*
X31901130Y-65573593D01*
X31858267Y-65613955D01*
X31796355Y-65627409D01*
X31735871Y-65613955D01*
X31693485Y-65573593D01*
X31674964Y-65530783D01*
X31663852Y-65474109D01*
X31660147Y-65403571D01*
X31663852Y-65332557D01*
X31674964Y-65275725D01*
X31693485Y-65233074D01*
X31735871Y-65193069D01*
X31796355Y-65179734D01*
X31858267Y-65193069D01*
X31901130Y-65233074D01*
X31919651Y-65275725D01*
X31930763Y-65332557D01*
X31934467Y-65403571D01*
G37*
G36*
X46017656Y-39826406D02*
G01*
X46017656Y-40223281D01*
X45898594Y-40223281D01*
X45779531Y-40223281D01*
X45779531Y-40401875D01*
X45660469Y-40401875D01*
X45660469Y-40223281D01*
X45541406Y-40223281D01*
X45422344Y-40223281D01*
X45422344Y-40401875D01*
X45422344Y-40580469D01*
X45541406Y-40580469D01*
X45660469Y-40580469D01*
X45660469Y-40401875D01*
X45779531Y-40401875D01*
X45779531Y-40580469D01*
X45898594Y-40580469D01*
X46017656Y-40580469D01*
X46017656Y-40401875D01*
X46017656Y-40223281D01*
X46017656Y-39826406D01*
X46216094Y-39826406D01*
X46758490Y-40640000D01*
X45184219Y-40580469D01*
X45184219Y-40223281D01*
X45065156Y-40223281D01*
X44946094Y-40223281D01*
X44946094Y-40580469D01*
X44946094Y-40937656D01*
X44767500Y-40937656D01*
X44588906Y-40937656D01*
X44588906Y-40580469D01*
X44588906Y-40223281D01*
X44469844Y-40223281D01*
X44350781Y-40223281D01*
X44350781Y-40580469D01*
X44231719Y-40640000D01*
X44231719Y-40223281D01*
X44112656Y-40223281D01*
X43993594Y-40223281D01*
X43993594Y-40282812D01*
X43993594Y-40342344D01*
X43934063Y-40342344D01*
X43874531Y-40342344D01*
X43874531Y-40401875D01*
X43874531Y-40461406D01*
X43815000Y-40461406D01*
X43755469Y-40461406D01*
X43755469Y-40520937D01*
X43755469Y-40580469D01*
X43695938Y-40580469D01*
X43636406Y-40580469D01*
X43636406Y-40401875D01*
X43636406Y-40223281D01*
X43517344Y-40223281D01*
X43398281Y-40223281D01*
X43398281Y-40640000D01*
X43279219Y-40640000D01*
X43279219Y-40223281D01*
X42922031Y-40223281D01*
X42564844Y-40223281D01*
X42564844Y-40282812D01*
X42564844Y-40342344D01*
X42505313Y-40342344D01*
X42445781Y-40342344D01*
X42445781Y-40461406D01*
X42445781Y-40580469D01*
X42505313Y-40580469D01*
X42564844Y-40580469D01*
X42564844Y-40640000D01*
X42564844Y-40699531D01*
X42505313Y-40699531D01*
X42326719Y-40640000D01*
X42326719Y-40223281D01*
X41910000Y-40223281D01*
X41493281Y-40223281D01*
X41493281Y-40282812D01*
X41493281Y-40342344D01*
X41790938Y-40342344D01*
X42088594Y-40342344D01*
X42088594Y-40461406D01*
X42088594Y-40580469D01*
X41850469Y-40580469D01*
X41612344Y-40580469D01*
X41612344Y-40640000D01*
X41612344Y-40699531D01*
X41850469Y-40699531D01*
X42088594Y-40699531D01*
X42088594Y-40818594D01*
X42088594Y-40937656D01*
X41790938Y-40937656D01*
X41493281Y-40937656D01*
X41493281Y-40997188D01*
X41493281Y-41056719D01*
X41910000Y-41056719D01*
X42326719Y-41056719D01*
X42326719Y-40640000D01*
X42505313Y-40699531D01*
X42445781Y-40699531D01*
X42445781Y-40818594D01*
X42445781Y-40937656D01*
X42505313Y-40937656D01*
X42564844Y-40937656D01*
X42564844Y-40997188D01*
X42564844Y-41056719D01*
X42922031Y-41056719D01*
X43279219Y-41056719D01*
X43279219Y-40640000D01*
X43398281Y-40640000D01*
X43398281Y-41056719D01*
X43517344Y-41056719D01*
X43636406Y-41056719D01*
X43636406Y-40997188D01*
X43636406Y-40937656D01*
X43695938Y-40937656D01*
X43755469Y-40937656D01*
X43755469Y-40878125D01*
X43755469Y-40818594D01*
X43815000Y-40818594D01*
X43874531Y-40818594D01*
X43874531Y-40759063D01*
X43874531Y-40699531D01*
X43934063Y-40699531D01*
X43993594Y-40699531D01*
X43993594Y-40878125D01*
X43993594Y-41056719D01*
X44112656Y-41056719D01*
X44231719Y-41056719D01*
X44231719Y-40640000D01*
X44350781Y-40580469D01*
X44350781Y-40937656D01*
X44410313Y-40937656D01*
X44469844Y-40937656D01*
X44469844Y-40997188D01*
X44469844Y-41056719D01*
X44767500Y-41056719D01*
X45065156Y-41056719D01*
X45065156Y-40997188D01*
X45065156Y-40937656D01*
X45124688Y-40937656D01*
X45184219Y-40937656D01*
X45184219Y-40580469D01*
X46758490Y-40640000D01*
X46216094Y-41453594D01*
X46017656Y-41453594D01*
X33992344Y-41453594D01*
X36730781Y-41056719D01*
X37087969Y-41056719D01*
X37445156Y-41056719D01*
X37445156Y-40640000D01*
X37445156Y-40223281D01*
X37326094Y-40223281D01*
X37207031Y-40223281D01*
X37207031Y-40580469D01*
X37207031Y-40937656D01*
X36968906Y-40937656D01*
X36730781Y-40937656D01*
X36730781Y-40997188D01*
X36730781Y-41056719D01*
X33992344Y-41453594D01*
X33793906Y-41453594D01*
X35778281Y-40997188D01*
X35778281Y-41056719D01*
X36195000Y-41056719D01*
X36611719Y-41056719D01*
X36611719Y-40640000D01*
X36611719Y-40223281D01*
X36195000Y-40223281D01*
X35778281Y-40223281D01*
X35778281Y-40282812D01*
X35540156Y-40282812D01*
X35540156Y-40223281D01*
X35242500Y-40223281D01*
X34944844Y-40223281D01*
X34944844Y-40282812D01*
X34944844Y-40342344D01*
X34885312Y-40342344D01*
X34825781Y-40342344D01*
X34587656Y-40401875D01*
X34587656Y-40223281D01*
X34468594Y-40223281D01*
X34349531Y-40223281D01*
X34349531Y-40401875D01*
X34230469Y-40401875D01*
X34230469Y-40223281D01*
X34111406Y-40223281D01*
X33992344Y-40223281D01*
X33992344Y-40401875D01*
X33992344Y-40580469D01*
X34111406Y-40580469D01*
X34230469Y-40580469D01*
X34230469Y-40401875D01*
X34349531Y-40401875D01*
X34349531Y-40580469D01*
X34468594Y-40580469D01*
X34587656Y-40580469D01*
X34587656Y-40401875D01*
X34825781Y-40342344D01*
X34825781Y-40461406D01*
X34825781Y-40580469D01*
X34885312Y-40580469D01*
X34944844Y-40580469D01*
X34944844Y-40640000D01*
X34944844Y-40699531D01*
X35004375Y-40699531D01*
X35063906Y-40699531D01*
X35063906Y-40759063D01*
X35063906Y-40818594D01*
X35242500Y-40818594D01*
X35421094Y-40818594D01*
X35421094Y-40759063D01*
X35421094Y-40699531D01*
X35302031Y-40699531D01*
X35182969Y-40699531D01*
X35182969Y-40640000D01*
X35182969Y-40580469D01*
X35123437Y-40580469D01*
X35063906Y-40580469D01*
X35063906Y-40520937D01*
X35063906Y-40461406D01*
X35242500Y-40461406D01*
X35421094Y-40461406D01*
X35421094Y-40520937D01*
X35421094Y-40580469D01*
X35540156Y-40580469D01*
X35659219Y-40580469D01*
X35659219Y-40461406D01*
X35659219Y-40342344D01*
X35599687Y-40342344D01*
X35540156Y-40342344D01*
X35540156Y-40282812D01*
X35778281Y-40282812D01*
X35778281Y-40342344D01*
X36075937Y-40342344D01*
X36373594Y-40342344D01*
X36373594Y-40461406D01*
X36373594Y-40580469D01*
X36135469Y-40580469D01*
X35897344Y-40580469D01*
X35897344Y-40640000D01*
X35897344Y-40699531D01*
X36135469Y-40699531D01*
X36373594Y-40699531D01*
X36373594Y-40818594D01*
X36373594Y-40937656D01*
X36075937Y-40937656D01*
X35778281Y-40937656D01*
X35778281Y-40997188D01*
X33793906Y-41453594D01*
X33251510Y-40640000D01*
X35063906Y-40937656D01*
X35063906Y-40997188D01*
X35063906Y-41056719D01*
X35242500Y-41056719D01*
X35421094Y-41056719D01*
X35421094Y-40997188D01*
X35421094Y-40937656D01*
X35242500Y-40937656D01*
X35063906Y-40937656D01*
X33251510Y-40640000D01*
X33793906Y-39826406D01*
X40778906Y-40223281D01*
X40778906Y-40282812D01*
X40778906Y-40342344D01*
X40719375Y-40342344D01*
X40659844Y-40342344D01*
X40302656Y-40282812D01*
X40302656Y-40223281D01*
X39945469Y-40223281D01*
X39588281Y-40223281D01*
X39588281Y-40282812D01*
X39231094Y-40282812D01*
X39231094Y-40223281D01*
X39052500Y-40223281D01*
X38873906Y-40223281D01*
X38873906Y-40282812D01*
X38873906Y-40342344D01*
X38814375Y-40342344D01*
X38754844Y-40342344D01*
X38754844Y-40401875D01*
X38754844Y-40461406D01*
X38695312Y-40461406D01*
X38635781Y-40461406D01*
X38516719Y-40640000D01*
X38516719Y-40223281D01*
X38159531Y-40223281D01*
X37802344Y-40223281D01*
X37802344Y-40282812D01*
X37802344Y-40342344D01*
X37742812Y-40342344D01*
X37683281Y-40342344D01*
X37683281Y-40461406D01*
X37683281Y-40580469D01*
X37742812Y-40580469D01*
X37802344Y-40580469D01*
X37802344Y-40640000D01*
X37802344Y-40699531D01*
X37742812Y-40699531D01*
X37683281Y-40699531D01*
X37683281Y-40818594D01*
X37683281Y-40937656D01*
X37742812Y-40937656D01*
X37802344Y-40937656D01*
X37802344Y-40997188D01*
X37802344Y-41056719D01*
X38159531Y-41056719D01*
X38516719Y-41056719D01*
X38516719Y-40640000D01*
X38635781Y-40461406D01*
X38635781Y-40759063D01*
X38635781Y-41056719D01*
X38754844Y-41056719D01*
X38873906Y-41056719D01*
X38873906Y-40937656D01*
X38873906Y-40818594D01*
X39052500Y-40818594D01*
X39231094Y-40818594D01*
X39231094Y-40937656D01*
X39231094Y-41056719D01*
X39350156Y-41056719D01*
X39469219Y-41056719D01*
X39469219Y-40759063D01*
X39469219Y-40461406D01*
X39409687Y-40461406D01*
X39350156Y-40461406D01*
X39350156Y-40401875D01*
X39350156Y-40342344D01*
X39290625Y-40342344D01*
X39231094Y-40342344D01*
X39231094Y-40282812D01*
X39588281Y-40282812D01*
X39588281Y-40342344D01*
X39707344Y-40342344D01*
X39826406Y-40342344D01*
X39826406Y-40699531D01*
X39826406Y-41056719D01*
X39945469Y-41056719D01*
X40064531Y-41056719D01*
X40064531Y-40699531D01*
X40064531Y-40342344D01*
X40183594Y-40342344D01*
X40302656Y-40342344D01*
X40302656Y-40282812D01*
X40659844Y-40342344D01*
X40659844Y-40401875D01*
X40659844Y-40461406D01*
X40600313Y-40461406D01*
X40540781Y-40461406D01*
X40540781Y-40759063D01*
X40540781Y-41056719D01*
X40659844Y-41056719D01*
X40778906Y-41056719D01*
X40778906Y-40937656D01*
X40778906Y-40818594D01*
X40957500Y-40818594D01*
X41136094Y-40818594D01*
X41136094Y-40937656D01*
X41136094Y-41056719D01*
X41255156Y-41056719D01*
X41374219Y-41056719D01*
X41374219Y-40759063D01*
X41374219Y-40461406D01*
X41314688Y-40461406D01*
X41255156Y-40461406D01*
X41255156Y-40401875D01*
X41255156Y-40342344D01*
X41195625Y-40342344D01*
X41136094Y-40342344D01*
X41136094Y-40282812D01*
X41136094Y-40223281D01*
X40957500Y-40223281D01*
X40778906Y-40223281D01*
X33793906Y-39826406D01*
X33992344Y-39826406D01*
X46017656Y-39826406D01*
G37*
G36*
X40897969Y-40401875D02*
G01*
X40897969Y-40342344D01*
X40957500Y-40342344D01*
X41017031Y-40342344D01*
X41017031Y-40401875D01*
X41017031Y-40461406D01*
X41076563Y-40461406D01*
X41136094Y-40461406D01*
X41136094Y-40580469D01*
X41136094Y-40699531D01*
X40957500Y-40699531D01*
X40778906Y-40699531D01*
X40778906Y-40580469D01*
X40778906Y-40461406D01*
X40838438Y-40461406D01*
X40897969Y-40461406D01*
X40897969Y-40401875D01*
G37*
G36*
X38992969Y-40401875D02*
G01*
X38992969Y-40342344D01*
X39052500Y-40342344D01*
X39112031Y-40342344D01*
X39112031Y-40401875D01*
X39112031Y-40461406D01*
X39171562Y-40461406D01*
X39231094Y-40461406D01*
X39231094Y-40580469D01*
X39231094Y-40699531D01*
X39052500Y-40699531D01*
X38873906Y-40699531D01*
X38873906Y-40580469D01*
X38873906Y-40461406D01*
X38933437Y-40461406D01*
X38992969Y-40461406D01*
X38992969Y-40401875D01*
G37*
G36*
X42683906Y-40461406D02*
G01*
X42683906Y-40342344D01*
X42862500Y-40342344D01*
X43041094Y-40342344D01*
X43041094Y-40461406D01*
X43041094Y-40580469D01*
X42862500Y-40580469D01*
X42683906Y-40580469D01*
X42683906Y-40461406D01*
G37*
G36*
X42683906Y-40818594D02*
G01*
X42683906Y-40699531D01*
X42862500Y-40699531D01*
X43041094Y-40699531D01*
X43041094Y-40818594D01*
X43041094Y-40937656D01*
X42862500Y-40937656D01*
X42683906Y-40937656D01*
X42683906Y-40818594D01*
G37*
G36*
X37921406Y-40461406D02*
G01*
X37921406Y-40342344D01*
X38100000Y-40342344D01*
X38278594Y-40342344D01*
X38278594Y-40461406D01*
X38278594Y-40580469D01*
X38100000Y-40580469D01*
X37921406Y-40580469D01*
X37921406Y-40461406D01*
G37*
G36*
X37921406Y-40818594D02*
G01*
X37921406Y-40699531D01*
X38100000Y-40699531D01*
X38278594Y-40699531D01*
X38278594Y-40818594D01*
X38278594Y-40937656D01*
X38100000Y-40937656D01*
X37921406Y-40937656D01*
X37921406Y-40818594D01*
G37*
D11*
%TO.C,G\u002A\u002A\u002A*%
G36*
X33459615Y-37220769D02*
G01*
X34241154Y-37220769D01*
X34241154Y-37416154D01*
X35413461Y-37416154D01*
X35413461Y-37611539D01*
X35022692Y-37611539D01*
X35022692Y-37806923D01*
X37758077Y-37806923D01*
X37758077Y-38002308D01*
X38148846Y-38002308D01*
X38148846Y-38197692D01*
X41079615Y-38197692D01*
X41079615Y-38002308D01*
X43033461Y-38002308D01*
X43033461Y-37806923D01*
X44401154Y-37806923D01*
X44401154Y-37611539D01*
X44987307Y-37611539D01*
X44987307Y-37416154D01*
X45182692Y-37416154D01*
X45182692Y-37220769D01*
X45378077Y-37220769D01*
X45378077Y-37025385D01*
X45964231Y-37025385D01*
X45964231Y-36634616D01*
X33459615Y-36634616D01*
X33459615Y-37220769D01*
G37*
X33459615Y-37220769D02*
X34241154Y-37220769D01*
X34241154Y-37416154D01*
X35413461Y-37416154D01*
X35413461Y-37611539D01*
X35022692Y-37611539D01*
X35022692Y-37806923D01*
X37758077Y-37806923D01*
X37758077Y-38002308D01*
X38148846Y-38002308D01*
X38148846Y-38197692D01*
X41079615Y-38197692D01*
X41079615Y-38002308D01*
X43033461Y-38002308D01*
X43033461Y-37806923D01*
X44401154Y-37806923D01*
X44401154Y-37611539D01*
X44987307Y-37611539D01*
X44987307Y-37416154D01*
X45182692Y-37416154D01*
X45182692Y-37220769D01*
X45378077Y-37220769D01*
X45378077Y-37025385D01*
X45964231Y-37025385D01*
X45964231Y-36634616D01*
X33459615Y-36634616D01*
X33459615Y-37220769D01*
G36*
X34436538Y-32922308D02*
G01*
X34241154Y-32922308D01*
X34241154Y-32726923D01*
X33655000Y-32726923D01*
X33655000Y-33117692D01*
X33850384Y-33117692D01*
X33850384Y-33508462D01*
X34045769Y-33508462D01*
X34045769Y-33899231D01*
X34241154Y-33899231D01*
X34241154Y-34094616D01*
X33655000Y-34094616D01*
X33655000Y-34485385D01*
X34241154Y-34485385D01*
X34241154Y-35071539D01*
X35413461Y-35071539D01*
X35413461Y-35266923D01*
X35804231Y-35266923D01*
X35804231Y-34485385D01*
X35999615Y-34485385D01*
X35999615Y-34290000D01*
X36195000Y-34290000D01*
X36195000Y-33508462D01*
X35804231Y-33508462D01*
X35804231Y-33899231D01*
X35608846Y-33899231D01*
X35608846Y-34094616D01*
X35413461Y-34094616D01*
X34631923Y-34094616D01*
X34631923Y-34290000D01*
X34436538Y-34290000D01*
X34436538Y-34094616D01*
X34631923Y-34094616D01*
X35413461Y-34094616D01*
X35413461Y-33703846D01*
X35218077Y-33703846D01*
X35218077Y-33508462D01*
X35804231Y-33508462D01*
X36195000Y-33508462D01*
X36585769Y-33508462D01*
X36585769Y-33313077D01*
X36195000Y-33313077D01*
X36195000Y-33117692D01*
X36585769Y-33117692D01*
X36585769Y-32922308D01*
X36390384Y-32922308D01*
X36390384Y-32726923D01*
X35804231Y-32726923D01*
X35804231Y-33313077D01*
X35218077Y-33313077D01*
X35218077Y-33117692D01*
X34827307Y-33117692D01*
X34827307Y-32922308D01*
X35022692Y-32922308D01*
X35022692Y-32531539D01*
X34436538Y-32531539D01*
X34436538Y-32922308D01*
G37*
X34436538Y-32922308D02*
X34241154Y-32922308D01*
X34241154Y-32726923D01*
X33655000Y-32726923D01*
X33655000Y-33117692D01*
X33850384Y-33117692D01*
X33850384Y-33508462D01*
X34045769Y-33508462D01*
X34045769Y-33899231D01*
X34241154Y-33899231D01*
X34241154Y-34094616D01*
X33655000Y-34094616D01*
X33655000Y-34485385D01*
X34241154Y-34485385D01*
X34241154Y-35071539D01*
X35413461Y-35071539D01*
X35413461Y-35266923D01*
X35804231Y-35266923D01*
X35804231Y-34485385D01*
X35999615Y-34485385D01*
X35999615Y-34290000D01*
X36195000Y-34290000D01*
X36195000Y-33508462D01*
X35804231Y-33508462D01*
X35804231Y-33899231D01*
X35608846Y-33899231D01*
X35608846Y-34094616D01*
X35413461Y-34094616D01*
X34631923Y-34094616D01*
X34631923Y-34290000D01*
X34436538Y-34290000D01*
X34436538Y-34094616D01*
X34631923Y-34094616D01*
X35413461Y-34094616D01*
X35413461Y-33703846D01*
X35218077Y-33703846D01*
X35218077Y-33508462D01*
X35804231Y-33508462D01*
X36195000Y-33508462D01*
X36585769Y-33508462D01*
X36585769Y-33313077D01*
X36195000Y-33313077D01*
X36195000Y-33117692D01*
X36585769Y-33117692D01*
X36585769Y-32922308D01*
X36390384Y-32922308D01*
X36390384Y-32726923D01*
X35804231Y-32726923D01*
X35804231Y-33313077D01*
X35218077Y-33313077D01*
X35218077Y-33117692D01*
X34827307Y-33117692D01*
X34827307Y-32922308D01*
X35022692Y-32922308D01*
X35022692Y-32531539D01*
X34436538Y-32531539D01*
X34436538Y-32922308D01*
G36*
X41079615Y-32922308D02*
G01*
X41275000Y-32922308D01*
X41275000Y-33117692D01*
X41470384Y-33117692D01*
X41470384Y-33313077D01*
X41665769Y-33313077D01*
X41665769Y-33508462D01*
X41275000Y-33508462D01*
X41275000Y-33703846D01*
X41665769Y-33703846D01*
X41665769Y-33899231D01*
X41470384Y-33899231D01*
X41470384Y-34094616D01*
X41861154Y-34094616D01*
X41861154Y-33899231D01*
X42251923Y-33899231D01*
X42251923Y-34094616D01*
X42447307Y-34094616D01*
X42447307Y-34290000D01*
X43424231Y-34290000D01*
X43424231Y-34485385D01*
X44205769Y-34485385D01*
X44205769Y-34680769D01*
X44010384Y-34680769D01*
X44010384Y-34876154D01*
X46550384Y-34876154D01*
X46550384Y-34680769D01*
X45768846Y-34680769D01*
X45768846Y-34485385D01*
X45182692Y-34485385D01*
X45182692Y-34290000D01*
X45573461Y-34290000D01*
X45573461Y-34094616D01*
X45964231Y-34094616D01*
X45964231Y-33899231D01*
X45573461Y-33899231D01*
X45573461Y-33703846D01*
X44987307Y-33703846D01*
X44987307Y-33508462D01*
X43815000Y-33508462D01*
X43815000Y-33703846D01*
X43424231Y-33703846D01*
X43424231Y-33899231D01*
X42642692Y-33899231D01*
X42642692Y-33703846D01*
X42447307Y-33703846D01*
X42447307Y-33508462D01*
X42838077Y-33508462D01*
X42838077Y-33313077D01*
X42447307Y-33313077D01*
X42447307Y-33117692D01*
X42251923Y-33117692D01*
X42251923Y-33313077D01*
X41861154Y-33313077D01*
X41861154Y-33117692D01*
X42251923Y-33117692D01*
X42251923Y-32922308D01*
X41470384Y-32922308D01*
X41470384Y-32726923D01*
X41079615Y-32726923D01*
X41079615Y-32922308D01*
G37*
X41079615Y-32922308D02*
X41275000Y-32922308D01*
X41275000Y-33117692D01*
X41470384Y-33117692D01*
X41470384Y-33313077D01*
X41665769Y-33313077D01*
X41665769Y-33508462D01*
X41275000Y-33508462D01*
X41275000Y-33703846D01*
X41665769Y-33703846D01*
X41665769Y-33899231D01*
X41470384Y-33899231D01*
X41470384Y-34094616D01*
X41861154Y-34094616D01*
X41861154Y-33899231D01*
X42251923Y-33899231D01*
X42251923Y-34094616D01*
X42447307Y-34094616D01*
X42447307Y-34290000D01*
X43424231Y-34290000D01*
X43424231Y-34485385D01*
X44205769Y-34485385D01*
X44205769Y-34680769D01*
X44010384Y-34680769D01*
X44010384Y-34876154D01*
X46550384Y-34876154D01*
X46550384Y-34680769D01*
X45768846Y-34680769D01*
X45768846Y-34485385D01*
X45182692Y-34485385D01*
X45182692Y-34290000D01*
X45573461Y-34290000D01*
X45573461Y-34094616D01*
X45964231Y-34094616D01*
X45964231Y-33899231D01*
X45573461Y-33899231D01*
X45573461Y-33703846D01*
X44987307Y-33703846D01*
X44987307Y-33508462D01*
X43815000Y-33508462D01*
X43815000Y-33703846D01*
X43424231Y-33703846D01*
X43424231Y-33899231D01*
X42642692Y-33899231D01*
X42642692Y-33703846D01*
X42447307Y-33703846D01*
X42447307Y-33508462D01*
X42838077Y-33508462D01*
X42838077Y-33313077D01*
X42447307Y-33313077D01*
X42447307Y-33117692D01*
X42251923Y-33117692D01*
X42251923Y-33313077D01*
X41861154Y-33313077D01*
X41861154Y-33117692D01*
X42251923Y-33117692D01*
X42251923Y-32922308D01*
X41470384Y-32922308D01*
X41470384Y-32726923D01*
X41079615Y-32726923D01*
X41079615Y-32922308D01*
G36*
X44487495Y-46781297D02*
G01*
X44474856Y-46790881D01*
X44459831Y-46810549D01*
X44440096Y-46843324D01*
X44414502Y-46890033D01*
X44390853Y-46932745D01*
X44370407Y-46967108D01*
X44355333Y-46989654D01*
X44347796Y-46996913D01*
X44347753Y-46996889D01*
X44340507Y-46986143D01*
X44326238Y-46960345D01*
X44307104Y-46923523D01*
X44288165Y-46885630D01*
X44264768Y-46838917D01*
X44247729Y-46808155D01*
X44234534Y-46790072D01*
X44222668Y-46781391D01*
X44209617Y-46778839D01*
X44206110Y-46778774D01*
X44176572Y-46778774D01*
X44176572Y-46942884D01*
X44176702Y-47005084D01*
X44177361Y-47049203D01*
X44178947Y-47078338D01*
X44181860Y-47095584D01*
X44186499Y-47104035D01*
X44193264Y-47106788D01*
X44197747Y-47106994D01*
X44206468Y-47105791D01*
X44212421Y-47099909D01*
X44216153Y-47085943D01*
X44218213Y-47060487D01*
X44219149Y-47020135D01*
X44219468Y-46972001D01*
X44220013Y-46837007D01*
X44278141Y-46951517D01*
X44305851Y-47004106D01*
X44326788Y-47038942D01*
X44342199Y-47057866D01*
X44353335Y-47062722D01*
X44353524Y-47062688D01*
X44365193Y-47052401D01*
X44383455Y-47027125D01*
X44405611Y-46990901D01*
X44424551Y-46956327D01*
X44446933Y-46914728D01*
X44466283Y-46881136D01*
X44480302Y-46859392D01*
X44486263Y-46853097D01*
X44489328Y-46862918D01*
X44491844Y-46889830D01*
X44493554Y-46929750D01*
X44494203Y-46978597D01*
X44494204Y-46979941D01*
X44494602Y-47034719D01*
X44496067Y-47071572D01*
X44499002Y-47093738D01*
X44503814Y-47104457D01*
X44510086Y-47106994D01*
X44516213Y-47104153D01*
X44520572Y-47093693D01*
X44523445Y-47072716D01*
X44525110Y-47038319D01*
X44525850Y-46987602D01*
X44525967Y-46942884D01*
X44525967Y-46778774D01*
X44500074Y-46778774D01*
X44487495Y-46781297D01*
G37*
X44487495Y-46781297D02*
X44474856Y-46790881D01*
X44459831Y-46810549D01*
X44440096Y-46843324D01*
X44414502Y-46890033D01*
X44390853Y-46932745D01*
X44370407Y-46967108D01*
X44355333Y-46989654D01*
X44347796Y-46996913D01*
X44347753Y-46996889D01*
X44340507Y-46986143D01*
X44326238Y-46960345D01*
X44307104Y-46923523D01*
X44288165Y-46885630D01*
X44264768Y-46838917D01*
X44247729Y-46808155D01*
X44234534Y-46790072D01*
X44222668Y-46781391D01*
X44209617Y-46778839D01*
X44206110Y-46778774D01*
X44176572Y-46778774D01*
X44176572Y-46942884D01*
X44176702Y-47005084D01*
X44177361Y-47049203D01*
X44178947Y-47078338D01*
X44181860Y-47095584D01*
X44186499Y-47104035D01*
X44193264Y-47106788D01*
X44197747Y-47106994D01*
X44206468Y-47105791D01*
X44212421Y-47099909D01*
X44216153Y-47085943D01*
X44218213Y-47060487D01*
X44219149Y-47020135D01*
X44219468Y-46972001D01*
X44220013Y-46837007D01*
X44278141Y-46951517D01*
X44305851Y-47004106D01*
X44326788Y-47038942D01*
X44342199Y-47057866D01*
X44353335Y-47062722D01*
X44353524Y-47062688D01*
X44365193Y-47052401D01*
X44383455Y-47027125D01*
X44405611Y-46990901D01*
X44424551Y-46956327D01*
X44446933Y-46914728D01*
X44466283Y-46881136D01*
X44480302Y-46859392D01*
X44486263Y-46853097D01*
X44489328Y-46862918D01*
X44491844Y-46889830D01*
X44493554Y-46929750D01*
X44494203Y-46978597D01*
X44494204Y-46979941D01*
X44494602Y-47034719D01*
X44496067Y-47071572D01*
X44499002Y-47093738D01*
X44503814Y-47104457D01*
X44510086Y-47106994D01*
X44516213Y-47104153D01*
X44520572Y-47093693D01*
X44523445Y-47072716D01*
X44525110Y-47038319D01*
X44525850Y-46987602D01*
X44525967Y-46942884D01*
X44525967Y-46778774D01*
X44500074Y-46778774D01*
X44487495Y-46781297D01*
G36*
X43614357Y-46780393D02*
G01*
X43604215Y-46786700D01*
X43593172Y-46800710D01*
X43579476Y-46825238D01*
X43561375Y-46863097D01*
X43537118Y-46917101D01*
X43531567Y-46929650D01*
X43508245Y-46982521D01*
X43487782Y-47029057D01*
X43471791Y-47065580D01*
X43461883Y-47088411D01*
X43459628Y-47093760D01*
X43463519Y-47104515D01*
X43476432Y-47106994D01*
X43497335Y-47097696D01*
X43517935Y-47068847D01*
X43520131Y-47064643D01*
X43541737Y-47022292D01*
X43710280Y-47022292D01*
X43731886Y-47064643D01*
X43752669Y-47095558D01*
X43773037Y-47106963D01*
X43774111Y-47106994D01*
X43788811Y-47102625D01*
X43787131Y-47087556D01*
X43780308Y-47071276D01*
X43766667Y-47039611D01*
X43747939Y-46996547D01*
X43740766Y-46980151D01*
X43689535Y-46980151D01*
X43679918Y-46985624D01*
X43654920Y-46989385D01*
X43626009Y-46990529D01*
X43586205Y-46988686D01*
X43565881Y-46982964D01*
X43562452Y-46977295D01*
X43566321Y-46960515D01*
X43576250Y-46932836D01*
X43589655Y-46900201D01*
X43603952Y-46868556D01*
X43616557Y-46843846D01*
X43624888Y-46832016D01*
X43625718Y-46831713D01*
X43632595Y-46840655D01*
X43644327Y-46863556D01*
X43658383Y-46894530D01*
X43672232Y-46927690D01*
X43683344Y-46957150D01*
X43689187Y-46977024D01*
X43689535Y-46980151D01*
X43740766Y-46980151D01*
X43725854Y-46946072D01*
X43716005Y-46923647D01*
X43691034Y-46867532D01*
X43672433Y-46828064D01*
X43658394Y-46802360D01*
X43647110Y-46787534D01*
X43636772Y-46780702D01*
X43625572Y-46778978D01*
X43625348Y-46778976D01*
X43614357Y-46780393D01*
G37*
X43614357Y-46780393D02*
X43604215Y-46786700D01*
X43593172Y-46800710D01*
X43579476Y-46825238D01*
X43561375Y-46863097D01*
X43537118Y-46917101D01*
X43531567Y-46929650D01*
X43508245Y-46982521D01*
X43487782Y-47029057D01*
X43471791Y-47065580D01*
X43461883Y-47088411D01*
X43459628Y-47093760D01*
X43463519Y-47104515D01*
X43476432Y-47106994D01*
X43497335Y-47097696D01*
X43517935Y-47068847D01*
X43520131Y-47064643D01*
X43541737Y-47022292D01*
X43710280Y-47022292D01*
X43731886Y-47064643D01*
X43752669Y-47095558D01*
X43773037Y-47106963D01*
X43774111Y-47106994D01*
X43788811Y-47102625D01*
X43787131Y-47087556D01*
X43780308Y-47071276D01*
X43766667Y-47039611D01*
X43747939Y-46996547D01*
X43740766Y-46980151D01*
X43689535Y-46980151D01*
X43679918Y-46985624D01*
X43654920Y-46989385D01*
X43626009Y-46990529D01*
X43586205Y-46988686D01*
X43565881Y-46982964D01*
X43562452Y-46977295D01*
X43566321Y-46960515D01*
X43576250Y-46932836D01*
X43589655Y-46900201D01*
X43603952Y-46868556D01*
X43616557Y-46843846D01*
X43624888Y-46832016D01*
X43625718Y-46831713D01*
X43632595Y-46840655D01*
X43644327Y-46863556D01*
X43658383Y-46894530D01*
X43672232Y-46927690D01*
X43683344Y-46957150D01*
X43689187Y-46977024D01*
X43689535Y-46980151D01*
X43740766Y-46980151D01*
X43725854Y-46946072D01*
X43716005Y-46923647D01*
X43691034Y-46867532D01*
X43672433Y-46828064D01*
X43658394Y-46802360D01*
X43647110Y-46787534D01*
X43636772Y-46780702D01*
X43625572Y-46778978D01*
X43625348Y-46778976D01*
X43614357Y-46780393D01*
G36*
X42823149Y-46779851D02*
G01*
X42820072Y-46785099D01*
X42827512Y-46797544D01*
X42847010Y-46820212D01*
X42867845Y-46842904D01*
X42895266Y-46873670D01*
X42915982Y-46899098D01*
X42926544Y-46914878D01*
X42927218Y-46917121D01*
X42921309Y-46929649D01*
X42905504Y-46954625D01*
X42882683Y-46987610D01*
X42870906Y-47003866D01*
X42839145Y-47047231D01*
X42818575Y-47076336D01*
X42807902Y-47094023D01*
X42805831Y-47103133D01*
X42811068Y-47106510D01*
X42822319Y-47106995D01*
X42823934Y-47106994D01*
X42841279Y-47101676D01*
X42862625Y-47084065D01*
X42890702Y-47051672D01*
X42905297Y-47032880D01*
X42931444Y-46999707D01*
X42953312Y-46974204D01*
X42967496Y-46960250D01*
X42970360Y-46958766D01*
X42986357Y-46967864D01*
X43004308Y-46990777D01*
X43020445Y-47020928D01*
X43031003Y-47051744D01*
X43033095Y-47068290D01*
X43035250Y-47094516D01*
X43043763Y-47105440D01*
X43054271Y-47106994D01*
X43062296Y-47105980D01*
X43067989Y-47100874D01*
X43071749Y-47088582D01*
X43073974Y-47066007D01*
X43075064Y-47030054D01*
X43075419Y-46977630D01*
X43075446Y-46942884D01*
X43075315Y-46880685D01*
X43074656Y-46836565D01*
X43073070Y-46807430D01*
X43070157Y-46790185D01*
X43065518Y-46781733D01*
X43058754Y-46778981D01*
X43054271Y-46778774D01*
X43044092Y-46780412D01*
X43037813Y-46788046D01*
X43034496Y-46805762D01*
X43033203Y-46837643D01*
X43032999Y-46871417D01*
X43032903Y-46964060D01*
X42947420Y-46871417D01*
X42906323Y-46828297D01*
X42875753Y-46799849D01*
X42853235Y-46784030D01*
X42836295Y-46778797D01*
X42835204Y-46778774D01*
X42823149Y-46779851D01*
G37*
X42823149Y-46779851D02*
X42820072Y-46785099D01*
X42827512Y-46797544D01*
X42847010Y-46820212D01*
X42867845Y-46842904D01*
X42895266Y-46873670D01*
X42915982Y-46899098D01*
X42926544Y-46914878D01*
X42927218Y-46917121D01*
X42921309Y-46929649D01*
X42905504Y-46954625D01*
X42882683Y-46987610D01*
X42870906Y-47003866D01*
X42839145Y-47047231D01*
X42818575Y-47076336D01*
X42807902Y-47094023D01*
X42805831Y-47103133D01*
X42811068Y-47106510D01*
X42822319Y-47106995D01*
X42823934Y-47106994D01*
X42841279Y-47101676D01*
X42862625Y-47084065D01*
X42890702Y-47051672D01*
X42905297Y-47032880D01*
X42931444Y-46999707D01*
X42953312Y-46974204D01*
X42967496Y-46960250D01*
X42970360Y-46958766D01*
X42986357Y-46967864D01*
X43004308Y-46990777D01*
X43020445Y-47020928D01*
X43031003Y-47051744D01*
X43033095Y-47068290D01*
X43035250Y-47094516D01*
X43043763Y-47105440D01*
X43054271Y-47106994D01*
X43062296Y-47105980D01*
X43067989Y-47100874D01*
X43071749Y-47088582D01*
X43073974Y-47066007D01*
X43075064Y-47030054D01*
X43075419Y-46977630D01*
X43075446Y-46942884D01*
X43075315Y-46880685D01*
X43074656Y-46836565D01*
X43073070Y-46807430D01*
X43070157Y-46790185D01*
X43065518Y-46781733D01*
X43058754Y-46778981D01*
X43054271Y-46778774D01*
X43044092Y-46780412D01*
X43037813Y-46788046D01*
X43034496Y-46805762D01*
X43033203Y-46837643D01*
X43032999Y-46871417D01*
X43032903Y-46964060D01*
X42947420Y-46871417D01*
X42906323Y-46828297D01*
X42875753Y-46799849D01*
X42853235Y-46784030D01*
X42836295Y-46778797D01*
X42835204Y-46778774D01*
X42823149Y-46779851D01*
G36*
X42239822Y-46779228D02*
G01*
X42205496Y-46780894D01*
X42185620Y-46784230D01*
X42176838Y-46789694D01*
X42175488Y-46794656D01*
X42179201Y-46802404D01*
X42192754Y-46807230D01*
X42219765Y-46809737D01*
X42263853Y-46810529D01*
X42270777Y-46810538D01*
X42366067Y-46810538D01*
X42366067Y-46916415D01*
X42281365Y-46916415D01*
X42239163Y-46916857D01*
X42213870Y-46918893D01*
X42201227Y-46923588D01*
X42196975Y-46932007D01*
X42196663Y-46937590D01*
X42198432Y-46948141D01*
X42206576Y-46954464D01*
X42225357Y-46957625D01*
X42259033Y-46958688D01*
X42281365Y-46958766D01*
X42366067Y-46958766D01*
X42366067Y-47064643D01*
X42270777Y-47064643D01*
X42225504Y-47064997D01*
X42197372Y-47066656D01*
X42182351Y-47070515D01*
X42176411Y-47077470D01*
X42175488Y-47085819D01*
X42176828Y-47095086D01*
X42183289Y-47101169D01*
X42198532Y-47104733D01*
X42226216Y-47106445D01*
X42270003Y-47106968D01*
X42291953Y-47106994D01*
X42408418Y-47106994D01*
X42408418Y-46778774D01*
X42291953Y-46778774D01*
X42239822Y-46779228D01*
G37*
X42239822Y-46779228D02*
X42205496Y-46780894D01*
X42185620Y-46784230D01*
X42176838Y-46789694D01*
X42175488Y-46794656D01*
X42179201Y-46802404D01*
X42192754Y-46807230D01*
X42219765Y-46809737D01*
X42263853Y-46810529D01*
X42270777Y-46810538D01*
X42366067Y-46810538D01*
X42366067Y-46916415D01*
X42281365Y-46916415D01*
X42239163Y-46916857D01*
X42213870Y-46918893D01*
X42201227Y-46923588D01*
X42196975Y-46932007D01*
X42196663Y-46937590D01*
X42198432Y-46948141D01*
X42206576Y-46954464D01*
X42225357Y-46957625D01*
X42259033Y-46958688D01*
X42281365Y-46958766D01*
X42366067Y-46958766D01*
X42366067Y-47064643D01*
X42270777Y-47064643D01*
X42225504Y-47064997D01*
X42197372Y-47066656D01*
X42182351Y-47070515D01*
X42176411Y-47077470D01*
X42175488Y-47085819D01*
X42176828Y-47095086D01*
X42183289Y-47101169D01*
X42198532Y-47104733D01*
X42226216Y-47106445D01*
X42270003Y-47106968D01*
X42291953Y-47106994D01*
X42408418Y-47106994D01*
X42408418Y-46778774D01*
X42291953Y-46778774D01*
X42239822Y-46779228D01*
G36*
X41145354Y-46779261D02*
G01*
X41112329Y-46781047D01*
X41093627Y-46784621D01*
X41085830Y-46790471D01*
X41084950Y-46794656D01*
X41088792Y-46802596D01*
X41102778Y-46807455D01*
X41130597Y-46809886D01*
X41174946Y-46810538D01*
X41264942Y-46810538D01*
X41264942Y-46916415D01*
X41185534Y-46916415D01*
X41144933Y-46916915D01*
X41121111Y-46919196D01*
X41109680Y-46924427D01*
X41106250Y-46933779D01*
X41106126Y-46937590D01*
X41108001Y-46948417D01*
X41116553Y-46954770D01*
X41136170Y-46957818D01*
X41171240Y-46958733D01*
X41185534Y-46958766D01*
X41264942Y-46958766D01*
X41264942Y-47064643D01*
X41169652Y-47064643D01*
X41124379Y-47064997D01*
X41096247Y-47066656D01*
X41081226Y-47070515D01*
X41075285Y-47077470D01*
X41074362Y-47085819D01*
X41075703Y-47095086D01*
X41082164Y-47101169D01*
X41097406Y-47104733D01*
X41125091Y-47106445D01*
X41168878Y-47106968D01*
X41190828Y-47106994D01*
X41307293Y-47106994D01*
X41307293Y-46778774D01*
X41196121Y-46778774D01*
X41145354Y-46779261D01*
G37*
X41145354Y-46779261D02*
X41112329Y-46781047D01*
X41093627Y-46784621D01*
X41085830Y-46790471D01*
X41084950Y-46794656D01*
X41088792Y-46802596D01*
X41102778Y-46807455D01*
X41130597Y-46809886D01*
X41174946Y-46810538D01*
X41264942Y-46810538D01*
X41264942Y-46916415D01*
X41185534Y-46916415D01*
X41144933Y-46916915D01*
X41121111Y-46919196D01*
X41109680Y-46924427D01*
X41106250Y-46933779D01*
X41106126Y-46937590D01*
X41108001Y-46948417D01*
X41116553Y-46954770D01*
X41136170Y-46957818D01*
X41171240Y-46958733D01*
X41185534Y-46958766D01*
X41264942Y-46958766D01*
X41264942Y-47064643D01*
X41169652Y-47064643D01*
X41124379Y-47064997D01*
X41096247Y-47066656D01*
X41081226Y-47070515D01*
X41075285Y-47077470D01*
X41074362Y-47085819D01*
X41075703Y-47095086D01*
X41082164Y-47101169D01*
X41097406Y-47104733D01*
X41125091Y-47106445D01*
X41168878Y-47106968D01*
X41190828Y-47106994D01*
X41307293Y-47106994D01*
X41307293Y-46778774D01*
X41196121Y-46778774D01*
X41145354Y-46779261D01*
G36*
X40410809Y-46782666D02*
G01*
X40407334Y-46787627D01*
X40411173Y-46800008D01*
X40421764Y-46828365D01*
X40437718Y-46869125D01*
X40457649Y-46918716D01*
X40470062Y-46949090D01*
X40494717Y-47008132D01*
X40513445Y-47050189D01*
X40527828Y-47078075D01*
X40539446Y-47094607D01*
X40549881Y-47102598D01*
X40557411Y-47104628D01*
X40567083Y-47104237D01*
X40576103Y-47098762D01*
X40585975Y-47085499D01*
X40598204Y-47061741D01*
X40614294Y-47024783D01*
X40635750Y-46971918D01*
X40647181Y-46943165D01*
X40670955Y-46882878D01*
X40687531Y-46839473D01*
X40697602Y-46810182D01*
X40701857Y-46792236D01*
X40700990Y-46782866D01*
X40695691Y-46779304D01*
X40688242Y-46778774D01*
X40677557Y-46780947D01*
X40667516Y-46789497D01*
X40656400Y-46807473D01*
X40642488Y-46837924D01*
X40624061Y-46883898D01*
X40613586Y-46911121D01*
X40594539Y-46959779D01*
X40577775Y-47000387D01*
X40564863Y-47029304D01*
X40557371Y-47042892D01*
X40556546Y-47043468D01*
X40550564Y-47034164D01*
X40538704Y-47008673D01*
X40522548Y-46970625D01*
X40503682Y-46923649D01*
X40498799Y-46911121D01*
X40476560Y-46855289D01*
X40459568Y-46816847D01*
X40446370Y-46793100D01*
X40435511Y-46781349D01*
X40427429Y-46778774D01*
X40410809Y-46782666D01*
G37*
X40410809Y-46782666D02*
X40407334Y-46787627D01*
X40411173Y-46800008D01*
X40421764Y-46828365D01*
X40437718Y-46869125D01*
X40457649Y-46918716D01*
X40470062Y-46949090D01*
X40494717Y-47008132D01*
X40513445Y-47050189D01*
X40527828Y-47078075D01*
X40539446Y-47094607D01*
X40549881Y-47102598D01*
X40557411Y-47104628D01*
X40567083Y-47104237D01*
X40576103Y-47098762D01*
X40585975Y-47085499D01*
X40598204Y-47061741D01*
X40614294Y-47024783D01*
X40635750Y-46971918D01*
X40647181Y-46943165D01*
X40670955Y-46882878D01*
X40687531Y-46839473D01*
X40697602Y-46810182D01*
X40701857Y-46792236D01*
X40700990Y-46782866D01*
X40695691Y-46779304D01*
X40688242Y-46778774D01*
X40677557Y-46780947D01*
X40667516Y-46789497D01*
X40656400Y-46807473D01*
X40642488Y-46837924D01*
X40624061Y-46883898D01*
X40613586Y-46911121D01*
X40594539Y-46959779D01*
X40577775Y-47000387D01*
X40564863Y-47029304D01*
X40557371Y-47042892D01*
X40556546Y-47043468D01*
X40550564Y-47034164D01*
X40538704Y-47008673D01*
X40522548Y-46970625D01*
X40503682Y-46923649D01*
X40498799Y-46911121D01*
X40476560Y-46855289D01*
X40459568Y-46816847D01*
X40446370Y-46793100D01*
X40435511Y-46781349D01*
X40427429Y-46778774D01*
X40410809Y-46782666D01*
G36*
X39853650Y-46779261D02*
G01*
X39820624Y-46781047D01*
X39801922Y-46784621D01*
X39794125Y-46790471D01*
X39793245Y-46794656D01*
X39797087Y-46802596D01*
X39811073Y-46807455D01*
X39838893Y-46809886D01*
X39883241Y-46810538D01*
X39973237Y-46810538D01*
X39973237Y-46916415D01*
X39888535Y-46916415D01*
X39846333Y-46916857D01*
X39821040Y-46918893D01*
X39808397Y-46923588D01*
X39804145Y-46932007D01*
X39803833Y-46937590D01*
X39805601Y-46948141D01*
X39813746Y-46954464D01*
X39832527Y-46957625D01*
X39866203Y-46958688D01*
X39888535Y-46958766D01*
X39973237Y-46958766D01*
X39973237Y-47064643D01*
X39877947Y-47064643D01*
X39832674Y-47064997D01*
X39804542Y-47066656D01*
X39789521Y-47070515D01*
X39783580Y-47077470D01*
X39782657Y-47085819D01*
X39783998Y-47095086D01*
X39790459Y-47101169D01*
X39805701Y-47104733D01*
X39833386Y-47106445D01*
X39877173Y-47106968D01*
X39899123Y-47106994D01*
X40015588Y-47106994D01*
X40015588Y-46778774D01*
X39904416Y-46778774D01*
X39853650Y-46779261D01*
G37*
X39853650Y-46779261D02*
X39820624Y-46781047D01*
X39801922Y-46784621D01*
X39794125Y-46790471D01*
X39793245Y-46794656D01*
X39797087Y-46802596D01*
X39811073Y-46807455D01*
X39838893Y-46809886D01*
X39883241Y-46810538D01*
X39973237Y-46810538D01*
X39973237Y-46916415D01*
X39888535Y-46916415D01*
X39846333Y-46916857D01*
X39821040Y-46918893D01*
X39808397Y-46923588D01*
X39804145Y-46932007D01*
X39803833Y-46937590D01*
X39805601Y-46948141D01*
X39813746Y-46954464D01*
X39832527Y-46957625D01*
X39866203Y-46958688D01*
X39888535Y-46958766D01*
X39973237Y-46958766D01*
X39973237Y-47064643D01*
X39877947Y-47064643D01*
X39832674Y-47064997D01*
X39804542Y-47066656D01*
X39789521Y-47070515D01*
X39783580Y-47077470D01*
X39782657Y-47085819D01*
X39783998Y-47095086D01*
X39790459Y-47101169D01*
X39805701Y-47104733D01*
X39833386Y-47106445D01*
X39877173Y-47106968D01*
X39899123Y-47106994D01*
X40015588Y-47106994D01*
X40015588Y-46778774D01*
X39904416Y-46778774D01*
X39853650Y-46779261D01*
G36*
X39227598Y-46779153D02*
G01*
X39197272Y-46781178D01*
X39177184Y-46786181D01*
X39161867Y-46795493D01*
X39146578Y-46809723D01*
X39121844Y-46847984D01*
X39114899Y-46891647D01*
X39125278Y-46935380D01*
X39152515Y-46973852D01*
X39161596Y-46981779D01*
X39183908Y-46999499D01*
X39149769Y-47047037D01*
X39127989Y-47078266D01*
X39118225Y-47096245D01*
X39119690Y-47104593D01*
X39131598Y-47106926D01*
X39136724Y-47106994D01*
X39157091Y-47097115D01*
X39182406Y-47068368D01*
X39192309Y-47053892D01*
X39212133Y-47024496D01*
X39227341Y-47008893D01*
X39244840Y-47003110D01*
X39271538Y-47003175D01*
X39279740Y-47003601D01*
X39332678Y-47006411D01*
X39335905Y-47056703D01*
X39340533Y-47090487D01*
X39349347Y-47105639D01*
X39354434Y-47106994D01*
X39360370Y-47103772D01*
X39364596Y-47092218D01*
X39367376Y-47069499D01*
X39368975Y-47032784D01*
X39369656Y-46979239D01*
X39369700Y-46958766D01*
X39338940Y-46958766D01*
X39271991Y-46958766D01*
X39220575Y-46955285D01*
X39186241Y-46945164D01*
X39181512Y-46942284D01*
X39161612Y-46916982D01*
X39157375Y-46884649D01*
X39168494Y-46852157D01*
X39186473Y-46832013D01*
X39209419Y-46818249D01*
X39237062Y-46812503D01*
X39273822Y-46812716D01*
X39332678Y-46815831D01*
X39335809Y-46887299D01*
X39338940Y-46958766D01*
X39369700Y-46958766D01*
X39369735Y-46942884D01*
X39369735Y-46778774D01*
X39273631Y-46778774D01*
X39227598Y-46779153D01*
G37*
X39227598Y-46779153D02*
X39197272Y-46781178D01*
X39177184Y-46786181D01*
X39161867Y-46795493D01*
X39146578Y-46809723D01*
X39121844Y-46847984D01*
X39114899Y-46891647D01*
X39125278Y-46935380D01*
X39152515Y-46973852D01*
X39161596Y-46981779D01*
X39183908Y-46999499D01*
X39149769Y-47047037D01*
X39127989Y-47078266D01*
X39118225Y-47096245D01*
X39119690Y-47104593D01*
X39131598Y-47106926D01*
X39136724Y-47106994D01*
X39157091Y-47097115D01*
X39182406Y-47068368D01*
X39192309Y-47053892D01*
X39212133Y-47024496D01*
X39227341Y-47008893D01*
X39244840Y-47003110D01*
X39271538Y-47003175D01*
X39279740Y-47003601D01*
X39332678Y-47006411D01*
X39335905Y-47056703D01*
X39340533Y-47090487D01*
X39349347Y-47105639D01*
X39354434Y-47106994D01*
X39360370Y-47103772D01*
X39364596Y-47092218D01*
X39367376Y-47069499D01*
X39368975Y-47032784D01*
X39369656Y-46979239D01*
X39369700Y-46958766D01*
X39338940Y-46958766D01*
X39271991Y-46958766D01*
X39220575Y-46955285D01*
X39186241Y-46945164D01*
X39181512Y-46942284D01*
X39161612Y-46916982D01*
X39157375Y-46884649D01*
X39168494Y-46852157D01*
X39186473Y-46832013D01*
X39209419Y-46818249D01*
X39237062Y-46812503D01*
X39273822Y-46812716D01*
X39332678Y-46815831D01*
X39335809Y-46887299D01*
X39338940Y-46958766D01*
X39369700Y-46958766D01*
X39369735Y-46942884D01*
X39369735Y-46778774D01*
X39273631Y-46778774D01*
X39227598Y-46779153D01*
G36*
X38701418Y-46790176D02*
G01*
X38681392Y-46814624D01*
X38655298Y-46855445D01*
X38651115Y-46862446D01*
X38630131Y-46896944D01*
X38613294Y-46923096D01*
X38603392Y-46936625D01*
X38602124Y-46937590D01*
X38595113Y-46929150D01*
X38580250Y-46906678D01*
X38560323Y-46874454D01*
X38553133Y-46862446D01*
X38526014Y-46819189D01*
X38505305Y-46792647D01*
X38488508Y-46780326D01*
X38473125Y-46779730D01*
X38470990Y-46780423D01*
X38471965Y-46790428D01*
X38482003Y-46815029D01*
X38499428Y-46850569D01*
X38522565Y-46893392D01*
X38523579Y-46895194D01*
X38551585Y-46946260D01*
X38570026Y-46984139D01*
X38580718Y-47013505D01*
X38585474Y-47039031D01*
X38586242Y-47056657D01*
X38588112Y-47089029D01*
X38594534Y-47104348D01*
X38602124Y-47106994D01*
X38612337Y-47101067D01*
X38617171Y-47080713D01*
X38618005Y-47056657D01*
X38619750Y-47031068D01*
X38626192Y-47004830D01*
X38639145Y-46973270D01*
X38660423Y-46931715D01*
X38680668Y-46895194D01*
X38703998Y-46852156D01*
X38721682Y-46816257D01*
X38732045Y-46791152D01*
X38733413Y-46780496D01*
X38733258Y-46780423D01*
X38717873Y-46779607D01*
X38701418Y-46790176D01*
G37*
X38701418Y-46790176D02*
X38681392Y-46814624D01*
X38655298Y-46855445D01*
X38651115Y-46862446D01*
X38630131Y-46896944D01*
X38613294Y-46923096D01*
X38603392Y-46936625D01*
X38602124Y-46937590D01*
X38595113Y-46929150D01*
X38580250Y-46906678D01*
X38560323Y-46874454D01*
X38553133Y-46862446D01*
X38526014Y-46819189D01*
X38505305Y-46792647D01*
X38488508Y-46780326D01*
X38473125Y-46779730D01*
X38470990Y-46780423D01*
X38471965Y-46790428D01*
X38482003Y-46815029D01*
X38499428Y-46850569D01*
X38522565Y-46893392D01*
X38523579Y-46895194D01*
X38551585Y-46946260D01*
X38570026Y-46984139D01*
X38580718Y-47013505D01*
X38585474Y-47039031D01*
X38586242Y-47056657D01*
X38588112Y-47089029D01*
X38594534Y-47104348D01*
X38602124Y-47106994D01*
X38612337Y-47101067D01*
X38617171Y-47080713D01*
X38618005Y-47056657D01*
X38619750Y-47031068D01*
X38626192Y-47004830D01*
X38639145Y-46973270D01*
X38660423Y-46931715D01*
X38680668Y-46895194D01*
X38703998Y-46852156D01*
X38721682Y-46816257D01*
X38732045Y-46791152D01*
X38733413Y-46780496D01*
X38733258Y-46780423D01*
X38717873Y-46779607D01*
X38701418Y-46790176D01*
G36*
X37931649Y-46779180D02*
G01*
X37893326Y-46780638D01*
X37869965Y-46783506D01*
X37858463Y-46788145D01*
X37855688Y-46794103D01*
X37862893Y-46804290D01*
X37886421Y-46810412D01*
X37911274Y-46812631D01*
X37966859Y-46815831D01*
X37969805Y-46961413D01*
X37971395Y-47021168D01*
X37973584Y-47062676D01*
X37976737Y-47088861D01*
X37981221Y-47102651D01*
X37987403Y-47106970D01*
X37988035Y-47106994D01*
X37994382Y-47103363D01*
X37998999Y-47090516D01*
X38002254Y-47065529D01*
X38004512Y-47025476D01*
X38006140Y-46967429D01*
X38006264Y-46961413D01*
X38009210Y-46815831D01*
X38064796Y-46812631D01*
X38100236Y-46808604D01*
X38117521Y-46801121D01*
X38120381Y-46794103D01*
X38116876Y-46787572D01*
X38104291Y-46783134D01*
X38079525Y-46780428D01*
X38039478Y-46779096D01*
X37988035Y-46778774D01*
X37931649Y-46779180D01*
G37*
X37931649Y-46779180D02*
X37893326Y-46780638D01*
X37869965Y-46783506D01*
X37858463Y-46788145D01*
X37855688Y-46794103D01*
X37862893Y-46804290D01*
X37886421Y-46810412D01*
X37911274Y-46812631D01*
X37966859Y-46815831D01*
X37969805Y-46961413D01*
X37971395Y-47021168D01*
X37973584Y-47062676D01*
X37976737Y-47088861D01*
X37981221Y-47102651D01*
X37987403Y-47106970D01*
X37988035Y-47106994D01*
X37994382Y-47103363D01*
X37998999Y-47090516D01*
X38002254Y-47065529D01*
X38004512Y-47025476D01*
X38006140Y-46967429D01*
X38006264Y-46961413D01*
X38009210Y-46815831D01*
X38064796Y-46812631D01*
X38100236Y-46808604D01*
X38117521Y-46801121D01*
X38120381Y-46794103D01*
X38116876Y-46787572D01*
X38104291Y-46783134D01*
X38079525Y-46780428D01*
X38039478Y-46779096D01*
X37988035Y-46778774D01*
X37931649Y-46779180D01*
G36*
X37201506Y-46779888D02*
G01*
X37195940Y-46785290D01*
X37192264Y-46798072D01*
X37190089Y-46821323D01*
X37189025Y-46858135D01*
X37188683Y-46911598D01*
X37188660Y-46942884D01*
X37188800Y-47005114D01*
X37189481Y-47049259D01*
X37191093Y-47078410D01*
X37194025Y-47095660D01*
X37198666Y-47104098D01*
X37205407Y-47106815D01*
X37209352Y-47106994D01*
X37220541Y-47104538D01*
X37227262Y-47094143D01*
X37231028Y-47071268D01*
X37233174Y-47035527D01*
X37236305Y-46964060D01*
X37334241Y-46961016D01*
X37432178Y-46957971D01*
X37432178Y-47032483D01*
X37432743Y-47071558D01*
X37435295Y-47093986D01*
X37441118Y-47104284D01*
X37451494Y-47106969D01*
X37453354Y-47106994D01*
X37461379Y-47105980D01*
X37467072Y-47100874D01*
X37470831Y-47088582D01*
X37473057Y-47066007D01*
X37474147Y-47030054D01*
X37474502Y-46977630D01*
X37474529Y-46942884D01*
X37474389Y-46880655D01*
X37473707Y-46836510D01*
X37472096Y-46807358D01*
X37469164Y-46790109D01*
X37464523Y-46781671D01*
X37457782Y-46778954D01*
X37453837Y-46778774D01*
X37442648Y-46781230D01*
X37435927Y-46791626D01*
X37432161Y-46814500D01*
X37430015Y-46850242D01*
X37426884Y-46921709D01*
X37236305Y-46921709D01*
X37233174Y-46850242D01*
X37230786Y-46811965D01*
X37226829Y-46790324D01*
X37219788Y-46780778D01*
X37209352Y-46778774D01*
X37201506Y-46779888D01*
G37*
X37201506Y-46779888D02*
X37195940Y-46785290D01*
X37192264Y-46798072D01*
X37190089Y-46821323D01*
X37189025Y-46858135D01*
X37188683Y-46911598D01*
X37188660Y-46942884D01*
X37188800Y-47005114D01*
X37189481Y-47049259D01*
X37191093Y-47078410D01*
X37194025Y-47095660D01*
X37198666Y-47104098D01*
X37205407Y-47106815D01*
X37209352Y-47106994D01*
X37220541Y-47104538D01*
X37227262Y-47094143D01*
X37231028Y-47071268D01*
X37233174Y-47035527D01*
X37236305Y-46964060D01*
X37334241Y-46961016D01*
X37432178Y-46957971D01*
X37432178Y-47032483D01*
X37432743Y-47071558D01*
X37435295Y-47093986D01*
X37441118Y-47104284D01*
X37451494Y-47106969D01*
X37453354Y-47106994D01*
X37461379Y-47105980D01*
X37467072Y-47100874D01*
X37470831Y-47088582D01*
X37473057Y-47066007D01*
X37474147Y-47030054D01*
X37474502Y-46977630D01*
X37474529Y-46942884D01*
X37474389Y-46880655D01*
X37473707Y-46836510D01*
X37472096Y-46807358D01*
X37469164Y-46790109D01*
X37464523Y-46781671D01*
X37457782Y-46778954D01*
X37453837Y-46778774D01*
X37442648Y-46781230D01*
X37435927Y-46791626D01*
X37432161Y-46814500D01*
X37430015Y-46850242D01*
X37426884Y-46921709D01*
X37236305Y-46921709D01*
X37233174Y-46850242D01*
X37230786Y-46811965D01*
X37226829Y-46790324D01*
X37219788Y-46780778D01*
X37209352Y-46778774D01*
X37201506Y-46779888D01*
G36*
X36735949Y-46779788D02*
G01*
X36730256Y-46784894D01*
X36726497Y-46797187D01*
X36724271Y-46819762D01*
X36723181Y-46855714D01*
X36722826Y-46908139D01*
X36722799Y-46942884D01*
X36722930Y-47005084D01*
X36723589Y-47049203D01*
X36725175Y-47078338D01*
X36728088Y-47095584D01*
X36732727Y-47104035D01*
X36739491Y-47106788D01*
X36743975Y-47106994D01*
X36752000Y-47105980D01*
X36757693Y-47100874D01*
X36761453Y-47088582D01*
X36763678Y-47066007D01*
X36764768Y-47030054D01*
X36765123Y-46977630D01*
X36765150Y-46942884D01*
X36765019Y-46880685D01*
X36764360Y-46836565D01*
X36762774Y-46807430D01*
X36759861Y-46790185D01*
X36755222Y-46781733D01*
X36748458Y-46778981D01*
X36743975Y-46778774D01*
X36735949Y-46779788D01*
G37*
X36735949Y-46779788D02*
X36730256Y-46784894D01*
X36726497Y-46797187D01*
X36724271Y-46819762D01*
X36723181Y-46855714D01*
X36722826Y-46908139D01*
X36722799Y-46942884D01*
X36722930Y-47005084D01*
X36723589Y-47049203D01*
X36725175Y-47078338D01*
X36728088Y-47095584D01*
X36732727Y-47104035D01*
X36739491Y-47106788D01*
X36743975Y-47106994D01*
X36752000Y-47105980D01*
X36757693Y-47100874D01*
X36761453Y-47088582D01*
X36763678Y-47066007D01*
X36764768Y-47030054D01*
X36765123Y-46977630D01*
X36765150Y-46942884D01*
X36765019Y-46880685D01*
X36764360Y-46836565D01*
X36762774Y-46807430D01*
X36759861Y-46790185D01*
X36755222Y-46781733D01*
X36748458Y-46778981D01*
X36743975Y-46778774D01*
X36735949Y-46779788D01*
G36*
X36026359Y-46779857D02*
G01*
X36020754Y-46785166D01*
X36017053Y-46797794D01*
X36014863Y-46820833D01*
X36013791Y-46857376D01*
X36013444Y-46910515D01*
X36013420Y-46942884D01*
X36013504Y-47005013D01*
X36014055Y-47049065D01*
X36015525Y-47078142D01*
X36018364Y-47095342D01*
X36023023Y-47103765D01*
X36029952Y-47106511D01*
X36037243Y-47106706D01*
X36050658Y-47102052D01*
X36068545Y-47086985D01*
X36092820Y-47059422D01*
X36125395Y-47017280D01*
X36149129Y-46984947D01*
X36181387Y-46941363D01*
X36209776Y-46904708D01*
X36231805Y-46878073D01*
X36244985Y-46864544D01*
X36247065Y-46863476D01*
X36251038Y-46873405D01*
X36254219Y-46900562D01*
X36256289Y-46941008D01*
X36256938Y-46985235D01*
X36257363Y-47038703D01*
X36258922Y-47074304D01*
X36262047Y-47095334D01*
X36267167Y-47105090D01*
X36272820Y-47106994D01*
X36278948Y-47104153D01*
X36283307Y-47093693D01*
X36286179Y-47072716D01*
X36287845Y-47038319D01*
X36288584Y-46987602D01*
X36288702Y-46942884D01*
X36288572Y-46880688D01*
X36287916Y-46836572D01*
X36286333Y-46807438D01*
X36283422Y-46790193D01*
X36278783Y-46781740D01*
X36272016Y-46778984D01*
X36267463Y-46778774D01*
X36252673Y-46785893D01*
X36229682Y-46807937D01*
X36197548Y-46845937D01*
X36155325Y-46900924D01*
X36153645Y-46903180D01*
X36061065Y-47027586D01*
X36058082Y-46903180D01*
X36056567Y-46850139D01*
X36054593Y-46814740D01*
X36051484Y-46793450D01*
X36046564Y-46782738D01*
X36039156Y-46779070D01*
X36034260Y-46778774D01*
X36026359Y-46779857D01*
G37*
X36026359Y-46779857D02*
X36020754Y-46785166D01*
X36017053Y-46797794D01*
X36014863Y-46820833D01*
X36013791Y-46857376D01*
X36013444Y-46910515D01*
X36013420Y-46942884D01*
X36013504Y-47005013D01*
X36014055Y-47049065D01*
X36015525Y-47078142D01*
X36018364Y-47095342D01*
X36023023Y-47103765D01*
X36029952Y-47106511D01*
X36037243Y-47106706D01*
X36050658Y-47102052D01*
X36068545Y-47086985D01*
X36092820Y-47059422D01*
X36125395Y-47017280D01*
X36149129Y-46984947D01*
X36181387Y-46941363D01*
X36209776Y-46904708D01*
X36231805Y-46878073D01*
X36244985Y-46864544D01*
X36247065Y-46863476D01*
X36251038Y-46873405D01*
X36254219Y-46900562D01*
X36256289Y-46941008D01*
X36256938Y-46985235D01*
X36257363Y-47038703D01*
X36258922Y-47074304D01*
X36262047Y-47095334D01*
X36267167Y-47105090D01*
X36272820Y-47106994D01*
X36278948Y-47104153D01*
X36283307Y-47093693D01*
X36286179Y-47072716D01*
X36287845Y-47038319D01*
X36288584Y-46987602D01*
X36288702Y-46942884D01*
X36288572Y-46880688D01*
X36287916Y-46836572D01*
X36286333Y-46807438D01*
X36283422Y-46790193D01*
X36278783Y-46781740D01*
X36272016Y-46778984D01*
X36267463Y-46778774D01*
X36252673Y-46785893D01*
X36229682Y-46807937D01*
X36197548Y-46845937D01*
X36155325Y-46900924D01*
X36153645Y-46903180D01*
X36061065Y-47027586D01*
X36058082Y-46903180D01*
X36056567Y-46850139D01*
X36054593Y-46814740D01*
X36051484Y-46793450D01*
X36046564Y-46782738D01*
X36039156Y-46779070D01*
X36034260Y-46778774D01*
X36026359Y-46779857D01*
G36*
X35403782Y-46775056D02*
G01*
X35342795Y-46796516D01*
X35322921Y-46808655D01*
X35319983Y-46818496D01*
X35327287Y-46827733D01*
X35340610Y-46837013D01*
X35356651Y-46834878D01*
X35373601Y-46826846D01*
X35424106Y-46810692D01*
X35472127Y-46813467D01*
X35514062Y-46832954D01*
X35546304Y-46866937D01*
X35565248Y-46913198D01*
X35568735Y-46946840D01*
X35559239Y-46992972D01*
X35533750Y-47030790D01*
X35496764Y-47057320D01*
X35452779Y-47069590D01*
X35406293Y-47064626D01*
X35396175Y-47060925D01*
X35371972Y-47049174D01*
X35360560Y-47035577D01*
X35357165Y-47012269D01*
X35356980Y-46996363D01*
X35355627Y-46966383D01*
X35349993Y-46952121D01*
X35337720Y-46948208D01*
X35335805Y-46948178D01*
X35323547Y-46950717D01*
X35317173Y-46961683D01*
X35314848Y-46986103D01*
X35314629Y-47006167D01*
X35315924Y-47041213D01*
X35321539Y-47062275D01*
X35334069Y-47076472D01*
X35342391Y-47082346D01*
X35381095Y-47097990D01*
X35430036Y-47104690D01*
X35480125Y-47102167D01*
X35522278Y-47090139D01*
X35526384Y-47088036D01*
X35557780Y-47065006D01*
X35585564Y-47035459D01*
X35588191Y-47031804D01*
X35602338Y-47007404D01*
X35608975Y-46982307D01*
X35609802Y-46948116D01*
X35608870Y-46929725D01*
X35605052Y-46890455D01*
X35597360Y-46863853D01*
X35582485Y-46841417D01*
X35568610Y-46826290D01*
X35519987Y-46790261D01*
X35464005Y-46773047D01*
X35403782Y-46775056D01*
G37*
X35403782Y-46775056D02*
X35342795Y-46796516D01*
X35322921Y-46808655D01*
X35319983Y-46818496D01*
X35327287Y-46827733D01*
X35340610Y-46837013D01*
X35356651Y-46834878D01*
X35373601Y-46826846D01*
X35424106Y-46810692D01*
X35472127Y-46813467D01*
X35514062Y-46832954D01*
X35546304Y-46866937D01*
X35565248Y-46913198D01*
X35568735Y-46946840D01*
X35559239Y-46992972D01*
X35533750Y-47030790D01*
X35496764Y-47057320D01*
X35452779Y-47069590D01*
X35406293Y-47064626D01*
X35396175Y-47060925D01*
X35371972Y-47049174D01*
X35360560Y-47035577D01*
X35357165Y-47012269D01*
X35356980Y-46996363D01*
X35355627Y-46966383D01*
X35349993Y-46952121D01*
X35337720Y-46948208D01*
X35335805Y-46948178D01*
X35323547Y-46950717D01*
X35317173Y-46961683D01*
X35314848Y-46986103D01*
X35314629Y-47006167D01*
X35315924Y-47041213D01*
X35321539Y-47062275D01*
X35334069Y-47076472D01*
X35342391Y-47082346D01*
X35381095Y-47097990D01*
X35430036Y-47104690D01*
X35480125Y-47102167D01*
X35522278Y-47090139D01*
X35526384Y-47088036D01*
X35557780Y-47065006D01*
X35585564Y-47035459D01*
X35588191Y-47031804D01*
X35602338Y-47007404D01*
X35608975Y-46982307D01*
X35609802Y-46948116D01*
X35608870Y-46929725D01*
X35605052Y-46890455D01*
X35597360Y-46863853D01*
X35582485Y-46841417D01*
X35568610Y-46826290D01*
X35519987Y-46790261D01*
X35464005Y-46773047D01*
X35403782Y-46775056D01*
G36*
X33027676Y-47022292D02*
G01*
X34912295Y-47022292D01*
X34912295Y-46863476D01*
X33186492Y-46863476D01*
X33186492Y-44417707D01*
X46664692Y-44417707D01*
X46664692Y-46863476D01*
X44938889Y-46863476D01*
X44938889Y-47022292D01*
X46823508Y-47022292D01*
X46823508Y-44269479D01*
X33027676Y-44269479D01*
X33027676Y-47022292D01*
G37*
X33027676Y-47022292D02*
X34912295Y-47022292D01*
X34912295Y-46863476D01*
X33186492Y-46863476D01*
X33186492Y-44417707D01*
X46664692Y-44417707D01*
X46664692Y-46863476D01*
X44938889Y-46863476D01*
X44938889Y-47022292D01*
X46823508Y-47022292D01*
X46823508Y-44269479D01*
X33027676Y-44269479D01*
X33027676Y-47022292D01*
G36*
X40898262Y-45185568D02*
G01*
X40859252Y-45187043D01*
X40829727Y-45190834D01*
X40803845Y-45198032D01*
X40775760Y-45209728D01*
X40746142Y-45223850D01*
X40703466Y-45246217D01*
X40663564Y-45269963D01*
X40634123Y-45290469D01*
X40630949Y-45293094D01*
X40595165Y-45323808D01*
X40656744Y-45397498D01*
X40684185Y-45430393D01*
X40705983Y-45456630D01*
X40718932Y-45472346D01*
X40721064Y-45475019D01*
X40730006Y-45471093D01*
X40750218Y-45456952D01*
X40769384Y-45442009D01*
X40808984Y-45411756D01*
X40841498Y-45392279D01*
X40874886Y-45379450D01*
X40904675Y-45371847D01*
X40968116Y-45367563D01*
X41027947Y-45382012D01*
X41081470Y-45412769D01*
X41125989Y-45457411D01*
X41158804Y-45513516D01*
X41177220Y-45578658D01*
X41180240Y-45619416D01*
X41170866Y-45693663D01*
X41143723Y-45758074D01*
X41100274Y-45810622D01*
X41041984Y-45849281D01*
X41003431Y-45864100D01*
X40945091Y-45873449D01*
X40886395Y-45865397D01*
X40824335Y-45839214D01*
X40776242Y-45808980D01*
X40726933Y-45774386D01*
X40660107Y-45843979D01*
X40593280Y-45913572D01*
X40635211Y-45949818D01*
X40665714Y-45972462D01*
X40707162Y-45998472D01*
X40751149Y-46022613D01*
X40755881Y-46024979D01*
X40793075Y-46042679D01*
X40823017Y-46054165D01*
X40852566Y-46060929D01*
X40888582Y-46064465D01*
X40937925Y-46066265D01*
X40946551Y-46066469D01*
X41020533Y-46065993D01*
X41076593Y-46060557D01*
X41108405Y-46053125D01*
X41170079Y-46025824D01*
X41233087Y-45984968D01*
X41289811Y-45936189D01*
X41329782Y-45889333D01*
X41368405Y-45825083D01*
X41393170Y-45760807D01*
X41406963Y-45688120D01*
X41409933Y-45656473D01*
X41407705Y-45556855D01*
X41386221Y-45465540D01*
X41346166Y-45383713D01*
X41288225Y-45312555D01*
X41213082Y-45253251D01*
X41159064Y-45223387D01*
X41124517Y-45207241D01*
X41097016Y-45196457D01*
X41070696Y-45189955D01*
X41039693Y-45186652D01*
X40998141Y-45185468D01*
X40952603Y-45185319D01*
X40898262Y-45185568D01*
G37*
X40898262Y-45185568D02*
X40859252Y-45187043D01*
X40829727Y-45190834D01*
X40803845Y-45198032D01*
X40775760Y-45209728D01*
X40746142Y-45223850D01*
X40703466Y-45246217D01*
X40663564Y-45269963D01*
X40634123Y-45290469D01*
X40630949Y-45293094D01*
X40595165Y-45323808D01*
X40656744Y-45397498D01*
X40684185Y-45430393D01*
X40705983Y-45456630D01*
X40718932Y-45472346D01*
X40721064Y-45475019D01*
X40730006Y-45471093D01*
X40750218Y-45456952D01*
X40769384Y-45442009D01*
X40808984Y-45411756D01*
X40841498Y-45392279D01*
X40874886Y-45379450D01*
X40904675Y-45371847D01*
X40968116Y-45367563D01*
X41027947Y-45382012D01*
X41081470Y-45412769D01*
X41125989Y-45457411D01*
X41158804Y-45513516D01*
X41177220Y-45578658D01*
X41180240Y-45619416D01*
X41170866Y-45693663D01*
X41143723Y-45758074D01*
X41100274Y-45810622D01*
X41041984Y-45849281D01*
X41003431Y-45864100D01*
X40945091Y-45873449D01*
X40886395Y-45865397D01*
X40824335Y-45839214D01*
X40776242Y-45808980D01*
X40726933Y-45774386D01*
X40660107Y-45843979D01*
X40593280Y-45913572D01*
X40635211Y-45949818D01*
X40665714Y-45972462D01*
X40707162Y-45998472D01*
X40751149Y-46022613D01*
X40755881Y-46024979D01*
X40793075Y-46042679D01*
X40823017Y-46054165D01*
X40852566Y-46060929D01*
X40888582Y-46064465D01*
X40937925Y-46066265D01*
X40946551Y-46066469D01*
X41020533Y-46065993D01*
X41076593Y-46060557D01*
X41108405Y-46053125D01*
X41170079Y-46025824D01*
X41233087Y-45984968D01*
X41289811Y-45936189D01*
X41329782Y-45889333D01*
X41368405Y-45825083D01*
X41393170Y-45760807D01*
X41406963Y-45688120D01*
X41409933Y-45656473D01*
X41407705Y-45556855D01*
X41386221Y-45465540D01*
X41346166Y-45383713D01*
X41288225Y-45312555D01*
X41213082Y-45253251D01*
X41159064Y-45223387D01*
X41124517Y-45207241D01*
X41097016Y-45196457D01*
X41070696Y-45189955D01*
X41039693Y-45186652D01*
X40998141Y-45185468D01*
X40952603Y-45185319D01*
X40898262Y-45185568D01*
G36*
X39359148Y-45472393D02*
G01*
X39359079Y-45557227D01*
X39358739Y-45623623D01*
X39357931Y-45674321D01*
X39356455Y-45712059D01*
X39354115Y-45739575D01*
X39350711Y-45759607D01*
X39346045Y-45774894D01*
X39339919Y-45788175D01*
X39335728Y-45795843D01*
X39300167Y-45840147D01*
X39254904Y-45868763D01*
X39204206Y-45881588D01*
X39152338Y-45878521D01*
X39103565Y-45859458D01*
X39062154Y-45824297D01*
X39046809Y-45802786D01*
X39040461Y-45790917D01*
X39035464Y-45777081D01*
X39031616Y-45758636D01*
X39028721Y-45732943D01*
X39026577Y-45697362D01*
X39024985Y-45649252D01*
X39023747Y-45585972D01*
X39022662Y-45504884D01*
X39022364Y-45479129D01*
X39019095Y-45190613D01*
X38796563Y-45190613D01*
X38799927Y-45500304D01*
X38800930Y-45589374D01*
X38801937Y-45659964D01*
X38803173Y-45714768D01*
X38804867Y-45756481D01*
X38807246Y-45787798D01*
X38810536Y-45811412D01*
X38814965Y-45830018D01*
X38820760Y-45846311D01*
X38828149Y-45862985D01*
X38831029Y-45869144D01*
X38876195Y-45941655D01*
X38936478Y-45999467D01*
X38998249Y-46036070D01*
X39050935Y-46053352D01*
X39116732Y-46064425D01*
X39188416Y-46068994D01*
X39258765Y-46066764D01*
X39320557Y-46057436D01*
X39345232Y-46050289D01*
X39424790Y-46012939D01*
X39487759Y-45962893D01*
X39535306Y-45898998D01*
X39564293Y-45833448D01*
X39569560Y-45814671D01*
X39573672Y-45791274D01*
X39576758Y-45760614D01*
X39578951Y-45720046D01*
X39580381Y-45666927D01*
X39581180Y-45598614D01*
X39581478Y-45512462D01*
X39581490Y-45486699D01*
X39581490Y-45190613D01*
X39359148Y-45190613D01*
X39359148Y-45472393D01*
G37*
X39359148Y-45472393D02*
X39359079Y-45557227D01*
X39358739Y-45623623D01*
X39357931Y-45674321D01*
X39356455Y-45712059D01*
X39354115Y-45739575D01*
X39350711Y-45759607D01*
X39346045Y-45774894D01*
X39339919Y-45788175D01*
X39335728Y-45795843D01*
X39300167Y-45840147D01*
X39254904Y-45868763D01*
X39204206Y-45881588D01*
X39152338Y-45878521D01*
X39103565Y-45859458D01*
X39062154Y-45824297D01*
X39046809Y-45802786D01*
X39040461Y-45790917D01*
X39035464Y-45777081D01*
X39031616Y-45758636D01*
X39028721Y-45732943D01*
X39026577Y-45697362D01*
X39024985Y-45649252D01*
X39023747Y-45585972D01*
X39022662Y-45504884D01*
X39022364Y-45479129D01*
X39019095Y-45190613D01*
X38796563Y-45190613D01*
X38799927Y-45500304D01*
X38800930Y-45589374D01*
X38801937Y-45659964D01*
X38803173Y-45714768D01*
X38804867Y-45756481D01*
X38807246Y-45787798D01*
X38810536Y-45811412D01*
X38814965Y-45830018D01*
X38820760Y-45846311D01*
X38828149Y-45862985D01*
X38831029Y-45869144D01*
X38876195Y-45941655D01*
X38936478Y-45999467D01*
X38998249Y-46036070D01*
X39050935Y-46053352D01*
X39116732Y-46064425D01*
X39188416Y-46068994D01*
X39258765Y-46066764D01*
X39320557Y-46057436D01*
X39345232Y-46050289D01*
X39424790Y-46012939D01*
X39487759Y-45962893D01*
X39535306Y-45898998D01*
X39564293Y-45833448D01*
X39569560Y-45814671D01*
X39573672Y-45791274D01*
X39576758Y-45760614D01*
X39578951Y-45720046D01*
X39580381Y-45666927D01*
X39581180Y-45598614D01*
X39581478Y-45512462D01*
X39581490Y-45486699D01*
X39581490Y-45190613D01*
X39359148Y-45190613D01*
X39359148Y-45472393D01*
G36*
X35366027Y-45185440D02*
G01*
X35268234Y-45205713D01*
X35182644Y-45243272D01*
X35109198Y-45298147D01*
X35047837Y-45370370D01*
X35012458Y-45430445D01*
X34999051Y-45458250D01*
X34990129Y-45482285D01*
X34984784Y-45508024D01*
X34982109Y-45540939D01*
X34981195Y-45586504D01*
X34981115Y-45619416D01*
X34981635Y-45676587D01*
X34983678Y-45717967D01*
X34987970Y-45748929D01*
X34995236Y-45774841D01*
X35005432Y-45799408D01*
X35056004Y-45886882D01*
X35119635Y-45958060D01*
X35195706Y-46012384D01*
X35279698Y-46048107D01*
X35334359Y-46060156D01*
X35399201Y-46067111D01*
X35466778Y-46068815D01*
X35529640Y-46065111D01*
X35580342Y-46055840D01*
X35584617Y-46054550D01*
X35678226Y-46015065D01*
X35757313Y-45960994D01*
X35820933Y-45893254D01*
X35868139Y-45812763D01*
X35887797Y-45760035D01*
X35905098Y-45672734D01*
X35905725Y-45622403D01*
X35674380Y-45622403D01*
X35667653Y-45693234D01*
X35645836Y-45752150D01*
X35607902Y-45802958D01*
X35550779Y-45849953D01*
X35489797Y-45876583D01*
X35426219Y-45882614D01*
X35361307Y-45867815D01*
X35331005Y-45853765D01*
X35281583Y-45816154D01*
X35240844Y-45763791D01*
X35213094Y-45702643D01*
X35207881Y-45683187D01*
X35201550Y-45613592D01*
X35212527Y-45547224D01*
X35238632Y-45487109D01*
X35277688Y-45436279D01*
X35327518Y-45397762D01*
X35385944Y-45374588D01*
X35433674Y-45369097D01*
X35485697Y-45372576D01*
X35527234Y-45385254D01*
X35566880Y-45410513D01*
X35591012Y-45431011D01*
X35636208Y-45481884D01*
X35663179Y-45538470D01*
X35673972Y-45605473D01*
X35674380Y-45622403D01*
X35905725Y-45622403D01*
X35906218Y-45582928D01*
X35891546Y-45496709D01*
X35866895Y-45430692D01*
X35815837Y-45350288D01*
X35748387Y-45283258D01*
X35664483Y-45229536D01*
X35657799Y-45226178D01*
X35617540Y-45207332D01*
X35584109Y-45195301D01*
X35549596Y-45188180D01*
X35506090Y-45184063D01*
X35476083Y-45182419D01*
X35366027Y-45185440D01*
G37*
X35366027Y-45185440D02*
X35268234Y-45205713D01*
X35182644Y-45243272D01*
X35109198Y-45298147D01*
X35047837Y-45370370D01*
X35012458Y-45430445D01*
X34999051Y-45458250D01*
X34990129Y-45482285D01*
X34984784Y-45508024D01*
X34982109Y-45540939D01*
X34981195Y-45586504D01*
X34981115Y-45619416D01*
X34981635Y-45676587D01*
X34983678Y-45717967D01*
X34987970Y-45748929D01*
X34995236Y-45774841D01*
X35005432Y-45799408D01*
X35056004Y-45886882D01*
X35119635Y-45958060D01*
X35195706Y-46012384D01*
X35279698Y-46048107D01*
X35334359Y-46060156D01*
X35399201Y-46067111D01*
X35466778Y-46068815D01*
X35529640Y-46065111D01*
X35580342Y-46055840D01*
X35584617Y-46054550D01*
X35678226Y-46015065D01*
X35757313Y-45960994D01*
X35820933Y-45893254D01*
X35868139Y-45812763D01*
X35887797Y-45760035D01*
X35905098Y-45672734D01*
X35905725Y-45622403D01*
X35674380Y-45622403D01*
X35667653Y-45693234D01*
X35645836Y-45752150D01*
X35607902Y-45802958D01*
X35550779Y-45849953D01*
X35489797Y-45876583D01*
X35426219Y-45882614D01*
X35361307Y-45867815D01*
X35331005Y-45853765D01*
X35281583Y-45816154D01*
X35240844Y-45763791D01*
X35213094Y-45702643D01*
X35207881Y-45683187D01*
X35201550Y-45613592D01*
X35212527Y-45547224D01*
X35238632Y-45487109D01*
X35277688Y-45436279D01*
X35327518Y-45397762D01*
X35385944Y-45374588D01*
X35433674Y-45369097D01*
X35485697Y-45372576D01*
X35527234Y-45385254D01*
X35566880Y-45410513D01*
X35591012Y-45431011D01*
X35636208Y-45481884D01*
X35663179Y-45538470D01*
X35673972Y-45605473D01*
X35674380Y-45622403D01*
X35905725Y-45622403D01*
X35906218Y-45582928D01*
X35891546Y-45496709D01*
X35866895Y-45430692D01*
X35815837Y-45350288D01*
X35748387Y-45283258D01*
X35664483Y-45229536D01*
X35657799Y-45226178D01*
X35617540Y-45207332D01*
X35584109Y-45195301D01*
X35549596Y-45188180D01*
X35506090Y-45184063D01*
X35476083Y-45182419D01*
X35366027Y-45185440D01*
G36*
X45097705Y-45369952D02*
G01*
X45357105Y-45375898D01*
X45359899Y-45717353D01*
X45362692Y-46058808D01*
X45584448Y-46058808D01*
X45590036Y-45375898D01*
X45838848Y-45369932D01*
X45838848Y-45190613D01*
X45097705Y-45190613D01*
X45097705Y-45369952D01*
G37*
X45097705Y-45369952D02*
X45357105Y-45375898D01*
X45359899Y-45717353D01*
X45362692Y-46058808D01*
X45584448Y-46058808D01*
X45590036Y-45375898D01*
X45838848Y-45369932D01*
X45838848Y-45190613D01*
X45097705Y-45190613D01*
X45097705Y-45369952D01*
G36*
X44288095Y-45190922D02*
G01*
X44256586Y-45192250D01*
X44239370Y-45195199D01*
X44233006Y-45200368D01*
X44234056Y-45208359D01*
X44234161Y-45208635D01*
X44240736Y-45222286D01*
X44255969Y-45252131D01*
X44278558Y-45295675D01*
X44307203Y-45350424D01*
X44340600Y-45413884D01*
X44377449Y-45483561D01*
X44388816Y-45504990D01*
X44536555Y-45783322D01*
X44536555Y-46058808D01*
X44758898Y-46058808D01*
X44758898Y-45790665D01*
X44915067Y-45499121D01*
X44953668Y-45426996D01*
X44989031Y-45360802D01*
X45019917Y-45302863D01*
X45045091Y-45255506D01*
X45063314Y-45221057D01*
X45073349Y-45201841D01*
X45074888Y-45198727D01*
X45066580Y-45195399D01*
X45041259Y-45193214D01*
X45003070Y-45192395D01*
X44965244Y-45192891D01*
X44851947Y-45195906D01*
X44754280Y-45373219D01*
X44723597Y-45428719D01*
X44696334Y-45477644D01*
X44674154Y-45517039D01*
X44658721Y-45543953D01*
X44651699Y-45555431D01*
X44651579Y-45555566D01*
X44645289Y-45548263D01*
X44630677Y-45524959D01*
X44609322Y-45488370D01*
X44582805Y-45441213D01*
X44552703Y-45386206D01*
X44546986Y-45375607D01*
X44447427Y-45190613D01*
X44337336Y-45190613D01*
X44288095Y-45190922D01*
G37*
X44288095Y-45190922D02*
X44256586Y-45192250D01*
X44239370Y-45195199D01*
X44233006Y-45200368D01*
X44234056Y-45208359D01*
X44234161Y-45208635D01*
X44240736Y-45222286D01*
X44255969Y-45252131D01*
X44278558Y-45295675D01*
X44307203Y-45350424D01*
X44340600Y-45413884D01*
X44377449Y-45483561D01*
X44388816Y-45504990D01*
X44536555Y-45783322D01*
X44536555Y-46058808D01*
X44758898Y-46058808D01*
X44758898Y-45790665D01*
X44915067Y-45499121D01*
X44953668Y-45426996D01*
X44989031Y-45360802D01*
X45019917Y-45302863D01*
X45045091Y-45255506D01*
X45063314Y-45221057D01*
X45073349Y-45201841D01*
X45074888Y-45198727D01*
X45066580Y-45195399D01*
X45041259Y-45193214D01*
X45003070Y-45192395D01*
X44965244Y-45192891D01*
X44851947Y-45195906D01*
X44754280Y-45373219D01*
X44723597Y-45428719D01*
X44696334Y-45477644D01*
X44674154Y-45517039D01*
X44658721Y-45543953D01*
X44651699Y-45555431D01*
X44651579Y-45555566D01*
X44645289Y-45548263D01*
X44630677Y-45524959D01*
X44609322Y-45488370D01*
X44582805Y-45441213D01*
X44552703Y-45386206D01*
X44546986Y-45375607D01*
X44447427Y-45190613D01*
X44337336Y-45190613D01*
X44288095Y-45190922D01*
G36*
X43901290Y-45868228D02*
G01*
X43530719Y-45868228D01*
X43530719Y-46058808D01*
X44123633Y-46058808D01*
X44123633Y-45190613D01*
X43901290Y-45190613D01*
X43901290Y-45868228D01*
G37*
X43901290Y-45868228D02*
X43530719Y-45868228D01*
X43530719Y-46058808D01*
X44123633Y-46058808D01*
X44123633Y-45190613D01*
X43901290Y-45190613D01*
X43901290Y-45868228D01*
G36*
X42726051Y-45370604D02*
G01*
X43192802Y-45370604D01*
X43189710Y-45452659D01*
X43186617Y-45534714D01*
X42982803Y-45537590D01*
X42778989Y-45540465D01*
X42778989Y-45709412D01*
X43191911Y-45709412D01*
X43191911Y-45878816D01*
X42715463Y-45878816D01*
X42715463Y-46058808D01*
X43414254Y-46058808D01*
X43414254Y-45190613D01*
X42726051Y-45190613D01*
X42726051Y-45370604D01*
G37*
X42726051Y-45370604D02*
X43192802Y-45370604D01*
X43189710Y-45452659D01*
X43186617Y-45534714D01*
X42982803Y-45537590D01*
X42778989Y-45540465D01*
X42778989Y-45709412D01*
X43191911Y-45709412D01*
X43191911Y-45878816D01*
X42715463Y-45878816D01*
X42715463Y-46058808D01*
X43414254Y-46058808D01*
X43414254Y-45190613D01*
X42726051Y-45190613D01*
X42726051Y-45370604D01*
G36*
X42299894Y-45192311D02*
G01*
X42219616Y-45193495D01*
X42157411Y-45194713D01*
X42110178Y-45196286D01*
X42074816Y-45198539D01*
X42048225Y-45201794D01*
X42027304Y-45206373D01*
X42008952Y-45212600D01*
X41990069Y-45220797D01*
X41979646Y-45225648D01*
X41927592Y-45252888D01*
X41890551Y-45280590D01*
X41862901Y-45313975D01*
X41840676Y-45354723D01*
X41827217Y-45388126D01*
X41819476Y-45422395D01*
X41816100Y-45465285D01*
X41815608Y-45498613D01*
X41816489Y-45546857D01*
X41820380Y-45582120D01*
X41828956Y-45612553D01*
X41843892Y-45646307D01*
X41847431Y-45653456D01*
X41884206Y-45711446D01*
X41921360Y-45746454D01*
X41945608Y-45766475D01*
X41956576Y-45782554D01*
X41956148Y-45787485D01*
X41947536Y-45801195D01*
X41930414Y-45828089D01*
X41907730Y-45863542D01*
X41894532Y-45884110D01*
X41866688Y-45927560D01*
X41839530Y-45970106D01*
X41817614Y-46004605D01*
X41811803Y-46013810D01*
X41783476Y-46058808D01*
X42036988Y-46058808D01*
X42101824Y-45937049D01*
X42166661Y-45815290D01*
X42334304Y-45815290D01*
X42334304Y-46058808D01*
X42556647Y-46058808D01*
X42556647Y-45370604D01*
X42334304Y-45370604D01*
X42334304Y-45637120D01*
X42212758Y-45633562D01*
X42159867Y-45631722D01*
X42123656Y-45629253D01*
X42099629Y-45625217D01*
X42083292Y-45618680D01*
X42070151Y-45608706D01*
X42063790Y-45602555D01*
X42035609Y-45561179D01*
X42024065Y-45513964D01*
X42028763Y-45466274D01*
X42049306Y-45423472D01*
X42079117Y-45394814D01*
X42098119Y-45383635D01*
X42118532Y-45376504D01*
X42145631Y-45372543D01*
X42184688Y-45370877D01*
X42224698Y-45370604D01*
X42334304Y-45370604D01*
X42556647Y-45370604D01*
X42556647Y-45188689D01*
X42299894Y-45192311D01*
G37*
X42299894Y-45192311D02*
X42219616Y-45193495D01*
X42157411Y-45194713D01*
X42110178Y-45196286D01*
X42074816Y-45198539D01*
X42048225Y-45201794D01*
X42027304Y-45206373D01*
X42008952Y-45212600D01*
X41990069Y-45220797D01*
X41979646Y-45225648D01*
X41927592Y-45252888D01*
X41890551Y-45280590D01*
X41862901Y-45313975D01*
X41840676Y-45354723D01*
X41827217Y-45388126D01*
X41819476Y-45422395D01*
X41816100Y-45465285D01*
X41815608Y-45498613D01*
X41816489Y-45546857D01*
X41820380Y-45582120D01*
X41828956Y-45612553D01*
X41843892Y-45646307D01*
X41847431Y-45653456D01*
X41884206Y-45711446D01*
X41921360Y-45746454D01*
X41945608Y-45766475D01*
X41956576Y-45782554D01*
X41956148Y-45787485D01*
X41947536Y-45801195D01*
X41930414Y-45828089D01*
X41907730Y-45863542D01*
X41894532Y-45884110D01*
X41866688Y-45927560D01*
X41839530Y-45970106D01*
X41817614Y-46004605D01*
X41811803Y-46013810D01*
X41783476Y-46058808D01*
X42036988Y-46058808D01*
X42101824Y-45937049D01*
X42166661Y-45815290D01*
X42334304Y-45815290D01*
X42334304Y-46058808D01*
X42556647Y-46058808D01*
X42556647Y-45370604D01*
X42334304Y-45370604D01*
X42334304Y-45637120D01*
X42212758Y-45633562D01*
X42159867Y-45631722D01*
X42123656Y-45629253D01*
X42099629Y-45625217D01*
X42083292Y-45618680D01*
X42070151Y-45608706D01*
X42063790Y-45602555D01*
X42035609Y-45561179D01*
X42024065Y-45513964D01*
X42028763Y-45466274D01*
X42049306Y-45423472D01*
X42079117Y-45394814D01*
X42098119Y-45383635D01*
X42118532Y-45376504D01*
X42145631Y-45372543D01*
X42184688Y-45370877D01*
X42224698Y-45370604D01*
X42334304Y-45370604D01*
X42556647Y-45370604D01*
X42556647Y-45188689D01*
X42299894Y-45192311D01*
G36*
X40224696Y-45193152D02*
G01*
X40133164Y-45195083D01*
X40059879Y-45197725D01*
X40001911Y-45201647D01*
X39956332Y-45207421D01*
X39920213Y-45215617D01*
X39890625Y-45226807D01*
X39864640Y-45241560D01*
X39839329Y-45260448D01*
X39827174Y-45270624D01*
X39783449Y-45316761D01*
X39754905Y-45369200D01*
X39739833Y-45432213D01*
X39736339Y-45497657D01*
X39743921Y-45581763D01*
X39766249Y-45651929D01*
X39804400Y-45710388D01*
X39859447Y-45759372D01*
X39863935Y-45762485D01*
X39872801Y-45769260D01*
X39876988Y-45776934D01*
X39875223Y-45788637D01*
X39866236Y-45807499D01*
X39848753Y-45836649D01*
X39821503Y-45879217D01*
X39808044Y-45899991D01*
X39778191Y-45946189D01*
X39751861Y-45987208D01*
X39731541Y-46019159D01*
X39719713Y-46038150D01*
X39718453Y-46040279D01*
X39715407Y-46048102D01*
X39719053Y-46053353D01*
X39732564Y-46056540D01*
X39759114Y-46058171D01*
X39801874Y-46058752D01*
X39834343Y-46058808D01*
X39960888Y-46058808D01*
X40090562Y-45815290D01*
X40259106Y-45815290D01*
X40259106Y-46058808D01*
X40481449Y-46058808D01*
X40481449Y-45637120D01*
X40259106Y-45637120D01*
X40138169Y-45633562D01*
X40085083Y-45631655D01*
X40048642Y-45629040D01*
X40024318Y-45624818D01*
X40007584Y-45618093D01*
X39993909Y-45607969D01*
X39989763Y-45604169D01*
X39958982Y-45562014D01*
X39946184Y-45513710D01*
X39951355Y-45464271D01*
X39974484Y-45418711D01*
X39990248Y-45401277D01*
X40003772Y-45390152D01*
X40019241Y-45382626D01*
X40041166Y-45377817D01*
X40074063Y-45374843D01*
X40122444Y-45372821D01*
X40138169Y-45372340D01*
X40259106Y-45368782D01*
X40259106Y-45637120D01*
X40481449Y-45637120D01*
X40481449Y-45188689D01*
X40224696Y-45193152D01*
G37*
X40224696Y-45193152D02*
X40133164Y-45195083D01*
X40059879Y-45197725D01*
X40001911Y-45201647D01*
X39956332Y-45207421D01*
X39920213Y-45215617D01*
X39890625Y-45226807D01*
X39864640Y-45241560D01*
X39839329Y-45260448D01*
X39827174Y-45270624D01*
X39783449Y-45316761D01*
X39754905Y-45369200D01*
X39739833Y-45432213D01*
X39736339Y-45497657D01*
X39743921Y-45581763D01*
X39766249Y-45651929D01*
X39804400Y-45710388D01*
X39859447Y-45759372D01*
X39863935Y-45762485D01*
X39872801Y-45769260D01*
X39876988Y-45776934D01*
X39875223Y-45788637D01*
X39866236Y-45807499D01*
X39848753Y-45836649D01*
X39821503Y-45879217D01*
X39808044Y-45899991D01*
X39778191Y-45946189D01*
X39751861Y-45987208D01*
X39731541Y-46019159D01*
X39719713Y-46038150D01*
X39718453Y-46040279D01*
X39715407Y-46048102D01*
X39719053Y-46053353D01*
X39732564Y-46056540D01*
X39759114Y-46058171D01*
X39801874Y-46058752D01*
X39834343Y-46058808D01*
X39960888Y-46058808D01*
X40090562Y-45815290D01*
X40259106Y-45815290D01*
X40259106Y-46058808D01*
X40481449Y-46058808D01*
X40481449Y-45637120D01*
X40259106Y-45637120D01*
X40138169Y-45633562D01*
X40085083Y-45631655D01*
X40048642Y-45629040D01*
X40024318Y-45624818D01*
X40007584Y-45618093D01*
X39993909Y-45607969D01*
X39989763Y-45604169D01*
X39958982Y-45562014D01*
X39946184Y-45513710D01*
X39951355Y-45464271D01*
X39974484Y-45418711D01*
X39990248Y-45401277D01*
X40003772Y-45390152D01*
X40019241Y-45382626D01*
X40041166Y-45377817D01*
X40074063Y-45374843D01*
X40122444Y-45372821D01*
X40138169Y-45372340D01*
X40259106Y-45368782D01*
X40259106Y-45637120D01*
X40481449Y-45637120D01*
X40481449Y-45188689D01*
X40224696Y-45193152D01*
G36*
X38257026Y-45439308D02*
G01*
X38224367Y-45505983D01*
X38194469Y-45565915D01*
X38168626Y-45616597D01*
X38148134Y-45655522D01*
X38134287Y-45680183D01*
X38128511Y-45688120D01*
X38121990Y-45679024D01*
X38107604Y-45653338D01*
X38086649Y-45613565D01*
X38060422Y-45562205D01*
X38030219Y-45501760D01*
X37999620Y-45439425D01*
X37878482Y-45190613D01*
X37633345Y-45190613D01*
X37633345Y-46058808D01*
X37823925Y-46058808D01*
X37825110Y-45886757D01*
X37825981Y-45818811D01*
X37827568Y-45749197D01*
X37829672Y-45684680D01*
X37832095Y-45632023D01*
X37833051Y-45616638D01*
X37839806Y-45518570D01*
X37946543Y-45743691D01*
X38053279Y-45968812D01*
X38126535Y-45971847D01*
X38199790Y-45974882D01*
X38304692Y-45754798D01*
X38335054Y-45691461D01*
X38362747Y-45634377D01*
X38386368Y-45586384D01*
X38404512Y-45550320D01*
X38415776Y-45529024D01*
X38418510Y-45524656D01*
X38420906Y-45531994D01*
X38423058Y-45557847D01*
X38424877Y-45599556D01*
X38426271Y-45654460D01*
X38427150Y-45719900D01*
X38427426Y-45786703D01*
X38427426Y-46058808D01*
X38628593Y-46058808D01*
X38628593Y-45190613D01*
X38377789Y-45190613D01*
X38257026Y-45439308D01*
G37*
X38257026Y-45439308D02*
X38224367Y-45505983D01*
X38194469Y-45565915D01*
X38168626Y-45616597D01*
X38148134Y-45655522D01*
X38134287Y-45680183D01*
X38128511Y-45688120D01*
X38121990Y-45679024D01*
X38107604Y-45653338D01*
X38086649Y-45613565D01*
X38060422Y-45562205D01*
X38030219Y-45501760D01*
X37999620Y-45439425D01*
X37878482Y-45190613D01*
X37633345Y-45190613D01*
X37633345Y-46058808D01*
X37823925Y-46058808D01*
X37825110Y-45886757D01*
X37825981Y-45818811D01*
X37827568Y-45749197D01*
X37829672Y-45684680D01*
X37832095Y-45632023D01*
X37833051Y-45616638D01*
X37839806Y-45518570D01*
X37946543Y-45743691D01*
X38053279Y-45968812D01*
X38126535Y-45971847D01*
X38199790Y-45974882D01*
X38304692Y-45754798D01*
X38335054Y-45691461D01*
X38362747Y-45634377D01*
X38386368Y-45586384D01*
X38404512Y-45550320D01*
X38415776Y-45529024D01*
X38418510Y-45524656D01*
X38420906Y-45531994D01*
X38423058Y-45557847D01*
X38424877Y-45599556D01*
X38426271Y-45654460D01*
X38427150Y-45719900D01*
X38427426Y-45786703D01*
X38427426Y-46058808D01*
X38628593Y-46058808D01*
X38628593Y-45190613D01*
X38377789Y-45190613D01*
X38257026Y-45439308D01*
G36*
X37191307Y-45192577D02*
G01*
X37111121Y-45193937D01*
X37048999Y-45195400D01*
X37001831Y-45197257D01*
X36966505Y-45199798D01*
X36939912Y-45203312D01*
X36918941Y-45208092D01*
X36900481Y-45214426D01*
X36884505Y-45221221D01*
X36831965Y-45252651D01*
X36784594Y-45295454D01*
X36748175Y-45343709D01*
X36732558Y-45376789D01*
X36725791Y-45407651D01*
X36720995Y-45451028D01*
X36719077Y-45498288D01*
X36719093Y-45505119D01*
X36727673Y-45589825D01*
X36752193Y-45660887D01*
X36793213Y-45719218D01*
X36851290Y-45765726D01*
X36892203Y-45787278D01*
X36917935Y-45796965D01*
X36948345Y-45803867D01*
X36988053Y-45808624D01*
X37041682Y-45811877D01*
X37080136Y-45813299D01*
X37220423Y-45817742D01*
X37220423Y-46058808D01*
X37442766Y-46058808D01*
X37442766Y-45637225D01*
X37220423Y-45637225D01*
X37110078Y-45633615D01*
X37059337Y-45631504D01*
X37024941Y-45628452D01*
X37002058Y-45623440D01*
X36985858Y-45615447D01*
X36972745Y-45604625D01*
X36941761Y-45562342D01*
X36928729Y-45513986D01*
X36933661Y-45464570D01*
X36956569Y-45419110D01*
X36972259Y-45401733D01*
X36986690Y-45389923D01*
X37003122Y-45382100D01*
X37026406Y-45377229D01*
X37061392Y-45374272D01*
X37110078Y-45372287D01*
X37220423Y-45368677D01*
X37220423Y-45637225D01*
X37442766Y-45637225D01*
X37442766Y-45188660D01*
X37191307Y-45192577D01*
G37*
X37191307Y-45192577D02*
X37111121Y-45193937D01*
X37048999Y-45195400D01*
X37001831Y-45197257D01*
X36966505Y-45199798D01*
X36939912Y-45203312D01*
X36918941Y-45208092D01*
X36900481Y-45214426D01*
X36884505Y-45221221D01*
X36831965Y-45252651D01*
X36784594Y-45295454D01*
X36748175Y-45343709D01*
X36732558Y-45376789D01*
X36725791Y-45407651D01*
X36720995Y-45451028D01*
X36719077Y-45498288D01*
X36719093Y-45505119D01*
X36727673Y-45589825D01*
X36752193Y-45660887D01*
X36793213Y-45719218D01*
X36851290Y-45765726D01*
X36892203Y-45787278D01*
X36917935Y-45796965D01*
X36948345Y-45803867D01*
X36988053Y-45808624D01*
X37041682Y-45811877D01*
X37080136Y-45813299D01*
X37220423Y-45817742D01*
X37220423Y-46058808D01*
X37442766Y-46058808D01*
X37442766Y-45637225D01*
X37220423Y-45637225D01*
X37110078Y-45633615D01*
X37059337Y-45631504D01*
X37024941Y-45628452D01*
X37002058Y-45623440D01*
X36985858Y-45615447D01*
X36972745Y-45604625D01*
X36941761Y-45562342D01*
X36928729Y-45513986D01*
X36933661Y-45464570D01*
X36956569Y-45419110D01*
X36972259Y-45401733D01*
X36986690Y-45389923D01*
X37003122Y-45382100D01*
X37026406Y-45377229D01*
X37061392Y-45374272D01*
X37110078Y-45372287D01*
X37220423Y-45368677D01*
X37220423Y-45637225D01*
X37442766Y-45637225D01*
X37442766Y-45188660D01*
X37191307Y-45192577D01*
G36*
X35918131Y-45369952D02*
G01*
X36047830Y-45372925D01*
X36177530Y-45375898D01*
X36183118Y-46058808D01*
X36404873Y-46058808D01*
X36410461Y-45375898D01*
X36659273Y-45369932D01*
X36659273Y-45190613D01*
X35918131Y-45190613D01*
X35918131Y-45369952D01*
G37*
X35918131Y-45369952D02*
X36047830Y-45372925D01*
X36177530Y-45375898D01*
X36183118Y-46058808D01*
X36404873Y-46058808D01*
X36410461Y-45375898D01*
X36659273Y-45369932D01*
X36659273Y-45190613D01*
X35918131Y-45190613D01*
X35918131Y-45369952D01*
G36*
X34445715Y-45449835D02*
G01*
X34250561Y-45709057D01*
X34244897Y-45190613D01*
X34033512Y-45190613D01*
X34033512Y-46059574D01*
X34135902Y-46056544D01*
X34238291Y-46053514D01*
X34427279Y-45804702D01*
X34475485Y-45741568D01*
X34519852Y-45684093D01*
X34558700Y-45634405D01*
X34590347Y-45594631D01*
X34613112Y-45566900D01*
X34625314Y-45553340D01*
X34626640Y-45552361D01*
X34630142Y-45561467D01*
X34632973Y-45590687D01*
X34635089Y-45638968D01*
X34636446Y-45705256D01*
X34637002Y-45788499D01*
X34637013Y-45803819D01*
X34637013Y-46058808D01*
X34838181Y-46058808D01*
X34838181Y-45190613D01*
X34640868Y-45190613D01*
X34445715Y-45449835D01*
G37*
X34445715Y-45449835D02*
X34250561Y-45709057D01*
X34244897Y-45190613D01*
X34033512Y-45190613D01*
X34033512Y-46059574D01*
X34135902Y-46056544D01*
X34238291Y-46053514D01*
X34427279Y-45804702D01*
X34475485Y-45741568D01*
X34519852Y-45684093D01*
X34558700Y-45634405D01*
X34590347Y-45594631D01*
X34613112Y-45566900D01*
X34625314Y-45553340D01*
X34626640Y-45552361D01*
X34630142Y-45561467D01*
X34632973Y-45590687D01*
X34635089Y-45638968D01*
X34636446Y-45705256D01*
X34637002Y-45788499D01*
X34637013Y-45803819D01*
X34637013Y-46058808D01*
X34838181Y-46058808D01*
X34838181Y-45190613D01*
X34640868Y-45190613D01*
X34445715Y-45449835D01*
D12*
%TO.C,R2*%
X41175000Y-57922936D02*
X41175000Y-58377064D01*
X42645000Y-57922936D02*
X42645000Y-58377064D01*
%TO.C,U2*%
X43655000Y-55560000D02*
X43655000Y-49550000D01*
X36835000Y-53310000D02*
X36835000Y-49550000D01*
X43655000Y-49550000D02*
X42395000Y-49550000D01*
X36835000Y-49550000D02*
X38095000Y-49550000D01*
%TO.C,C2*%
X45870000Y-50480000D02*
X45870000Y-53365000D01*
X44300000Y-50480000D02*
X45870000Y-50480000D01*
X44300000Y-53365000D02*
X44300000Y-50480000D01*
%TO.C,C1*%
X36345000Y-50480000D02*
X36345000Y-53365000D01*
X34775000Y-50480000D02*
X36345000Y-50480000D01*
X34775000Y-53365000D02*
X34775000Y-50480000D01*
%TO.C,D1*%
X36295000Y-56365000D02*
X36295000Y-58825000D01*
X34825000Y-56365000D02*
X36295000Y-56365000D01*
X34825000Y-58825000D02*
X34825000Y-56365000D01*
%TO.C,R1*%
X44350000Y-57922936D02*
X44350000Y-58377064D01*
X45820000Y-57922936D02*
X45820000Y-58377064D01*
%TO.C,R3*%
X38000000Y-58377064D02*
X38000000Y-57922936D01*
X39470000Y-58377064D02*
X39470000Y-57922936D01*
%TO.C,U1*%
X49125000Y-43550000D02*
X47465000Y-43550000D01*
X49125000Y-43190000D02*
X49125000Y-43550000D01*
X30885000Y-43550000D02*
X32545000Y-43550000D01*
X30885000Y-43290000D02*
X30885000Y-43550000D01*
X49130000Y-12300000D02*
X30875000Y-12300000D01*
X49115000Y-19380000D02*
X49130000Y-12300000D01*
X30875000Y-18720000D02*
X30875000Y-12300000D01*
X49115000Y-19380000D02*
X49505000Y-19380000D01*
%TO.C,J2*%
X52765000Y-20260000D02*
X51435000Y-20260000D01*
X52765000Y-21590000D02*
X52765000Y-20260000D01*
X52765000Y-22860000D02*
X50105000Y-22860000D01*
X50105000Y-22860000D02*
X50105000Y-66100000D01*
X52765000Y-22860000D02*
X52765000Y-66100000D01*
X52765000Y-66100000D02*
X50105000Y-66100000D01*
%TO.C,J3*%
X29905000Y-66100000D02*
X27245000Y-66100000D01*
X29905000Y-22860000D02*
X29905000Y-66100000D01*
X27245000Y-22860000D02*
X27245000Y-66100000D01*
X29905000Y-22860000D02*
X27245000Y-22860000D01*
X29905000Y-21590000D02*
X29905000Y-20260000D01*
X29905000Y-20260000D02*
X28575000Y-20260000D01*
%TO.C,R2*%
D13*
X40712380Y-57983333D02*
X40236190Y-57650000D01*
X40712380Y-57411904D02*
X39712380Y-57411904D01*
X39712380Y-57792857D01*
X39760000Y-57888095D01*
X39807619Y-57935714D01*
X39902857Y-57983333D01*
X40045714Y-57983333D01*
X40140952Y-57935714D01*
X40188571Y-57888095D01*
X40236190Y-57792857D01*
X40236190Y-57411904D01*
X39807619Y-58364285D02*
X39760000Y-58411904D01*
X39712380Y-58507142D01*
X39712380Y-58745238D01*
X39760000Y-58840476D01*
X39807619Y-58888095D01*
X39902857Y-58935714D01*
X39998095Y-58935714D01*
X40140952Y-58888095D01*
X40712380Y-58316666D01*
X40712380Y-58935714D01*
%TO.C,U2*%
X44195904Y-47966380D02*
X44195904Y-48775904D01*
X44148285Y-48871142D01*
X44100666Y-48918761D01*
X44005428Y-48966380D01*
X43814952Y-48966380D01*
X43719714Y-48918761D01*
X43672095Y-48871142D01*
X43624476Y-48775904D01*
X43624476Y-47966380D01*
X43195904Y-48061619D02*
X43148285Y-48014000D01*
X43053047Y-47966380D01*
X42814952Y-47966380D01*
X42719714Y-48014000D01*
X42672095Y-48061619D01*
X42624476Y-48156857D01*
X42624476Y-48252095D01*
X42672095Y-48394952D01*
X43243523Y-48966380D01*
X42624476Y-48966380D01*
%TO.C,C2*%
X45378666Y-50141142D02*
X45426285Y-50188761D01*
X45569142Y-50236380D01*
X45664380Y-50236380D01*
X45807238Y-50188761D01*
X45902476Y-50093523D01*
X45950095Y-49998285D01*
X45997714Y-49807809D01*
X45997714Y-49664952D01*
X45950095Y-49474476D01*
X45902476Y-49379238D01*
X45807238Y-49284000D01*
X45664380Y-49236380D01*
X45569142Y-49236380D01*
X45426285Y-49284000D01*
X45378666Y-49331619D01*
X44997714Y-49331619D02*
X44950095Y-49284000D01*
X44854857Y-49236380D01*
X44616761Y-49236380D01*
X44521523Y-49284000D01*
X44473904Y-49331619D01*
X44426285Y-49426857D01*
X44426285Y-49522095D01*
X44473904Y-49664952D01*
X45045333Y-50236380D01*
X44426285Y-50236380D01*
%TO.C,C1*%
X35726666Y-50141142D02*
X35774285Y-50188761D01*
X35917142Y-50236380D01*
X36012380Y-50236380D01*
X36155238Y-50188761D01*
X36250476Y-50093523D01*
X36298095Y-49998285D01*
X36345714Y-49807809D01*
X36345714Y-49664952D01*
X36298095Y-49474476D01*
X36250476Y-49379238D01*
X36155238Y-49284000D01*
X36012380Y-49236380D01*
X35917142Y-49236380D01*
X35774285Y-49284000D01*
X35726666Y-49331619D01*
X34774285Y-50236380D02*
X35345714Y-50236380D01*
X35060000Y-50236380D02*
X35060000Y-49236380D01*
X35155238Y-49379238D01*
X35250476Y-49474476D01*
X35345714Y-49522095D01*
%TO.C,D1*%
X34582380Y-57286904D02*
X33582380Y-57286904D01*
X33582380Y-57525000D01*
X33630000Y-57667857D01*
X33725238Y-57763095D01*
X33820476Y-57810714D01*
X34010952Y-57858333D01*
X34153809Y-57858333D01*
X34344285Y-57810714D01*
X34439523Y-57763095D01*
X34534761Y-57667857D01*
X34582380Y-57525000D01*
X34582380Y-57286904D01*
X34582380Y-58810714D02*
X34582380Y-58239285D01*
X34582380Y-58525000D02*
X33582380Y-58525000D01*
X33725238Y-58429761D01*
X33820476Y-58334523D01*
X33868095Y-58239285D01*
%TO.C,R1*%
X43887380Y-57983333D02*
X43411190Y-57650000D01*
X43887380Y-57411904D02*
X42887380Y-57411904D01*
X42887380Y-57792857D01*
X42935000Y-57888095D01*
X42982619Y-57935714D01*
X43077857Y-57983333D01*
X43220714Y-57983333D01*
X43315952Y-57935714D01*
X43363571Y-57888095D01*
X43411190Y-57792857D01*
X43411190Y-57411904D01*
X43887380Y-58935714D02*
X43887380Y-58364285D01*
X43887380Y-58650000D02*
X42887380Y-58650000D01*
X43030238Y-58554761D01*
X43125476Y-58459523D01*
X43173095Y-58364285D01*
%TO.C,R3*%
X37587180Y-57854553D02*
X37110990Y-57521220D01*
X37587180Y-57283124D02*
X36587180Y-57283124D01*
X36587180Y-57664077D01*
X36634800Y-57759315D01*
X36682419Y-57806934D01*
X36777657Y-57854553D01*
X36920514Y-57854553D01*
X37015752Y-57806934D01*
X37063371Y-57759315D01*
X37110990Y-57664077D01*
X37110990Y-57283124D01*
X36587180Y-58187886D02*
X36587180Y-58806934D01*
X36968133Y-58473600D01*
X36968133Y-58616458D01*
X37015752Y-58711696D01*
X37063371Y-58759315D01*
X37158609Y-58806934D01*
X37396704Y-58806934D01*
X37491942Y-58759315D01*
X37539561Y-58711696D01*
X37587180Y-58616458D01*
X37587180Y-58330743D01*
X37539561Y-58235505D01*
X37491942Y-58187886D01*
%TO.C,U1*%
X49867380Y-41518095D02*
X50676904Y-41518095D01*
X50772142Y-41565714D01*
X50819761Y-41613333D01*
X50867380Y-41708571D01*
X50867380Y-41899047D01*
X50819761Y-41994285D01*
X50772142Y-42041904D01*
X50676904Y-42089523D01*
X49867380Y-42089523D01*
X50867380Y-43089523D02*
X50867380Y-42518095D01*
X50867380Y-42803809D02*
X49867380Y-42803809D01*
X50010238Y-42708571D01*
X50105476Y-42613333D01*
X50153095Y-42518095D01*
%TD*%
M02*
